{"glyphs":{"0":{"ha":850,"x_min":0,"x_max":0,"o":"m 731 1046 b 672 1094 710 1071 688 1086 b 649 1097 656 1101 647 1103 b 682 1057 650 1092 663 1081 b 699 1036 688 1050 693 1043 b 642 1086 683 1056 664 1072 b 629 1094 638 1089 633 1092 b 629 1094 629 1094 629 1094 b 643 1097 643 1090 647 1092 b 607 1122 639 1103 626 1113 b 535 1143 588 1132 563 1140 b 493 1143 521 1144 507 1144 b 472 1142 486 1143 479 1143 b 464 1140 469 1142 467 1142 l 461 1140 l 460 1140 b 460 1140 460 1140 460 1140 b 458 1140 460 1140 458 1140 b 450 1140 456 1140 453 1140 b 438 1139 446 1140 442 1140 b 418 1126 429 1136 422 1132 b 415 1122 417 1125 415 1124 b 413 1119 414 1121 413 1119 b 410 1115 413 1118 411 1117 b 400 1108 407 1114 403 1111 b 358 1065 388 1097 372 1083 b 349 1051 356 1061 351 1057 l 344 1043 b 340 1039 343 1042 342 1040 b 315 1014 332 1031 324 1022 b 233 935 281 982 247 951 b 101 728 174 867 138 801 b 24 531 75 674 49 603 b -39 318 -1 458 -24 383 b -57 219 -47 279 -53 250 b -58 169 -58 204 -60 188 b -47 107 -57 151 -54 131 b -19 49 -40 86 -31 67 b 22 4 -7 32 7 17 b 72 -28 38 -8 54 -19 b 128 -47 90 -36 108 -43 b 204 -53 158 -54 183 -54 b 258 -46 225 -51 242 -49 b 369 -8 290 -37 321 -29 b 457 36 401 6 424 14 b 529 99 481 53 506 74 b 563 138 540 111 551 124 b 592 179 572 151 582 165 b 682 349 629 238 660 299 b 776 643 728 450 758 546 b 793 790 785 692 790 740 b 775 944 794 840 790 892 b 725 1039 764 981 746 1014 z m 285 128 b 306 139 293 132 300 136 b 353 169 331 154 344 164 b 285 125 332 151 310 136 z m 561 524 b 529 490 560 550 544 526 b 492 378 514 454 496 406 b 451 304 489 356 471 328 b 421 272 440 293 431 282 b 399 251 411 264 403 257 b 282 149 358 210 326 176 b 269 140 278 146 274 143 b 257 133 265 138 261 136 b 242 125 253 131 247 128 b 225 119 236 122 231 121 b 208 115 219 118 214 117 b 192 113 203 114 197 114 b 175 111 186 111 181 111 b 157 114 169 113 163 113 b 124 132 144 117 133 124 b 103 163 114 140 108 151 b 94 233 94 186 93 211 b 110 300 97 261 103 281 b 132 371 117 319 124 340 b 175 522 149 426 160 472 b 238 676 199 600 201 615 b 275 729 250 696 261 707 b 331 821 292 756 311 788 b 360 871 340 838 350 854 b 376 896 365 879 371 888 b 381 904 378 899 379 901 l 383 907 l 385 908 b 385 908 385 908 385 908 b 389 907 386 907 388 907 b 393 907 390 907 392 907 l 397 906 b 421 904 406 904 414 904 b 453 908 432 904 443 906 b 479 919 463 911 472 917 b 521 922 493 926 508 928 b 553 893 533 917 544 906 b 571 851 561 881 567 867 b 579 806 575 836 578 821 b 581 757 581 790 581 774 b 568 660 579 725 575 693 b 551 551 558 615 551 574 b 576 564 551 529 560 526 b 583 581 579 569 582 575 b 569 531 579 564 575 547 b 565 522 568 528 567 525 z m 176 801 b 122 708 157 771 139 740 b 135 732 126 717 131 725 b 178 800 156 768 168 788 z "},"1":{"ha":447,"x_min":0,"x_max":0,"o":"m 506 1135 b 454 1153 489 1146 471 1151 b 379 1126 419 1156 392 1140 b 369 1104 367 1113 364 1104 b 415 1121 375 1104 388 1115 b 436 1122 422 1122 429 1122 b 382 1096 417 1121 397 1113 b 374 1088 379 1093 376 1090 b 368 1099 382 1101 378 1103 b 318 1081 358 1094 342 1086 b 236 1054 294 1074 264 1068 b 181 994 207 1042 185 1015 b 175 957 178 983 175 971 b 186 914 175 943 179 928 b 218 878 193 900 204 888 b 226 869 221 875 224 872 b 231 867 229 868 229 868 b 236 863 233 865 235 864 b 228 854 233 858 229 856 l 226 853 l 226 853 l 225 850 b 221 842 224 847 222 844 b 144 640 185 771 165 708 b 93 461 129 590 113 526 b 35 274 74 396 53 329 b 6 188 24 239 14 214 b -12 90 -3 161 -10 133 b -12 61 -12 81 -12 71 b -12 33 -12 51 -12 42 b -10 8 -12 25 -11 17 l -8 -4 b -3 -22 -7 -10 -6 -17 b 49 -56 8 -43 28 -54 b 81 -46 60 -56 72 -53 b 96 -18 90 -39 94 -26 b 160 189 122 85 125 104 b 194 267 171 217 182 235 b 254 426 214 313 233 369 b 317 583 275 483 297 539 b 440 826 357 672 399 750 b 503 939 461 864 482 901 b 533 997 513 958 522 978 b 540 1085 546 1019 554 1054 b 500 1133 532 1106 517 1122 z m 193 717 b 160 629 182 688 171 658 b 168 651 163 638 165 644 b 194 715 181 683 189 703 z "},"2":{"ha":749,"x_min":0,"x_max":0,"o":"m 365 22 b 390 28 385 22 394 24 b 331 46 386 32 368 40 b 297 49 319 47 308 49 b 393 39 329 49 361 46 b 410 38 399 38 404 38 b 392 32 399 35 393 35 b 404 25 390 31 394 28 b 421 24 408 24 414 24 b 444 28 428 24 436 25 b 490 67 461 33 479 47 b 503 136 501 86 507 111 b 489 172 500 149 496 161 b 467 200 482 183 475 192 b 413 233 450 217 431 228 b 386 239 403 236 394 238 b 365 239 378 240 368 240 b 322 235 356 238 339 236 l 319 235 b 321 236 319 235 321 236 l 325 240 b 333 249 328 243 331 246 b 353 265 339 254 346 260 b 365 276 356 267 361 272 l 378 289 b 403 314 386 297 394 306 b 478 393 436 346 464 376 b 624 674 549 486 590 574 b 642 732 629 692 636 711 b 656 799 647 753 653 775 b 661 872 660 822 661 847 b 651 947 660 897 658 922 b 621 1017 644 972 635 996 b 597 1046 615 1028 606 1036 b 568 1068 588 1054 579 1063 b 501 1094 547 1082 524 1089 b 468 1099 490 1096 479 1097 b 435 1099 457 1099 446 1100 b 307 1072 382 1096 344 1086 b 189 986 269 1057 229 1036 b 176 968 185 981 181 975 b 164 943 172 960 168 951 b 154 918 158 935 157 926 b 150 906 153 914 151 910 l 150 896 b 150 876 150 889 149 882 b 161 860 151 871 156 864 b 199 856 172 851 189 850 b 208 865 203 858 204 861 b 217 872 211 868 214 869 l 225 882 b 258 918 236 899 251 913 b 315 957 275 933 294 946 b 400 988 347 974 375 983 b 465 982 425 992 447 990 b 499 935 483 974 494 957 b 492 856 503 913 500 886 b 444 746 481 814 465 789 b 388 643 428 714 408 679 b 319 536 367 607 344 571 b 164 351 271 465 214 400 b 8 222 113 303 61 260 b -71 168 -18 203 -44 185 l -90 156 l -100 150 b -111 143 -103 149 -107 146 l -122 135 l -132 124 b -140 113 -135 121 -137 117 b -147 100 -143 108 -146 104 b -150 43 -154 82 -154 61 b -125 -6 -146 25 -136 8 b -81 -39 -114 -21 -99 -32 b -22 -46 -62 -47 -42 -49 l -8 -43 b 3 -39 -4 -42 -1 -40 l 25 -32 b 71 -19 40 -28 56 -24 b 163 4 101 -11 132 -3 b 279 24 204 14 244 21 b 363 26 314 26 343 26 z m 551 572 b 604 692 571 611 589 651 b 593 664 600 682 596 672 b 550 574 574 618 560 592 z "},"3":{"ha":754,"x_min":0,"x_max":0,"o":"m 722 1017 b 718 1029 721 1021 719 1025 l 711 1043 b 672 1093 701 1061 689 1079 b 615 1122 656 1107 636 1117 b 553 1129 594 1128 574 1129 b 436 1108 513 1129 474 1121 b 217 978 332 1075 251 1014 b 201 950 200 960 194 949 b 267 989 208 951 228 965 b 299 1006 276 994 288 1000 b 211 939 263 982 232 958 b 203 922 206 933 203 928 b 203 931 203 925 203 928 b 203 938 203 933 203 936 b 206 944 204 940 206 943 b 203 944 206 946 204 946 b 196 938 201 943 199 942 b 190 918 193 933 190 926 b 199 892 190 910 193 900 b 225 872 204 883 213 876 b 265 878 238 868 253 869 b 393 943 301 901 347 926 b 458 964 415 951 438 958 b 513 976 479 968 499 972 b 549 978 524 979 536 981 b 564 969 554 976 560 974 b 572 953 568 965 571 960 b 560 911 574 940 568 925 b 531 871 551 897 542 883 b 400 781 486 821 426 796 b 315 733 371 765 342 750 b 239 683 289 717 264 700 b 165 633 214 667 190 650 b 128 608 153 625 140 617 b 111 596 122 604 117 600 l 107 593 l 101 589 l 92 581 b 78 565 86 576 82 571 b 68 546 74 560 71 553 b 64 500 64 532 61 515 b 114 428 69 469 89 444 b 203 411 139 411 172 404 b 243 415 217 414 229 417 b 282 407 256 415 269 413 b 340 353 307 397 328 378 b 354 271 353 328 358 299 b 318 199 350 243 336 218 b 254 156 299 179 276 165 b 178 135 226 143 201 138 b 143 131 165 133 154 132 b 126 131 138 131 132 131 b 113 131 121 131 117 131 b 101 132 108 131 104 131 b 99 143 97 133 97 139 b 103 156 100 147 101 151 l 104 158 l 106 163 b 110 174 107 165 108 169 b 54 261 115 207 94 244 b 40 265 50 263 46 264 b 28 265 36 265 32 265 b 3 264 19 265 11 265 b -46 244 -15 261 -32 254 b -101 165 -75 225 -93 196 b -54 -1 -117 104 -96 42 b -3 -39 -37 -18 -19 -31 b 44 -57 14 -47 29 -53 b 126 -67 75 -64 101 -67 b 164 -65 139 -67 151 -65 b 203 -61 176 -64 189 -64 b 299 -37 231 -57 261 -50 b 365 -12 324 -29 344 -22 b 431 26 386 -3 407 8 b 524 139 465 54 500 92 b 560 293 547 185 561 239 b 518 444 560 347 543 400 b 474 503 506 467 490 486 b 461 515 469 507 465 511 b 453 519 458 517 456 518 b 447 524 451 521 449 524 b 435 535 443 528 439 532 b 431 535 433 535 432 535 b 431 535 429 535 431 535 l 436 539 l 443 543 b 464 556 450 547 457 551 b 513 589 481 567 497 578 b 604 663 544 613 575 636 b 733 850 661 714 710 775 b 740 967 744 888 749 928 b 732 996 738 976 736 986 z m 139 571 b 215 618 172 592 197 607 b 124 560 185 599 154 579 b 119 556 122 558 121 557 b 124 560 121 557 122 558 b 140 569 129 564 135 567 z "},"4":{"ha":683,"x_min":0,"x_max":0,"o":"m 201 60 b 247 -3 203 44 214 14 b 275 -11 256 -7 265 -10 b 306 -8 285 -12 296 -12 b 333 8 317 -6 326 1 b 351 28 339 15 346 21 b 388 103 372 54 383 83 b 429 219 394 133 411 178 b 457 276 438 240 447 260 b 476 317 465 293 472 307 b 557 542 513 397 533 465 b 703 943 593 653 653 822 b 740 1029 717 978 729 1003 b 757 1071 746 1042 751 1056 b 754 1106 761 1081 761 1094 b 740 1121 751 1111 746 1117 b 732 1126 738 1124 735 1125 b 726 1128 729 1128 728 1128 b 724 1131 725 1129 725 1129 b 717 1136 722 1132 719 1135 b 671 1140 703 1146 683 1146 b 642 1128 661 1136 651 1132 b 590 1100 624 1119 607 1110 b 500 1036 558 1081 529 1060 b 403 956 453 1000 428 976 b 314 885 378 935 354 915 b 238 829 288 864 267 853 b 97 697 194 794 143 749 b -8 535 51 646 13 588 b -19 506 -12 525 -17 515 b -28 475 -22 496 -26 488 b -6 414 -29 451 -19 431 b 50 383 8 397 28 385 b 104 376 68 382 86 379 b 208 364 139 372 174 367 b 263 363 226 363 244 361 b 275 363 268 363 272 363 l 275 363 b 275 363 275 363 275 363 l 274 361 l 272 358 l 269 354 l 268 353 l 268 351 b 267 350 268 351 268 351 l 258 332 b 221 257 246 307 233 282 b 186 163 206 225 193 193 b 183 86 179 132 179 104 b 196 64 188 68 193 60 b 207 114 200 68 200 85 b 214 136 208 122 211 129 b 208 63 208 111 206 86 b 211 50 208 58 210 54 b 197 51 201 65 197 67 z m 193 550 b 193 546 193 549 193 547 b 189 546 192 546 190 546 b 193 550 190 547 192 549 z m 381 721 b 479 840 406 756 440 813 b 514 858 492 849 503 853 b 510 850 513 856 511 853 b 474 771 496 810 496 801 b 451 744 467 761 458 756 b 399 617 429 710 414 653 b 378 574 392 601 385 588 l 372 564 b 369 560 371 561 371 561 b 364 551 368 557 367 553 l 357 556 l 354 557 l 353 558 l 349 560 b 317 571 339 564 328 568 b 251 581 296 576 274 579 b 243 581 249 581 246 581 b 254 604 249 589 253 597 b 321 656 258 629 308 647 b 376 719 346 675 360 696 z m 356 728 b 338 708 347 718 342 713 b 363 733 346 717 354 725 b 358 729 361 732 360 731 z m 490 438 b 528 538 503 471 515 504 b 528 542 528 539 528 540 b 519 519 525 533 522 526 b 486 438 503 474 493 451 z "},"5":{"ha":801,"x_min":0,"x_max":0,"o":"m 601 949 b 696 931 619 944 654 939 b 839 915 738 922 789 913 b 860 918 844 915 853 917 b 881 925 867 919 874 922 b 910 954 893 932 903 943 b 917 1015 922 978 921 1000 b 897 1054 913 1028 907 1042 b 889 1063 894 1057 892 1060 b 881 1071 886 1065 883 1068 b 869 1079 878 1074 874 1076 b 857 1085 865 1082 861 1083 b 758 1115 828 1100 793 1110 b 590 1126 689 1128 622 1128 b 404 1090 522 1122 461 1111 b 363 1072 390 1085 376 1079 b 342 1063 356 1069 349 1067 l 336 1060 l 329 1056 b 317 1044 325 1053 321 1049 b 307 979 301 1028 296 1001 b 332 953 313 968 322 958 b 340 951 335 951 338 951 b 344 951 342 951 343 951 b 344 950 346 951 344 950 l 343 947 l 340 942 l 339 939 l 338 938 l 335 935 b 326 918 332 929 329 924 b 285 854 313 897 299 876 b 242 788 271 832 257 810 b 217 754 233 776 225 765 l 204 738 b 192 719 200 732 196 726 b 182 676 183 707 179 692 b 201 638 185 661 192 647 b 238 618 211 628 224 621 b 278 622 251 615 265 617 b 294 633 283 626 289 631 b 313 642 300 636 306 640 l 322 644 b 331 646 325 646 328 646 b 351 644 338 647 344 646 b 360 642 354 644 357 643 b 368 638 363 640 365 639 b 383 626 374 633 379 631 b 396 613 388 622 392 618 l 401 606 l 407 599 b 433 525 424 574 431 549 b 428 460 436 501 433 481 b 353 326 415 418 394 376 b 224 221 314 281 271 246 b 151 192 200 208 176 197 b 90 208 128 186 103 189 b 76 260 79 224 76 243 b 78 308 76 276 78 293 b 71 353 78 324 76 339 b 43 383 65 367 54 376 b 26 390 38 386 32 389 b 7 394 21 392 14 394 b -33 381 -7 394 -21 389 b -50 367 -39 376 -44 372 b -67 350 -56 361 -61 356 b -82 331 -72 344 -76 338 b -96 307 -87 324 -92 315 b -100 299 -97 304 -99 301 b -104 290 -101 296 -103 293 b -111 274 -107 285 -110 279 b -115 257 -112 268 -114 263 b -118 240 -117 251 -118 246 b -122 224 -119 235 -121 229 b -122 206 -122 218 -122 213 b -122 197 -122 203 -122 200 b -122 189 -122 194 -122 192 b -118 168 -121 182 -121 175 b -40 44 -107 125 -82 78 b 29 4 -21 26 4 14 b 107 -11 54 -4 81 -11 b 258 21 161 -14 214 0 b 375 94 304 42 343 68 b 522 267 436 144 486 203 b 590 469 558 331 583 399 b 547 678 597 540 586 615 b 471 760 528 710 501 738 b 421 789 456 771 439 781 l 404 796 b 403 796 403 796 403 796 b 404 797 403 796 404 797 l 406 797 b 406 797 406 797 406 797 l 407 800 l 410 806 b 447 871 424 828 436 850 b 464 903 453 882 458 893 b 472 919 467 908 469 914 l 476 926 l 478 931 b 479 931 479 932 479 931 b 479 931 479 931 479 931 b 479 931 479 931 479 931 l 479 931 l 482 931 b 490 931 485 931 488 931 b 503 931 494 931 499 931 b 546 935 519 932 535 933 b 503 954 593 943 592 951 b 474 954 493 954 483 954 l 467 954 b 578 958 504 956 542 958 b 597 958 585 958 590 958 b 592 947 572 954 574 950 z m 342 965 b 342 965 342 965 342 965 b 346 965 343 965 344 965 b 342 965 344 965 343 965 z m 351 964 b 356 964 353 964 354 964 b 351 964 354 964 353 964 z m 324 978 b 317 1010 315 988 314 1000 b 333 1033 319 1019 326 1028 b 372 1051 349 1042 361 1047 b 386 1056 378 1053 382 1054 b 340 1036 371 1050 356 1043 b 338 968 311 1021 310 982 b 325 978 332 971 328 974 z "},"6":{"ha":689,"x_min":0,"x_max":0,"o":"m 453 900 b 511 942 465 907 486 922 b 588 1015 536 961 565 986 b 603 1036 593 1022 599 1029 b 611 1068 608 1046 611 1057 b 583 1113 611 1090 596 1107 b 549 1117 574 1117 561 1118 b 531 1113 542 1115 536 1114 b 514 1107 525 1111 519 1110 b 444 1075 490 1099 467 1088 b 340 1006 399 1050 358 1021 b 290 957 322 989 306 972 b 246 908 275 942 260 925 b 167 803 217 875 192 840 b 54 601 129 749 90 676 b 1 488 36 564 18 525 b -42 379 -14 450 -29 414 b -62 324 -50 358 -56 340 b -78 275 -68 307 -74 292 b -89 222 -82 258 -87 242 b -93 192 -90 213 -93 203 b -93 156 -93 181 -93 168 b -51 26 -90 107 -74 64 b 40 -61 -29 -11 3 -40 b 119 -86 71 -76 97 -83 b 179 -87 142 -89 161 -89 b 235 -76 197 -86 215 -82 b 303 -50 254 -71 276 -62 b 347 -24 319 -42 333 -33 b 390 13 361 -14 375 -3 b 451 96 413 35 433 64 b 492 204 469 128 485 165 b 492 319 499 243 499 283 b 476 371 489 338 483 354 b 451 414 469 386 461 401 b 314 508 418 464 367 496 b 233 513 288 514 260 515 b 213 510 226 511 219 511 l 204 508 b 200 508 203 508 201 508 b 185 504 194 507 189 506 l 178 501 l 182 511 b 190 526 185 517 188 522 l 192 529 l 196 538 l 206 556 b 226 593 213 568 219 581 b 322 735 254 642 286 689 b 431 875 368 793 411 846 b 394 867 450 903 443 910 b 374 850 388 861 381 856 b 428 908 392 869 410 889 b 438 917 431 911 435 914 b 443 906 428 900 432 899 z m 299 254 b 299 254 299 254 299 254 b 292 229 297 246 294 238 b 292 236 292 232 292 235 b 297 256 294 246 296 251 z m 194 308 b 243 314 211 304 232 306 b 271 307 251 319 265 315 b 272 288 278 299 272 290 b 272 236 271 275 274 257 b 263 181 271 221 269 200 b 229 131 256 161 244 142 b 204 119 221 124 213 121 b 192 117 200 118 196 118 b 178 114 188 117 183 115 b 165 111 174 113 169 111 b 160 111 163 111 161 111 b 156 111 158 111 157 111 b 143 110 151 110 147 110 b 131 111 139 110 135 110 b 104 128 118 115 110 121 b 93 157 99 135 94 143 b 96 182 92 165 96 172 b 96 281 96 208 90 251 b 104 317 97 293 100 306 b 108 333 106 322 107 328 b 113 340 110 336 111 339 b 124 338 118 349 122 353 b 124 331 124 335 124 332 b 124 331 124 331 124 331 l 124 331 b 124 331 124 331 124 331 l 125 329 b 142 319 131 325 136 322 b 168 317 151 315 161 315 b 167 340 182 321 181 329 b 163 344 165 342 164 343 b 182 338 168 342 175 339 b 186 338 183 338 185 338 b 201 317 175 331 185 321 z m 250 893 b 175 803 224 864 199 833 b 193 828 182 813 188 821 b 249 894 219 863 236 882 z "},"7":{"ha":693,"x_min":0,"x_max":0,"o":"m 611 465 b 624 488 618 475 622 482 b 621 492 625 492 624 493 b 606 481 618 490 614 486 b 567 461 597 475 585 467 b 538 457 557 458 547 457 b 610 500 565 461 590 472 b 617 515 613 504 615 510 b 618 496 614 500 613 494 b 638 528 622 497 633 507 b 635 564 639 539 639 551 b 628 582 633 569 631 576 b 624 590 626 585 625 588 b 618 599 622 593 621 594 b 581 631 610 613 596 624 b 568 635 571 635 571 635 b 561 635 567 635 564 635 b 560 638 560 635 560 636 l 561 640 l 563 646 l 564 649 l 567 657 b 571 674 568 663 569 668 b 586 725 578 693 583 711 b 625 869 592 761 611 815 b 642 1007 639 924 644 979 b 624 1089 640 1035 635 1063 b 574 1157 613 1115 596 1139 b 499 1192 551 1175 525 1188 b 424 1194 474 1196 449 1197 b 186 1100 347 1188 264 1147 b 128 1063 167 1088 147 1075 b 113 1051 122 1060 117 1057 b 106 1036 108 1047 106 1042 b 122 1007 106 1024 113 1013 b 139 1003 128 1004 133 1003 b 156 1007 144 1003 150 1006 b 185 1017 165 1011 175 1014 b 246 1029 206 1022 226 1026 b 356 1038 289 1036 322 1035 b 406 1038 372 1039 389 1039 b 431 1035 414 1038 422 1036 b 442 1031 435 1033 439 1032 b 447 1025 444 1029 446 1028 b 450 1019 449 1024 450 1022 b 450 1015 450 1018 450 1017 b 450 1007 450 1013 450 1010 b 442 939 450 985 446 961 b 425 874 436 917 431 894 b 383 750 414 832 400 792 b 350 668 371 717 360 690 b 338 638 346 657 342 647 b 325 611 333 628 329 619 l 324 608 b 322 606 324 607 324 606 l 317 604 b 304 600 313 603 308 601 b 274 592 294 597 285 594 b 200 565 253 586 229 579 b 174 553 190 561 182 557 b 161 544 169 550 165 547 b 147 533 157 542 151 538 b 133 499 139 525 133 513 b 150 457 133 485 139 469 b 176 440 157 449 167 443 b 201 435 185 438 193 436 b 210 435 204 435 207 435 l 214 435 b 222 435 217 435 219 435 b 215 419 221 431 218 425 b 194 378 208 406 201 392 b 153 292 181 349 167 319 b 79 135 126 235 101 181 b 67 114 75 128 71 121 b 56 89 63 107 58 97 b 60 35 51 71 53 51 b 142 -26 75 0 108 -21 b 193 -22 158 -29 176 -28 b 236 8 210 -17 225 -6 b 250 31 242 15 246 24 l 260 50 b 281 88 267 63 274 75 b 443 397 333 190 386 290 b 456 422 447 406 451 414 b 456 422 456 422 456 422 l 461 422 b 478 422 467 422 472 422 b 507 422 488 422 497 422 b 561 435 526 424 546 428 b 597 460 576 442 589 451 z m 444 1168 b 526 1149 485 1167 510 1157 b 531 1144 528 1147 529 1146 b 481 1164 517 1153 500 1160 b 414 1168 458 1168 436 1169 b 443 1169 425 1169 435 1169 z "},"8":{"ha":799,"x_min":0,"x_max":0,"o":"m 558 1228 b 378 1139 476 1203 408 1164 b 363 1118 363 1126 357 1118 b 419 1138 368 1117 386 1124 b 449 1150 429 1142 439 1146 b 371 1107 417 1135 389 1119 b 358 1099 367 1104 363 1101 b 357 1111 374 1114 371 1117 b 288 1071 343 1106 317 1092 b 201 993 258 1050 226 1022 b 151 908 176 964 158 932 b 132 842 146 890 136 868 b 136 756 126 815 128 785 b 213 638 151 699 192 654 b 281 594 235 619 258 606 b 297 586 286 592 292 589 l 299 585 l 301 583 l 303 583 b 303 583 303 583 303 583 l 300 581 l 299 579 l 292 574 b 279 561 288 569 283 565 b 228 511 261 546 244 529 b 81 306 178 460 124 386 b 24 181 58 265 39 222 b 3 56 7 139 -1 96 b 63 -47 8 7 32 -25 b 193 -83 94 -68 135 -83 b 335 -44 247 -82 294 -67 b 440 42 375 -22 410 7 b 526 168 488 96 507 133 b 583 294 544 203 563 236 b 614 407 597 333 608 360 b 617 435 615 415 617 425 b 617 447 617 439 617 443 l 617 451 b 617 456 617 453 617 454 l 621 460 l 629 469 b 646 490 635 476 640 483 b 675 533 656 504 665 518 b 729 626 694 563 713 594 b 818 803 764 689 793 751 b 894 976 847 863 871 921 b 922 1065 906 1004 917 1033 b 925 1114 925 1081 926 1097 b 915 1160 924 1129 921 1144 b 850 1232 904 1190 881 1218 b 758 1254 821 1247 789 1253 b 576 1225 696 1256 636 1243 z m 758 1083 b 758 1083 758 1083 758 1083 b 758 1083 758 1083 758 1083 b 758 1083 758 1083 758 1083 b 758 1083 758 1083 758 1083 b 758 1083 758 1083 758 1083 z m 753 1072 b 753 1072 753 1072 753 1072 b 753 1072 753 1072 753 1072 b 753 1068 753 1071 753 1069 z m 758 1083 b 758 1083 758 1083 758 1083 b 758 1083 758 1083 758 1083 b 758 1083 758 1083 758 1083 b 758 1083 758 1083 758 1083 z m 740 1036 b 740 1040 740 1038 740 1039 b 744 1040 742 1040 743 1040 b 740 1036 743 1039 742 1038 z m 724 1039 l 726 1039 b 688 951 710 1024 686 976 b 631 869 689 922 642 883 b 585 779 608 839 597 811 b 560 717 578 761 569 739 b 546 683 556 706 550 693 b 538 667 543 678 540 672 l 533 658 l 531 654 l 529 653 b 529 653 529 653 529 653 l 528 653 b 500 681 518 663 508 672 b 432 742 475 704 467 721 b 383 761 414 751 399 756 b 340 775 368 765 354 769 b 310 806 319 785 310 794 b 332 843 310 817 317 829 b 365 865 343 853 353 856 b 396 889 375 872 385 881 b 428 918 407 899 417 908 b 490 968 449 938 471 956 b 606 1019 528 993 567 1008 b 724 1039 644 1031 683 1038 z m 296 108 b 272 104 290 108 282 107 b 217 74 253 97 228 86 b 174 67 208 64 189 63 b 163 83 157 72 163 82 b 163 86 163 85 163 86 b 163 86 163 86 163 86 b 163 90 163 88 163 89 b 167 110 164 96 165 103 b 176 151 169 124 172 138 b 239 300 188 193 207 261 b 299 353 258 324 275 328 b 353 419 321 375 335 397 b 383 454 367 436 375 446 b 415 475 392 463 404 471 b 425 475 421 478 424 476 b 426 469 426 475 426 471 b 429 456 428 464 428 460 l 429 453 l 431 444 b 432 428 432 439 432 433 b 429 358 433 403 432 378 b 390 253 422 318 408 283 b 326 169 372 222 351 194 b 290 125 308 153 296 136 b 311 117 286 114 290 107 b 319 121 314 118 317 119 b 299 101 313 114 306 107 b 294 97 297 100 296 99 b 289 107 297 104 294 107 z m 151 150 b 142 124 147 138 144 129 b 154 157 146 135 150 146 b 151 150 153 154 151 151 z m 603 776 b 619 803 610 789 615 797 b 603 769 614 792 608 781 b 607 774 604 771 606 772 z m 267 506 b 332 558 296 532 317 547 b 336 563 333 560 335 561 b 244 489 304 540 274 515 b 264 508 251 496 258 503 z "},"9":{"ha":794,"x_min":0,"x_max":0,"o":"m 886 1006 b 894 1022 889 1011 892 1017 l 899 1031 l 900 1035 l 901 1040 b 908 1063 904 1047 907 1054 l 910 1074 b 910 1086 910 1078 910 1082 b 897 1129 910 1101 904 1117 b 885 1146 893 1135 889 1140 b 869 1158 879 1150 875 1156 b 804 1179 849 1174 825 1179 b 756 1164 783 1179 767 1171 b 743 1151 750 1160 746 1156 b 736 1142 740 1147 738 1144 b 736 1135 733 1136 733 1133 b 743 1138 738 1135 740 1136 b 756 1144 746 1139 750 1142 b 803 1154 765 1150 782 1156 b 819 1151 808 1154 814 1153 b 832 1147 824 1150 828 1149 b 746 1126 804 1158 769 1154 b 733 1114 742 1122 738 1118 b 736 1129 743 1129 743 1133 b 729 1125 735 1128 732 1126 b 721 1119 726 1124 722 1121 b 715 1115 719 1118 718 1117 b 711 1114 714 1115 713 1115 b 711 1113 711 1114 711 1113 l 710 1115 b 706 1121 708 1118 707 1119 b 706 1121 706 1121 706 1121 b 701 1125 704 1122 703 1124 b 689 1129 697 1126 693 1128 b 676 1131 685 1131 681 1131 b 672 1131 675 1131 674 1131 l 668 1131 b 650 1126 663 1129 657 1128 b 574 1108 625 1124 599 1117 b 454 1047 524 1092 479 1067 b 315 956 422 1022 367 990 b 196 867 264 921 217 888 b 92 732 151 824 118 779 b 43 575 65 685 44 633 b 97 443 42 532 56 479 b 174 422 118 425 147 418 b 247 451 200 425 225 436 b 471 640 331 511 404 583 b 510 674 485 653 497 664 b 429 517 485 629 461 588 b 324 231 383 414 354 326 b 275 69 300 156 288 111 b 256 4 269 49 263 28 b 251 -12 254 -1 253 -7 b 249 -21 250 -17 250 -18 b 244 -31 247 -24 246 -26 b 238 -81 239 -44 236 -61 b 267 -142 239 -106 250 -126 b 338 -165 283 -157 307 -167 b 401 -137 360 -164 383 -156 b 414 -124 406 -133 410 -129 b 422 -107 417 -118 419 -112 b 431 -90 425 -101 428 -96 b 436 -74 433 -83 435 -79 b 449 -33 440 -61 444 -47 l 453 -33 l 449 -32 b 453 -11 450 -25 451 -18 b 469 54 458 10 464 32 b 550 293 494 140 524 225 b 715 664 603 429 658 549 b 892 1011 774 779 831 892 z m 258 701 b 279 728 265 711 272 719 b 275 721 278 725 276 722 b 260 700 268 711 264 704 z m 328 703 b 286 696 332 721 308 713 b 296 717 289 703 292 710 b 336 781 306 735 319 758 b 392 838 353 803 372 824 b 460 872 415 854 432 854 b 522 925 485 889 501 907 b 567 960 543 943 553 953 b 526 914 553 943 539 926 b 485 874 513 900 499 886 b 443 839 471 861 457 849 b 358 778 415 818 388 799 b 340 724 318 749 300 704 b 350 728 343 725 347 726 b 329 707 343 721 336 714 b 325 703 328 706 326 704 z m 79 657 b 94 692 85 671 90 682 b 99 696 96 693 97 694 b 61 575 78 657 64 615 b 64 603 61 585 63 594 b 79 657 68 625 74 643 z "},"\u0000":{"ha":0,"x_min":0,"x_max":0,"o":""},"\n":{"ha":0,"x_min":0,"x_max":0,"o":""},"\r":{"ha":0,"x_min":0,"x_max":0,"o":""}," ":{"ha":465,"x_min":0,"x_max":0,"o":""},"!":{"ha":432,"x_min":0,"x_max":0,"o":"m 688 1356 b 681 1378 686 1364 683 1371 b 669 1399 678 1385 674 1393 b 640 1421 661 1410 650 1417 b 618 1424 631 1425 622 1425 b 614 1419 613 1422 611 1421 b 650 1385 618 1415 638 1410 b 654 1372 651 1381 653 1376 b 654 1364 654 1369 654 1367 b 650 1372 653 1367 651 1369 b 608 1407 643 1389 626 1406 b 596 1407 604 1407 600 1407 b 599 1419 611 1413 611 1417 b 533 1410 586 1424 560 1422 b 465 1350 507 1397 482 1374 b 431 1286 447 1326 436 1303 b 374 1193 422 1260 400 1225 b 313 1115 349 1161 324 1131 b 213 924 268 1049 242 989 b 144 749 192 875 168 813 b 74 565 121 685 97 619 b 35 483 60 532 47 508 b -1 392 22 458 10 432 b -17 285 -11 354 -17 319 b -17 271 -17 281 -17 278 b -12 254 -17 265 -15 260 b 8 231 -8 244 -1 236 b 42 225 18 225 31 222 b 68 244 53 228 63 236 b 124 344 97 289 110 318 b 171 436 136 371 149 396 b 213 508 185 463 197 479 b 363 811 260 596 317 726 b 504 1042 408 897 456 971 b 542 1094 517 1060 529 1078 b 582 1144 554 1111 568 1128 b 663 1257 610 1178 639 1213 b 679 1358 678 1288 686 1325 z m 228 915 b 228 911 228 914 228 913 b 239 933 232 919 236 926 b 271 993 254 963 264 981 b 229 914 257 967 243 940 z m 42 201 b 36 181 31 201 28 193 b 40 176 38 179 39 178 b 26 186 36 181 32 183 b 22 186 25 186 24 186 b 29 197 28 189 31 193 b 17 213 28 201 24 208 b -8 219 10 217 0 219 b -29 214 -17 219 -25 218 b -43 208 -33 210 -37 208 b -61 210 -49 208 -54 210 b -93 211 -74 211 -87 213 b -142 163 -118 204 -133 185 b -146 108 -149 147 -150 126 b -125 61 -142 90 -133 74 b -125 57 -125 60 -125 58 b -126 3 -126 38 -135 26 b -82 -40 -118 -19 -100 -32 b -50 -51 -68 -47 -58 -49 b -21 -58 -42 -53 -35 -56 b 6 -62 -12 -60 -6 -64 b 50 -28 22 -60 40 -44 b 68 18 60 -11 64 6 b 90 90 76 43 85 65 b 94 131 93 103 94 117 b 85 175 94 144 92 160 b 44 204 75 196 56 206 z m -125 151 b -121 156 -124 153 -122 154 b -108 168 -115 163 -111 167 b -122 150 -114 163 -118 157 z m -10 58 b -10 58 -10 58 -10 58 b -10 58 -10 58 -10 58 l -10 58 b -10 58 -10 58 -10 58 b -10 58 -10 58 -10 58 b -10 58 -10 58 -10 58 b -10 58 -10 58 -10 58 b -10 58 -10 58 -10 58 l -10 58 l -10 58 b -10 58 -10 58 -10 58 b -10 58 -10 58 -10 58 b -10 58 -10 58 -10 58 b -10 58 -10 58 -10 58 z "},"#":{"ha":860,"x_min":0,"x_max":0,"o":"m 1049 1222 b 1039 1246 1047 1231 1043 1239 b 1010 1272 1031 1258 1019 1267 b 967 1281 990 1282 975 1282 b 960 1276 958 1279 956 1278 b 990 1265 964 1275 975 1274 b 1015 1246 999 1261 1008 1256 b 1025 1206 1024 1236 1028 1221 b 1013 1161 1024 1190 1019 1175 b 1013 1161 1013 1161 1013 1161 b 1024 1215 1019 1176 1024 1194 b 958 1268 1024 1249 988 1268 b 932 1264 949 1268 940 1267 b 957 1274 947 1269 956 1271 b 938 1276 958 1275 951 1278 b 882 1256 924 1275 903 1269 b 821 1200 861 1243 840 1222 b 699 1056 782 1157 739 1104 b 671 1018 689 1043 679 1031 b 646 982 663 1006 654 993 b 608 922 631 960 618 939 b 596 901 604 915 600 908 b 592 893 594 899 593 896 b 583 889 590 889 586 890 b 535 879 564 885 550 882 b 511 875 528 878 519 876 l 510 875 b 511 875 510 875 511 875 l 514 878 l 518 883 l 526 893 b 543 911 532 900 538 906 l 564 933 b 657 1026 596 967 629 997 b 717 1103 685 1056 706 1083 b 746 1169 729 1124 739 1146 l 749 1178 b 751 1190 750 1182 751 1186 b 747 1215 751 1199 750 1207 b 718 1254 742 1232 731 1246 b 676 1269 706 1263 692 1268 b 653 1268 669 1269 661 1269 b 635 1263 644 1267 640 1264 b 575 1229 613 1254 593 1242 b 488 1140 540 1203 513 1172 b 418 1042 463 1108 440 1075 b 382 989 407 1025 394 1007 b 344 929 369 969 357 950 b 304 867 332 908 318 888 b 283 833 297 856 290 844 l 275 821 l 260 815 b 118 736 211 796 161 771 b 60 678 96 719 76 700 b 51 657 56 672 51 664 b 54 636 50 650 51 643 b 69 621 57 629 63 624 b 92 619 76 618 85 618 b 136 633 108 624 122 628 b 178 650 150 639 164 644 b 179 650 178 650 179 651 l 178 647 l 175 643 l 169 633 b 161 617 167 628 164 622 b 157 604 160 613 158 608 b 136 567 150 592 143 579 b 124 542 132 558 128 550 b 100 514 117 531 114 515 b 50 492 82 507 65 500 b 28 479 42 488 35 483 b 7 464 21 475 13 471 b -1 440 1 457 -1 449 b 6 417 -1 432 1 424 b 22 400 10 410 15 404 b 38 396 28 397 32 396 b 42 396 39 396 40 396 l 43 396 b 43 396 43 396 43 396 l 42 394 l 38 386 l 33 379 l 29 371 b 8 324 22 356 15 340 b -39 207 -7 290 -22 253 b -74 88 -53 167 -64 126 b -82 58 -76 78 -79 68 b -89 28 -85 49 -87 39 b -76 -11 -92 14 -87 -1 b -36 -24 -65 -21 -50 -25 b -3 -1 -22 -22 -10 -14 l 0 3 l 1 6 l 4 13 l 11 25 b 36 75 19 42 28 58 b 86 176 53 108 69 142 b 186 376 131 267 160 325 b 204 414 193 389 199 401 l 206 415 b 207 415 206 415 207 415 l 211 415 l 219 417 b 240 421 226 418 233 419 b 283 426 254 422 268 424 b 321 431 296 428 308 429 b 306 403 317 422 311 413 b 297 386 303 397 300 392 b 286 365 294 379 290 372 b 204 190 256 303 233 263 b 144 14 183 138 163 78 l 140 1 b 139 -18 139 -4 138 -11 b 158 -53 140 -32 147 -44 b 194 -64 169 -61 182 -64 b 231 -53 207 -64 219 -61 b 251 -25 242 -46 249 -31 l 263 -1 l 283 46 b 456 389 340 171 401 293 b 476 422 463 400 469 411 l 483 435 l 485 438 b 488 439 485 439 486 439 l 493 439 b 568 439 518 439 543 439 b 644 438 593 439 618 436 b 722 456 671 439 699 443 b 739 465 728 458 733 461 b 757 479 744 468 751 474 b 771 524 767 492 772 508 b 753 564 769 539 763 553 b 736 578 747 569 742 574 b 719 589 731 582 725 586 b 649 615 697 603 672 611 b 632 619 643 617 638 618 l 624 621 b 608 621 618 621 613 621 b 608 621 608 621 608 621 l 608 622 l 610 624 l 611 626 l 615 632 l 619 638 l 625 644 b 663 694 638 661 650 678 l 681 718 l 690 731 l 694 735 b 699 735 696 735 697 735 l 713 735 b 744 735 722 735 733 735 b 810 747 765 736 788 739 b 842 764 821 751 832 757 l 849 769 b 857 778 851 772 854 775 b 871 794 863 783 867 789 b 882 836 878 807 882 821 b 869 881 882 850 879 867 b 840 906 861 894 839 906 b 836 907 839 907 838 907 b 839 910 836 908 839 910 l 839 910 l 839 910 l 842 913 l 853 925 b 899 975 868 942 883 958 b 968 1049 922 1000 946 1025 b 1033 1122 990 1072 1014 1094 b 1054 1167 1043 1136 1050 1151 b 1060 1211 1058 1182 1060 1197 b 1060 1219 1060 1214 1060 1217 b 1058 1232 1060 1224 1060 1228 z m 311 613 b 303 600 308 607 306 603 b 311 617 306 606 308 611 b 311 613 311 615 311 614 z m 458 715 b 457 711 457 714 457 713 b 454 697 457 708 457 703 l 453 693 l 449 688 b 440 675 446 683 443 679 b 424 653 435 667 429 660 b 404 632 418 646 411 639 b 394 622 401 629 397 625 b 390 624 393 622 392 622 b 390 624 390 624 390 624 b 390 624 390 624 390 624 b 386 624 390 624 388 624 b 374 615 381 621 376 618 b 382 596 368 608 369 600 b 386 596 383 596 385 596 b 372 593 381 594 376 593 b 368 593 371 593 369 593 b 368 606 371 599 369 603 b 361 613 367 608 364 611 b 336 601 356 615 350 613 b 319 600 325 593 318 594 b 325 608 319 603 322 606 b 333 615 328 611 331 614 b 339 624 340 621 340 622 b 333 629 338 625 335 626 b 331 638 332 631 331 633 b 331 644 331 639 331 642 b 333 656 331 647 332 651 b 351 694 338 671 343 685 b 368 706 357 700 363 703 b 383 715 374 708 381 714 b 388 717 385 717 386 717 b 396 721 390 718 393 719 b 417 729 403 724 410 726 b 438 738 428 733 432 736 b 453 736 443 739 449 739 b 451 728 456 735 451 729 b 451 726 451 726 451 726 b 451 726 451 726 451 726 l 451 726 z m 429 1053 b 457 1092 439 1067 449 1081 b 550 1200 496 1146 526 1179 b 554 1204 551 1201 553 1203 b 429 1054 507 1161 465 1104 z "},"$":{"ha":1183,"x_min":0,"x_max":0,"o":"m 1238 1253 b 1207 1267 1228 1261 1215 1265 b 1171 1260 1190 1269 1176 1264 b 1168 1253 1164 1256 1164 1253 b 1196 1251 1172 1253 1182 1256 b 1218 1239 1203 1250 1211 1246 b 1226 1208 1225 1232 1231 1221 b 1214 1188 1224 1200 1218 1194 b 1206 1175 1211 1183 1208 1179 b 1221 1200 1211 1183 1217 1192 b 1171 1242 1239 1232 1196 1256 b 1154 1229 1165 1238 1160 1233 b 1153 1243 1175 1247 1172 1250 b 1067 1185 1135 1236 1101 1215 b 1015 1135 1050 1169 1032 1153 l 1008 1126 b 1006 1125 1007 1126 1007 1125 l 1003 1126 l 999 1128 b 990 1129 996 1129 993 1129 b 969 1133 983 1131 976 1132 b 843 1125 919 1140 872 1135 b 806 1111 832 1121 819 1117 b 761 1094 792 1107 776 1100 b 668 1042 731 1081 697 1064 b 596 965 639 1019 614 992 b 583 944 592 958 588 951 b 574 925 579 938 576 931 b 563 893 568 913 565 901 b 578 746 550 842 558 789 b 594 715 582 735 589 725 l 603 700 b 614 688 606 696 610 692 b 638 663 621 679 629 671 l 640 660 b 643 657 642 658 643 657 l 644 656 l 647 654 l 646 651 l 646 650 l 646 649 b 644 647 646 649 646 649 b 632 622 640 639 636 631 b 603 572 622 606 613 589 b 467 278 560 492 510 388 l 458 258 l 456 250 l 454 246 b 454 244 454 246 454 244 l 451 244 l 433 246 l 411 249 b 325 264 382 253 353 258 b 161 274 268 275 213 283 b 139 268 153 272 146 269 b 118 260 132 265 125 263 b 86 235 106 254 94 246 b 78 160 69 214 65 185 b 103 128 83 147 93 136 b 136 104 113 119 124 111 b 226 71 161 90 190 79 b 308 57 254 64 282 60 b 346 53 321 56 333 54 b 363 51 351 53 357 53 l 360 40 l 356 22 b 347 -28 351 6 349 -11 b 347 -40 347 -32 347 -36 b 347 -54 347 -44 347 -50 b 351 -67 349 -58 350 -62 b 357 -79 353 -71 354 -75 b 394 -119 365 -96 378 -110 b 444 -131 410 -129 428 -133 b 482 -108 461 -128 474 -118 b 500 -78 490 -97 494 -87 b 514 -50 506 -68 510 -58 b 536 1 522 -32 529 -15 b 553 49 542 17 547 32 b 574 49 560 49 567 49 b 601 49 582 49 592 49 b 665 56 621 50 642 51 b 736 69 692 60 714 64 b 810 96 758 75 782 82 b 928 183 850 115 892 144 b 1010 324 964 222 993 271 b 1019 485 1025 376 1029 433 b 960 617 1010 536 988 582 b 908 668 944 636 926 653 b 883 689 900 675 892 682 b 867 701 878 693 872 697 b 879 718 871 707 875 713 b 896 743 885 726 890 735 b 931 794 907 761 918 778 b 1003 893 954 828 978 861 b 1040 939 1015 908 1028 924 l 1046 944 l 1047 947 l 1049 949 b 1049 949 1049 949 1049 949 b 1053 944 1050 947 1051 946 l 1061 940 b 1101 904 1076 931 1090 918 b 1117 882 1107 897 1113 890 b 1122 869 1119 878 1121 874 b 1131 846 1125 861 1128 854 l 1138 832 l 1144 824 b 1163 811 1149 818 1154 814 b 1210 818 1178 806 1197 808 b 1224 838 1217 824 1221 829 l 1228 849 b 1229 864 1229 853 1229 858 b 1228 896 1231 874 1229 885 b 1228 904 1228 899 1228 901 l 1226 910 l 1225 919 b 1196 999 1219 947 1210 974 b 1172 1033 1189 1011 1181 1022 b 1158 1050 1168 1039 1164 1044 l 1157 1051 b 1157 1051 1157 1051 1156 1053 l 1157 1051 l 1157 1051 l 1157 1051 b 1157 1051 1157 1051 1157 1051 b 1157 1051 1157 1051 1157 1051 l 1157 1051 b 1157 1051 1157 1051 1157 1051 l 1158 1053 l 1161 1057 b 1186 1086 1169 1067 1178 1076 b 1228 1143 1201 1106 1215 1125 b 1244 1171 1233 1153 1239 1163 b 1253 1188 1247 1176 1250 1182 b 1257 1213 1256 1196 1257 1204 b 1240 1250 1257 1228 1250 1242 z m 747 906 b 744 901 746 904 744 903 b 735 888 740 894 738 890 b 746 904 738 893 742 899 z m 639 592 b 679 657 656 619 669 642 b 653 683 668 667 660 675 b 681 657 661 674 671 665 b 681 653 681 656 681 654 b 617 549 658 618 638 583 b 640 590 625 564 633 578 z m 632 278 b 624 260 629 269 626 264 b 632 281 626 267 629 274 b 632 276 632 279 632 278 z m 828 386 b 776 331 815 364 797 346 b 749 299 763 321 753 308 b 768 286 746 289 750 282 b 776 289 771 286 774 288 b 758 276 771 285 765 281 b 754 276 757 276 756 276 b 729 285 758 289 744 289 b 688 261 714 281 696 272 b 658 254 682 251 664 250 b 656 267 651 257 654 265 b 656 268 656 268 656 268 b 654 271 657 269 656 269 b 651 278 653 271 651 274 b 653 282 651 278 653 281 b 653 290 653 285 653 288 b 657 306 654 294 656 300 b 663 338 658 315 660 326 b 685 399 668 360 675 382 b 725 444 697 418 711 422 b 750 506 738 465 743 485 b 763 539 756 521 760 532 b 776 557 765 546 771 553 b 782 549 778 560 781 553 b 786 538 783 544 785 540 b 790 533 788 536 789 535 l 792 532 l 796 528 b 813 507 801 521 807 514 b 826 486 818 500 822 493 b 836 465 831 479 835 472 b 824 388 843 438 835 410 z m 756 776 b 760 776 757 776 758 776 b 760 772 760 775 760 774 b 760 775 760 772 760 774 z m 904 968 b 893 958 901 965 897 963 b 867 940 885 951 872 944 b 844 906 851 931 864 932 b 760 819 819 869 790 847 b 756 815 758 818 757 817 b 747 818 753 817 750 818 b 739 826 743 819 740 822 b 739 832 739 828 739 829 b 742 839 739 835 740 838 b 749 850 744 843 746 847 b 756 856 751 853 754 854 b 765 889 763 865 761 875 b 782 925 768 899 774 913 b 815 953 790 938 803 949 b 826 954 819 954 824 954 b 836 953 831 954 833 954 b 847 949 842 951 844 949 b 858 953 850 949 853 950 b 878 964 863 956 869 960 b 903 975 888 968 896 972 b 911 978 906 976 908 978 b 904 971 910 976 907 974 z "},"%":{"ha":1133,"x_min":0,"x_max":0,"o":"m 1100 1115 b 1086 1147 1099 1128 1093 1139 b 1036 1168 1072 1164 1051 1169 b 1007 1157 1021 1167 1011 1161 b 1006 1150 1003 1153 1003 1150 b 1026 1153 1008 1150 1015 1153 b 1046 1149 1032 1153 1039 1151 b 1064 1133 1053 1146 1060 1140 b 1069 1108 1069 1126 1071 1117 b 1013 1139 1071 1135 1040 1157 b 1000 1131 1008 1136 1004 1133 b 1000 1131 1000 1131 1000 1131 b 997 1143 1014 1146 1011 1149 b 933 1104 983 1138 960 1124 b 794 971 879 1067 818 1007 b 600 796 756 914 635 828 b 421 594 528 728 476 665 b 281 407 382 542 332 475 b 203 308 256 374 229 340 b 129 217 176 276 153 244 b 54 133 100 182 78 158 b -26 42 31 108 4 85 b -60 -19 -40 22 -51 1 b -56 -94 -71 -44 -68 -74 b 0 -139 -43 -115 -24 -132 b 36 -140 11 -143 24 -143 b 53 -135 42 -139 47 -137 b 67 -124 58 -132 63 -128 b 124 -62 92 -100 108 -81 b 160 -14 138 -44 149 -29 b 238 89 182 15 203 43 b 306 169 261 119 279 138 b 369 247 325 193 347 219 b 439 333 392 275 415 304 b 568 501 485 393 529 454 b 793 756 647 594 721 676 b 1019 989 865 835 943 904 b 1056 1033 1032 1003 1044 1018 b 1072 1054 1061 1040 1067 1047 b 1081 1067 1075 1058 1078 1063 b 1089 1079 1083 1071 1085 1072 b 1097 1117 1096 1090 1099 1104 z m 446 596 b 442 592 444 594 443 593 b 453 604 446 596 450 600 b 511 668 481 636 499 656 b 447 597 489 644 468 621 z m 872 431 b 833 444 857 439 843 443 b 821 440 826 444 822 443 b 811 453 819 444 817 449 b 799 460 808 456 804 458 b 786 464 794 461 790 463 b 689 457 754 475 707 472 b 660 444 681 453 671 447 b 643 439 654 443 649 440 b 625 433 638 438 631 436 b 590 422 613 429 600 426 b 568 410 581 418 572 414 b 481 307 525 382 501 346 b 442 199 465 278 451 239 b 424 82 432 158 426 117 b 421 53 422 71 422 61 b 421 28 421 44 421 36 b 436 -32 422 11 422 -8 b 440 -40 438 -35 439 -37 b 444 -49 442 -43 443 -46 b 457 -62 449 -53 453 -58 b 483 -82 465 -69 474 -78 b 499 -89 489 -85 493 -87 l 514 -93 b 544 -99 524 -97 535 -97 b 615 -96 578 -101 597 -99 b 642 -92 624 -94 632 -93 b 676 -85 651 -89 663 -87 b 701 -79 685 -82 693 -81 b 728 -71 710 -78 718 -75 b 815 -10 757 -58 789 -36 b 881 71 842 17 864 47 b 925 144 899 94 913 119 b 942 182 931 157 938 169 b 949 201 944 189 947 194 b 954 222 950 208 953 215 b 921 388 967 276 957 338 b 876 426 908 404 892 418 z m 500 299 b 504 307 501 301 503 304 b 528 336 514 322 522 331 b 528 336 528 336 528 336 b 497 297 517 324 507 311 z m 639 65 b 643 69 640 67 642 68 b 657 79 650 75 654 78 b 638 67 651 75 644 71 z m 753 192 b 753 188 753 190 753 189 b 728 185 749 199 738 194 b 711 149 718 175 710 161 b 692 128 713 139 703 132 b 665 119 681 124 669 122 b 625 83 647 110 638 97 b 590 51 617 74 606 60 b 567 47 583 47 575 44 b 550 65 558 50 551 57 b 554 89 549 75 551 82 b 565 111 558 96 563 101 b 574 164 571 129 571 146 b 596 217 579 192 579 199 b 614 232 601 222 608 225 b 635 263 621 240 628 251 b 642 275 639 269 639 271 b 646 279 643 276 644 278 b 650 282 647 281 649 283 b 654 278 651 281 653 279 b 658 274 656 276 657 275 b 668 269 661 272 665 271 b 689 261 675 267 682 264 b 724 250 701 257 714 254 b 743 240 733 247 744 242 b 739 235 744 239 742 235 b 736 229 736 233 739 238 b 733 213 735 224 733 218 b 756 208 735 203 743 200 b 760 213 757 210 758 211 b 751 197 757 207 754 201 z m 811 429 b 807 433 810 431 808 432 b 818 435 814 429 818 429 b 835 419 821 431 826 426 b 844 411 839 417 842 414 b 810 428 833 418 822 424 z m 106 586 b 129 569 114 581 121 574 b 182 553 146 560 164 556 b 243 557 211 550 228 554 b 296 569 258 560 272 563 b 340 583 311 574 324 575 b 406 650 365 597 389 622 b 442 733 424 678 435 708 b 460 844 453 772 458 808 b 458 899 461 863 460 881 b 456 925 457 907 457 915 l 456 929 b 456 929 456 929 456 929 l 456 931 l 456 933 b 460 935 456 935 458 935 l 461 935 l 463 935 l 467 936 l 474 939 b 482 943 476 940 478 940 b 504 964 490 947 499 954 b 511 1006 513 976 514 993 b 496 1035 508 1018 503 1028 b 451 1056 482 1050 464 1056 b 438 1049 439 1056 435 1051 b 461 1032 440 1044 450 1042 b 469 1024 464 1029 467 1026 b 439 1036 461 1031 450 1036 b 435 1036 438 1036 436 1036 b 438 1049 443 1042 443 1046 b 406 1054 432 1051 419 1054 b 329 1026 378 1054 342 1042 b 276 1000 318 1014 297 1007 b 226 981 256 993 235 986 b 146 899 189 958 167 931 b 103 810 131 875 115 843 b 79 711 90 776 83 742 b 76 685 78 701 78 693 b 75 664 76 678 75 671 b 93 611 76 649 79 631 b 113 588 99 601 106 594 z m 235 772 b 249 779 239 776 243 778 b 257 782 251 779 254 781 b 261 782 258 782 260 782 b 269 800 265 783 265 790 b 281 822 274 813 278 822 b 283 821 282 822 283 822 b 282 803 285 818 282 807 b 283 797 282 800 282 797 b 288 797 285 797 286 797 b 294 794 290 797 294 797 b 286 774 296 788 292 778 b 282 769 285 772 283 771 b 276 767 281 768 279 769 b 264 757 272 763 268 760 b 260 739 257 753 257 746 b 278 726 263 732 268 725 b 282 726 279 726 281 726 b 276 718 281 724 279 721 b 276 718 276 718 276 718 b 258 728 274 728 265 729 b 247 711 251 726 246 721 b 238 708 249 704 242 704 b 236 713 236 710 236 711 b 240 715 238 714 239 715 b 244 717 242 715 243 717 b 247 717 246 717 247 717 b 247 717 247 717 247 717 b 242 719 246 718 243 717 b 244 771 236 729 232 760 z m 221 722 b 221 719 221 721 221 719 b 221 711 221 715 221 713 b 221 714 221 713 221 713 b 221 722 221 717 221 719 z m 179 893 b 203 917 190 906 197 913 b 186 899 197 911 192 906 b 174 886 182 894 178 890 b 178 894 175 889 176 892 z "},"&":{"ha":978,"x_min":0,"x_max":0,"o":"m 451 478 b 472 490 458 482 465 486 b 672 614 543 528 610 568 b 844 771 735 660 794 708 b 908 875 869 801 892 836 b 936 1000 925 914 935 957 b 897 1160 939 1060 922 1117 b 815 1246 872 1204 839 1232 b 789 1257 804 1253 794 1256 b 782 1254 783 1258 781 1257 b 838 1197 785 1247 807 1235 b 860 1165 846 1188 853 1176 b 776 1244 839 1197 811 1225 b 756 1253 769 1247 763 1250 b 767 1261 782 1244 783 1249 b 663 1297 750 1274 713 1293 b 585 1292 638 1299 611 1297 b 511 1261 558 1285 533 1274 b 414 1175 465 1235 432 1200 b 299 1013 385 1136 336 1076 b 250 919 279 981 263 949 b 225 849 238 890 229 865 b 213 647 208 778 207 711 b 218 601 214 632 215 617 l 219 590 l 221 585 b 221 583 221 583 221 583 l 221 583 l 222 581 l 222 579 b 222 579 222 579 222 579 b 221 578 222 579 222 579 l 219 576 l 218 576 l 215 575 l 194 564 b 153 540 181 557 167 549 b 24 450 113 517 67 488 b -90 311 -19 413 -62 367 b -117 222 -104 283 -114 253 b -103 133 -119 192 -115 161 b -46 68 -90 106 -69 83 b 29 38 -22 53 4 43 b 188 31 92 24 139 26 b 357 69 236 36 288 44 b 403 88 372 75 389 82 b 411 92 406 89 408 90 b 414 89 413 93 413 90 l 417 85 b 425 68 419 79 422 74 b 438 47 429 61 433 54 b 464 10 446 35 454 22 b 493 -25 474 -3 483 -14 b 510 -42 499 -31 504 -36 l 518 -49 l 528 -57 b 579 -67 542 -67 561 -71 b 621 -39 597 -62 611 -51 b 640 28 638 -18 643 7 b 633 56 639 39 636 47 b 625 79 631 64 628 72 b 583 154 611 108 597 132 b 567 183 578 164 572 174 b 565 188 567 185 565 186 l 568 190 b 576 194 571 192 574 193 b 593 204 582 197 588 200 b 676 265 617 221 643 240 b 796 356 719 297 750 317 b 849 403 813 371 831 386 b 875 428 857 411 865 419 b 888 440 879 432 883 436 b 907 464 896 447 903 456 b 908 492 911 472 911 482 b 892 517 906 501 900 510 b 833 524 876 529 853 533 b 825 519 831 522 828 521 l 819 515 l 811 510 l 794 499 l 761 476 b 629 389 717 446 672 417 b 567 350 608 375 588 363 b 538 333 557 344 547 339 b 514 321 529 329 521 325 l 506 317 b 506 317 506 317 506 317 l 506 318 l 504 319 l 503 324 b 494 344 500 331 497 338 b 471 403 486 364 478 383 b 460 432 467 413 463 422 b 451 457 457 440 454 449 l 449 465 l 449 467 l 450 468 z m 199 531 b 231 547 210 536 221 542 b 243 556 235 550 239 553 b 251 565 247 558 254 560 b 246 610 249 582 247 597 b 246 622 246 614 246 618 b 253 560 247 601 250 581 b 163 514 222 544 192 529 b 196 533 175 521 186 528 z m 160 328 b 156 324 158 326 157 325 b 138 314 147 318 142 315 b 158 331 144 319 151 325 z m 332 251 b 332 247 332 250 332 249 b 324 243 329 246 326 244 l 322 242 b 318 240 321 242 321 242 l 307 235 b 264 217 292 228 276 221 b 182 199 235 207 208 201 b 107 201 157 196 131 197 b 74 200 90 204 81 203 b 71 179 67 197 58 192 b 79 175 74 178 76 176 b 58 183 71 176 64 179 b 54 188 57 185 56 186 b 63 207 67 189 60 204 b 65 217 64 208 64 211 b 68 236 67 222 68 229 b 90 258 67 246 78 254 b 121 268 103 264 115 265 b 169 311 142 279 154 294 b 258 390 192 335 225 376 b 281 392 271 396 278 394 b 281 375 281 385 281 379 b 281 371 281 374 281 372 b 282 367 281 369 281 369 b 289 353 283 361 286 357 b 306 326 294 343 300 335 b 333 267 322 299 328 294 b 329 253 335 260 331 256 z m 500 703 b 508 707 503 704 506 706 b 535 724 521 715 529 721 b 501 701 524 715 513 708 z m 439 675 l 433 671 b 422 663 431 668 426 665 b 396 642 414 656 406 649 b 392 690 392 656 390 675 b 413 774 394 724 406 738 b 426 865 419 807 421 835 b 438 915 431 889 433 903 b 460 956 442 928 447 939 b 486 983 468 967 476 972 b 535 1039 501 1000 517 1021 b 593 1082 553 1058 574 1074 b 693 1076 631 1101 674 1101 b 706 982 713 1053 714 1015 b 696 925 700 958 696 938 b 719 926 696 913 703 907 b 726 935 722 929 725 932 b 713 907 722 925 718 915 b 708 903 711 906 710 904 b 678 893 708 919 693 910 b 639 836 663 876 643 854 b 601 801 635 822 618 810 b 560 783 585 793 567 788 b 483 722 529 765 508 744 b 439 683 471 711 456 697 z "},"(":{"ha":453,"x_min":0,"x_max":0,"o":"m 708 1313 b 693 1342 706 1324 700 1333 b 644 1367 679 1358 660 1367 b 615 1357 629 1367 619 1361 b 614 1350 611 1353 611 1350 b 635 1349 617 1349 624 1350 b 672 1324 646 1347 663 1340 b 682 1296 678 1315 681 1306 b 617 1335 676 1325 649 1350 b 603 1326 611 1332 607 1329 b 601 1339 619 1340 617 1343 b 528 1300 586 1335 558 1321 b 439 1224 497 1279 465 1251 b 379 1146 413 1196 392 1167 b 283 1025 360 1113 321 1068 b 196 918 246 982 211 940 b 65 649 133 826 97 743 b 4 396 42 579 19 489 b -24 126 -11 303 -18 207 b -35 3 -28 76 -32 40 b -29 -132 -36 -35 -37 -75 b 14 -275 -21 -185 -7 -232 b 31 -306 19 -286 25 -296 b 65 -332 38 -319 51 -329 b 106 -328 79 -335 93 -333 b 138 -301 118 -322 129 -314 b 143 -286 140 -297 142 -292 b 144 -271 144 -281 144 -275 b 144 -247 144 -262 144 -254 b 143 -206 144 -232 144 -218 b 139 -139 142 -181 140 -160 b 132 1 136 -99 133 -61 b 135 117 131 43 133 71 b 157 347 138 183 144 267 b 210 572 169 429 189 510 b 378 901 253 699 310 806 b 486 1036 411 949 447 993 b 547 1099 506 1057 526 1079 b 615 1158 568 1118 592 1138 b 661 1203 632 1172 647 1188 b 682 1228 668 1211 675 1219 l 686 1233 b 692 1243 688 1236 690 1240 b 700 1264 696 1250 699 1257 b 697 1303 703 1278 701 1292 z m 76 647 b 72 635 75 643 74 639 b 85 668 76 647 81 658 b 125 751 103 710 115 735 b 79 649 108 718 93 683 z "},")":{"ha":814,"x_min":0,"x_max":0,"o":"m 718 943 b 696 1128 715 1003 710 1064 b 653 1246 686 1171 671 1213 b 597 1317 635 1279 613 1303 b 572 1329 581 1331 571 1335 b 604 1275 572 1322 585 1307 b 617 1250 608 1267 613 1258 b 563 1321 601 1276 583 1300 b 550 1329 558 1325 554 1328 b 568 1326 560 1329 565 1325 b 564 1336 571 1326 571 1331 b 544 1342 560 1339 553 1342 b 521 1333 536 1342 528 1339 b 506 1308 514 1328 508 1319 b 508 1274 503 1297 503 1285 b 547 1165 524 1243 538 1204 b 572 1068 558 1128 565 1092 b 576 917 583 1032 582 972 b 558 783 571 861 561 808 b 514 494 544 676 535 590 b 440 249 499 425 475 336 b 311 10 406 161 360 75 b 231 -83 282 -31 257 -57 b 189 -126 218 -97 204 -111 b 138 -181 174 -142 157 -158 b 92 -243 119 -200 104 -221 b 76 -278 86 -254 81 -265 b 72 -296 75 -283 74 -289 b 72 -319 71 -304 71 -312 b 129 -376 79 -349 101 -369 b 150 -378 136 -378 143 -379 b 168 -372 157 -376 163 -374 b 201 -358 179 -369 190 -364 b 275 -306 235 -342 257 -322 b 301 -281 285 -297 293 -289 b 322 -256 308 -272 315 -264 b 410 -143 349 -225 372 -194 b 479 -47 435 -108 454 -86 b 588 167 518 11 557 88 b 660 392 619 246 643 326 b 721 767 694 524 714 646 b 719 946 724 826 722 886 z m 535 496 b 539 517 536 503 538 510 b 558 601 549 557 554 583 b 533 496 551 565 543 531 z "},"*":{"ha":669,"x_min":0,"x_max":0,"o":"m 589 1299 b 560 1317 581 1310 568 1315 b 543 1315 551 1318 546 1317 b 542 1311 540 1314 540 1313 b 553 1304 543 1308 547 1307 b 569 1286 558 1301 565 1296 b 572 1271 572 1282 572 1276 b 540 1297 571 1285 560 1297 b 532 1297 538 1297 535 1297 b 532 1297 532 1297 532 1297 b 508 1313 550 1306 536 1313 b 485 1311 501 1313 493 1313 b 472 1310 481 1311 476 1311 l 467 1308 b 447 1300 461 1307 456 1304 b 444 1308 447 1303 446 1306 b 443 1317 443 1310 443 1313 b 443 1324 443 1318 443 1321 b 444 1332 443 1326 443 1329 b 449 1353 446 1339 447 1346 b 451 1381 450 1360 453 1371 b 413 1418 449 1400 431 1417 b 371 1403 394 1421 378 1411 l 365 1397 l 361 1393 b 353 1385 358 1390 356 1388 b 340 1368 349 1379 344 1374 b 322 1335 333 1357 328 1346 b 314 1318 319 1329 317 1324 b 314 1315 314 1317 314 1317 b 313 1303 314 1313 314 1308 b 313 1301 313 1303 313 1301 b 300 1310 310 1303 306 1304 b 297 1313 299 1311 299 1311 l 293 1318 b 283 1331 290 1322 288 1326 b 253 1349 275 1338 265 1344 b 211 1333 238 1354 218 1349 b 207 1311 208 1326 207 1318 b 210 1290 207 1304 208 1297 b 239 1221 215 1264 229 1240 b 247 1208 242 1217 244 1213 b 246 1208 247 1208 247 1208 l 244 1208 l 240 1207 b 232 1207 238 1207 235 1207 b 219 1204 228 1206 224 1204 b 207 1204 215 1204 211 1204 b 194 1200 203 1203 199 1201 b 136 1179 178 1196 160 1192 b 76 1126 111 1167 90 1149 b 68 1110 74 1121 71 1115 b 63 1090 65 1104 63 1097 b 76 1050 61 1075 67 1060 b 124 1031 93 1033 111 1032 b 158 1035 138 1031 149 1032 b 188 1044 168 1038 178 1040 b 214 1053 196 1047 206 1050 b 218 1054 215 1054 217 1054 b 219 1051 219 1054 222 1056 b 208 1025 214 1040 210 1032 b 208 1021 208 1024 208 1022 b 208 1008 208 1019 208 1015 b 232 972 210 992 221 979 b 276 969 243 965 260 961 b 288 976 281 971 285 974 l 293 982 b 301 994 296 986 299 990 b 332 1044 314 1010 324 1028 l 335 1051 b 338 1057 336 1054 338 1057 l 340 1064 b 344 1076 342 1068 343 1074 b 357 1068 349 1074 353 1071 b 364 1064 360 1067 361 1067 b 376 1057 368 1061 372 1058 b 401 1046 385 1053 393 1049 b 456 1044 418 1040 438 1039 b 490 1082 474 1051 485 1065 b 493 1094 492 1086 493 1090 b 493 1103 493 1097 493 1100 l 492 1108 b 485 1129 490 1115 488 1122 b 474 1149 482 1136 478 1143 b 465 1157 471 1151 468 1154 b 461 1161 464 1158 463 1160 l 460 1163 l 453 1171 b 463 1175 456 1172 460 1174 l 467 1176 b 472 1179 467 1176 469 1178 l 479 1182 b 535 1207 497 1190 515 1199 b 563 1219 544 1211 554 1215 b 568 1222 564 1219 567 1221 b 572 1226 569 1224 571 1225 b 583 1236 576 1229 581 1232 b 596 1260 589 1243 593 1251 b 588 1304 600 1276 596 1293 z m 321 1260 b 321 1260 321 1260 321 1260 l 321 1260 b 321 1260 321 1260 321 1260 l 321 1261 l 321 1263 b 325 1274 322 1267 324 1271 b 343 1315 333 1294 339 1307 b 321 1258 335 1297 328 1278 z "},"+":{"ha":744,"x_min":0,"x_max":0,"o":"m 658 549 b 654 561 657 553 656 557 b 646 571 651 565 649 568 b 629 589 642 578 635 583 b 613 599 624 593 618 596 b 597 604 607 601 601 603 b 576 603 588 606 581 604 b 572 597 572 601 571 600 b 585 589 574 594 578 592 b 596 582 588 588 592 585 b 608 571 600 579 604 575 b 618 551 613 565 615 558 b 568 585 608 569 592 583 b 556 585 564 585 560 585 b 526 603 582 590 564 600 b 463 601 508 604 485 604 b 438 596 456 601 449 600 b 438 607 438 599 438 603 b 442 619 438 610 439 614 l 444 624 b 449 628 446 625 447 626 b 457 640 451 632 454 636 b 490 689 467 656 479 672 b 522 736 501 706 513 722 b 533 756 526 743 531 750 b 538 760 535 757 536 758 b 542 764 539 761 540 763 b 546 774 543 768 544 771 b 528 847 553 799 546 829 b 463 876 510 867 486 876 b 400 849 439 876 415 865 b 368 806 388 835 378 821 b 285 644 339 763 311 704 b 246 556 272 615 258 583 l 246 554 b 246 554 246 554 246 554 l 243 554 l 238 554 l 226 553 b 203 549 218 551 210 550 b 158 544 188 547 172 546 b 72 540 124 542 99 542 b 31 539 60 540 46 540 b 7 535 24 538 15 536 b -10 532 3 535 -4 533 b -26 522 -15 529 -21 526 b -49 460 -44 507 -54 483 b -29 431 -46 449 -39 438 b 1 418 -19 422 -8 419 b 96 414 33 415 64 414 b 169 415 136 414 150 415 b 161 394 167 408 164 401 l 157 385 b 153 372 156 381 154 376 b 122 313 144 356 135 338 b 83 239 108 286 96 269 b 60 163 74 217 65 190 b 61 132 58 154 57 142 b 81 106 65 121 72 113 b 139 94 97 93 118 88 b 164 113 149 97 158 104 b 168 118 165 115 167 117 l 171 122 l 176 132 b 199 169 185 144 192 157 b 236 238 213 193 225 217 b 300 358 258 279 279 319 b 317 388 306 368 311 378 l 324 400 l 328 408 l 328 410 l 329 410 l 331 410 l 335 410 l 336 410 l 340 410 l 349 410 b 382 410 360 410 371 410 b 504 414 424 411 464 414 b 567 413 525 414 546 414 b 585 413 572 413 576 413 l 596 413 b 608 415 600 413 604 414 b 649 440 624 419 638 429 b 672 494 663 457 669 476 b 667 546 675 513 672 531 z m 390 788 b 406 808 396 796 401 803 b 418 822 410 814 414 818 b 431 833 422 826 426 831 b 451 844 438 840 444 843 b 451 844 451 844 451 844 b 424 828 442 842 432 836 b 389 788 411 815 400 801 z "},",":{"ha":356,"x_min":0,"x_max":0,"o":"m 86 178 b 17 210 68 210 32 217 b 8 200 8 207 6 203 b 26 188 10 196 17 193 b 35 183 29 186 32 185 b 10 186 26 186 18 188 b 6 186 8 186 7 186 b 6 199 11 192 11 196 b -6 201 3 200 -1 201 b -21 200 -10 201 -15 201 b -72 163 -43 196 -68 178 b -104 133 -76 150 -90 142 b -139 114 -118 125 -133 118 b -154 97 -144 108 -150 103 b -160 89 -157 94 -158 92 b -164 81 -161 86 -162 83 b -186 51 -171 71 -178 61 b -236 6 -197 38 -215 21 b -267 -17 -246 -3 -257 -10 b -293 -42 -278 -24 -287 -32 b -306 -78 -300 -54 -304 -65 b -294 -119 -307 -89 -307 -103 b -274 -136 -289 -126 -282 -132 b -261 -140 -269 -137 -265 -139 b -249 -142 -257 -140 -251 -142 b -211 -137 -236 -142 -224 -140 b -168 -126 -190 -133 -179 -129 b -129 -119 -157 -124 -147 -122 b -96 -115 -118 -118 -108 -119 b -39 -76 -76 -108 -56 -94 b 3 -28 -24 -60 -10 -42 b 68 57 28 0 50 26 b 89 107 78 72 85 89 b 92 119 90 111 92 115 l 93 126 l 93 131 l 93 136 b 82 175 93 150 89 164 z m -176 35 b -172 39 -175 36 -174 38 b -154 54 -164 46 -158 51 b -176 35 -161 47 -168 40 z "},"-":{"ha":763,"x_min":0,"x_max":0,"o":"m 638 428 b 631 450 636 436 633 444 b 576 510 619 475 600 496 b 501 533 553 524 526 531 b 426 536 476 536 451 536 b 349 519 392 535 363 526 b 365 500 335 511 336 503 b 378 500 369 500 374 500 b 342 496 365 499 353 497 b 333 496 339 496 336 496 b 218 497 365 517 254 518 b 103 496 190 481 124 497 b -14 467 58 494 24 482 b -25 463 -17 465 -21 464 b -37 457 -29 461 -32 460 b -62 432 -47 451 -57 443 b -56 368 -72 410 -68 385 b -31 350 -49 360 -40 353 b -1 346 -21 347 -11 347 b 51 342 17 344 35 343 b 153 325 90 338 107 326 b 264 336 194 324 228 331 b 382 343 321 344 332 347 b 428 336 399 342 410 338 b 472 333 442 335 457 335 b 521 329 488 332 504 331 b 574 338 538 329 557 331 b 597 350 582 342 590 346 b 607 358 601 353 604 356 b 617 367 610 361 614 364 b 638 408 628 379 635 393 b 638 433 639 417 639 425 z m -12 449 b 1 453 -7 450 -3 451 b 40 463 21 458 32 461 b -12 449 22 458 4 454 z "},".":{"ha":306,"x_min":0,"x_max":0,"o":"m 11 128 b -22 157 4 146 -12 157 b -31 138 -33 157 -36 150 b -29 133 -29 136 -29 135 b -42 144 -33 138 -37 142 b -46 144 -43 144 -44 144 b -37 153 -40 146 -37 149 b -47 168 -37 157 -42 163 b -90 174 -58 178 -81 182 b -121 171 -99 167 -108 169 b -153 169 -133 172 -147 172 b -167 163 -158 168 -162 165 b -171 158 -168 161 -169 160 b -172 157 -172 157 -172 157 b -172 157 -172 157 -172 157 b -172 157 -172 157 -172 157 b -174 157 -172 157 -172 157 b -182 150 -176 156 -179 153 b -194 135 -187 146 -192 140 b -211 85 -203 122 -210 103 b -210 36 -212 67 -210 50 b -211 13 -210 28 -211 21 b -207 -15 -212 4 -212 -4 b -161 -49 -196 -35 -178 -43 b -132 -54 -147 -53 -139 -53 b -106 -61 -125 -56 -118 -57 b -82 -68 -97 -62 -92 -68 b -39 -50 -68 -68 -51 -61 b -8 -14 -25 -39 -15 -25 b 18 54 6 8 14 31 b 11 129 22 78 21 103 z m -172 121 b -176 117 -174 119 -175 118 b -172 121 -175 118 -174 119 b -158 131 -165 126 -161 129 b -171 122 -162 128 -167 125 z m -83 46 b -83 46 -83 46 -83 46 b -83 46 -83 46 -83 46 z "},":":{"ha":383,"x_min":0,"x_max":0,"o":"m 332 831 b 267 885 321 854 297 876 b 221 875 246 890 228 883 b 231 857 214 867 217 860 b 235 857 232 857 233 857 b 218 854 229 857 224 856 b 214 854 217 854 215 854 b 214 854 214 854 214 854 b 210 865 217 860 215 864 b 199 865 207 867 203 867 b 190 863 196 865 193 864 b 185 860 188 861 185 860 b 176 856 185 860 179 857 b 168 849 174 854 171 851 b 160 832 163 843 160 838 b 138 811 158 822 149 817 b 111 796 126 806 115 800 b 96 767 103 788 99 778 b 94 733 93 756 93 744 b 110 682 96 718 101 699 b 139 639 118 665 129 651 b 147 628 142 635 144 632 b 156 619 150 625 153 622 b 181 603 161 614 168 607 b 238 615 203 596 222 604 b 261 636 250 624 256 631 b 283 653 267 642 272 646 b 304 665 290 657 297 658 b 335 751 325 685 333 725 b 324 829 338 778 336 804 z m 115 729 b 115 733 115 731 115 732 b 119 750 117 742 118 747 b 114 729 117 743 115 736 z m 107 461 b 56 454 85 469 63 463 b 67 436 47 446 51 439 b 71 435 68 436 69 435 b 54 432 65 435 60 433 b 50 432 53 432 51 432 b 50 432 50 432 50 432 b 47 443 53 438 51 442 b 26 442 43 444 35 444 b 24 440 25 442 24 440 l 22 440 b 19 440 22 440 21 440 l 17 439 b 6 432 13 438 8 435 b -7 413 -1 426 -6 419 b -29 389 -8 403 -18 396 b -56 371 -40 382 -51 375 b -71 307 -71 351 -72 329 b -54 251 -69 290 -64 269 b -22 207 -44 233 -32 219 b -7 185 -17 199 -12 192 b 18 167 -1 178 6 171 b 79 175 42 158 63 165 b 104 196 93 183 99 190 b 126 213 110 201 115 206 b 149 226 133 218 142 219 b 171 271 158 238 167 254 b 178 319 175 288 176 306 b 167 400 179 347 178 374 b 104 461 156 426 135 450 z m -46 307 b -46 299 -46 304 -46 301 b -46 306 -46 301 -46 304 b -42 322 -44 314 -43 319 b -46 306 -43 317 -44 311 z "},";":{"ha":413,"x_min":0,"x_max":0,"o":"m 253 472 b 244 481 250 475 247 478 b 225 496 239 486 232 492 b 188 504 211 504 196 506 b 176 494 179 503 175 499 b 194 479 178 490 185 486 b 203 472 197 478 200 475 b 175 481 194 476 186 479 b 171 481 174 481 172 481 b 171 481 171 481 171 481 b 172 493 178 485 178 489 b 142 499 167 497 156 500 b 100 479 128 497 111 490 b 83 449 89 469 83 457 b 26 378 83 421 38 390 b -19 299 4 351 -7 326 b -56 228 -29 278 -40 253 b -106 160 -71 203 -87 178 b -136 133 -117 149 -126 142 b -144 128 -139 132 -142 131 b -153 119 -147 125 -150 124 b -161 88 -158 113 -162 101 b -144 57 -160 75 -153 64 b -114 49 -136 50 -125 47 b -99 51 -108 49 -103 50 b -89 56 -94 53 -92 54 b -68 67 -82 60 -75 63 b -26 93 -49 78 -37 86 b 14 114 -15 100 -4 106 b 49 129 26 119 36 121 b 106 179 68 140 88 160 b 153 236 124 199 140 219 b 226 329 179 269 203 299 b 243 350 232 336 238 343 b 251 363 246 354 249 357 b 260 379 256 368 258 374 b 253 454 267 404 264 429 b 246 467 251 458 249 463 z m -3 288 b 1 292 -1 289 0 290 b 17 314 8 303 13 310 b -3 285 11 304 4 294 z m 354 868 b 313 892 343 886 324 893 b 304 888 308 892 306 890 b 294 901 303 892 300 897 b 269 911 288 907 278 911 b 247 906 261 911 253 910 b 215 903 239 900 228 901 b 183 901 203 904 189 904 b 143 847 158 890 149 868 b 140 794 139 832 139 813 b 146 744 142 776 146 760 b 143 719 146 735 144 728 b 147 692 142 711 142 703 b 193 654 157 671 175 660 b 211 651 200 653 206 651 b 225 651 217 651 221 651 b 238 651 229 651 233 651 b 254 650 242 651 247 650 b 267 649 258 650 263 649 b 281 649 271 649 275 647 b 322 676 296 651 311 663 b 347 718 333 690 342 706 b 363 756 353 731 358 743 b 371 793 367 768 369 781 b 351 872 374 818 368 847 z m 161 846 b 161 850 161 847 161 849 b 171 864 165 857 168 861 b 160 846 167 858 163 853 z m 294 878 b 292 881 294 879 293 879 b 292 881 292 881 292 881 b 300 885 296 881 299 882 b 306 876 301 882 303 879 b 310 872 307 875 308 874 b 296 881 306 875 301 878 z "},"<":{"ha":865,"x_min":0,"x_max":0,"o":"m 883 833 b 844 857 872 847 857 856 b 819 854 832 860 824 857 b 817 850 815 853 814 851 b 833 846 819 849 825 849 b 863 822 842 843 854 836 b 869 801 867 815 868 808 b 817 839 864 824 844 843 b 804 836 813 839 808 838 b 807 849 821 843 819 847 b 740 842 794 850 769 849 b 581 774 682 829 611 797 b 364 681 531 736 403 697 b 153 564 282 646 221 607 b -21 447 103 532 42 490 l -44 431 l -56 422 b -68 414 -60 419 -64 417 b -90 361 -83 400 -92 381 b -72 310 -90 342 -82 324 b -32 278 -61 296 -47 285 b -6 268 -22 274 -14 271 b 19 260 3 265 11 263 b 63 243 35 254 49 249 b 167 208 92 232 122 221 b 281 181 207 197 246 189 b 388 156 315 171 350 161 b 517 169 447 146 486 153 b 554 208 532 178 544 190 b 561 239 558 217 561 226 b 550 278 561 251 558 265 b 517 315 539 293 529 304 b 474 344 506 326 492 336 b 382 369 446 357 414 364 b 286 386 350 375 318 379 l 274 389 l 267 390 l 256 392 b 243 396 251 393 247 394 l 236 397 b 236 399 235 397 236 399 l 239 400 b 257 413 244 404 250 408 b 269 421 261 415 265 418 b 286 433 275 425 281 429 b 421 513 332 463 376 489 b 553 578 465 536 510 557 b 619 607 575 588 597 597 b 685 635 642 617 663 626 b 821 693 728 653 774 669 b 867 721 838 701 853 711 l 872 725 b 881 733 875 728 878 731 b 892 749 885 738 889 743 b 903 782 899 760 901 771 b 886 838 904 804 897 824 z m 164 546 b 188 560 172 551 181 556 b 256 597 221 579 242 590 b 164 547 225 581 194 564 z "},"=":{"ha":807,"x_min":0,"x_max":0,"o":"m 750 686 b 713 736 743 708 728 726 b 672 750 697 746 682 750 b 658 743 663 750 657 747 b 679 725 660 739 667 735 b 688 717 682 722 685 719 b 654 732 678 724 667 729 b 646 732 651 732 649 732 b 619 757 664 738 647 749 b 535 761 592 765 554 768 b 475 765 519 756 497 760 b 422 779 453 771 432 778 b 306 771 379 785 343 778 b 206 744 278 765 242 756 b 153 725 188 739 169 732 b 107 704 136 718 121 711 b 58 679 88 694 74 689 b 43 654 51 674 46 665 b 50 618 42 643 43 631 b 74 599 56 610 64 603 b 167 585 106 585 136 583 b 228 590 196 586 213 589 b 283 590 243 592 258 592 b 329 583 300 589 311 585 b 510 575 382 578 458 581 b 585 564 536 572 561 568 b 619 556 597 561 608 558 b 640 553 625 554 633 553 b 661 554 647 553 654 553 b 701 567 675 556 689 560 b 735 597 714 574 726 583 b 740 608 738 600 739 604 b 744 618 742 613 743 615 l 749 628 l 750 632 b 750 636 750 633 750 635 b 749 685 753 651 753 668 z m 335 747 b 310 747 326 747 318 747 b 321 747 314 747 318 747 b 357 749 339 749 350 749 b 332 749 349 749 340 749 z m 624 486 b 601 497 617 492 608 494 b 583 500 594 500 589 500 b 571 493 574 500 569 497 b 575 486 571 492 572 489 b 589 475 578 483 583 481 b 597 467 592 472 594 469 b 565 481 589 472 578 478 b 560 481 564 481 561 481 b 565 492 569 483 571 488 b 535 507 560 497 549 503 b 449 508 507 515 468 517 b 388 508 433 501 410 504 b 333 517 365 513 343 517 b 217 499 289 518 254 508 b 119 468 189 492 154 481 b 21 429 85 456 50 442 b -25 408 3 421 -11 415 b -46 388 -32 404 -40 397 b -51 349 -51 378 -56 365 b -39 329 -49 342 -44 335 b -22 317 -33 324 -28 319 b 7 308 -11 313 -3 310 b 63 307 26 306 44 306 b 124 314 92 308 108 313 b 179 317 139 315 154 317 b 225 313 196 317 207 313 b 315 315 251 313 283 314 b 406 317 347 317 379 318 b 482 311 432 315 457 314 b 519 307 494 310 507 308 l 538 306 b 557 306 543 306 550 306 b 633 340 583 306 614 317 b 657 431 653 364 664 397 b 624 483 653 453 639 472 z m 257 482 b 221 478 246 481 233 479 b 233 481 225 479 229 481 b 269 485 251 483 263 485 b 257 485 265 485 261 485 z "},">":{"ha":813,"x_min":0,"x_max":0,"o":"m 756 586 b 713 656 753 621 731 647 b 693 661 704 660 697 661 b 689 657 689 661 688 660 b 700 646 690 654 694 651 b 719 619 706 640 714 632 b 725 599 722 613 724 606 b 682 646 719 619 706 638 b 669 650 678 647 674 649 b 624 688 703 649 672 668 b 472 726 575 707 508 726 b 363 751 444 726 403 739 b 264 778 322 764 283 775 b 204 783 243 781 224 782 b 175 783 194 783 185 783 b 167 783 174 783 169 783 b 154 781 163 783 158 782 b 142 775 150 779 146 778 b 132 768 138 774 135 771 b 110 729 119 757 113 743 b 114 689 107 715 108 701 b 140 658 119 676 128 665 b 150 654 143 657 147 656 l 157 651 l 169 646 b 313 601 210 631 260 615 b 392 581 339 594 365 588 b 429 572 404 578 417 575 b 467 560 442 568 454 564 b 403 525 447 547 424 535 b 229 453 338 493 304 488 b 44 365 160 422 106 393 b -61 321 -4 343 -33 331 b -104 300 -75 317 -90 311 b -135 246 -118 289 -131 271 b -135 200 -137 229 -137 215 b -114 154 -132 185 -126 169 b -74 128 -104 143 -90 133 b -19 124 -57 121 -37 119 b -7 128 -15 125 -11 126 b 4 132 -3 129 1 131 b 25 140 11 135 18 138 b 67 157 39 146 53 151 b 221 229 122 182 176 208 b 468 353 310 272 390 311 b 697 488 546 393 621 436 b 708 496 701 490 704 492 b 719 508 713 500 717 504 b 736 536 726 517 732 526 b 746 592 744 554 747 574 z m 156 681 b 133 710 142 688 135 700 b 135 735 131 719 132 728 b 135 735 135 735 135 735 b 156 679 128 715 135 689 b 176 671 163 676 169 674 b 153 679 168 674 160 676 z "},"?":{"ha":826,"x_min":0,"x_max":0,"o":"m 979 1185 b 922 1294 969 1224 951 1263 b 854 1343 903 1315 879 1332 b 782 1364 829 1354 804 1361 b 675 1360 736 1371 699 1365 b 646 1346 651 1354 640 1349 b 718 1342 651 1343 674 1344 b 756 1338 731 1340 743 1339 b 647 1333 719 1342 682 1339 b 626 1329 640 1332 633 1331 b 629 1343 650 1339 649 1343 b 532 1325 610 1343 574 1338 b 406 1264 490 1313 444 1290 b 317 1183 367 1238 335 1207 b 296 1157 311 1175 304 1167 b 269 1128 288 1147 279 1138 b 243 1094 261 1117 251 1106 b 231 1078 239 1089 235 1083 b 215 1054 226 1071 221 1063 l 207 1039 b 204 1022 206 1033 204 1028 b 222 993 206 1011 213 1000 b 254 983 232 986 243 982 b 269 989 260 985 265 986 l 274 990 l 276 993 l 283 999 b 308 1021 292 1007 300 1014 b 324 1033 314 1025 319 1029 b 347 1054 333 1042 342 1049 b 490 1150 394 1094 442 1125 b 567 1182 515 1163 540 1174 b 646 1201 592 1190 618 1197 b 678 1204 656 1203 667 1204 b 694 1204 683 1204 689 1204 b 711 1204 700 1204 706 1204 b 774 1185 733 1203 756 1197 b 808 1126 792 1172 806 1151 b 800 1049 813 1101 808 1074 b 707 917 783 997 747 953 b 582 825 667 881 624 850 b 313 679 481 764 429 751 b 175 575 260 646 215 611 b 61 456 133 539 96 500 b -28 290 7 386 -15 338 b -37 215 -35 267 -37 243 b -21 172 -37 201 -32 186 b 28 143 -10 158 7 147 b 67 142 42 140 54 140 b 101 153 79 143 90 147 b 156 210 124 165 140 185 b 186 267 167 228 176 247 b 221 321 196 286 207 303 b 318 426 249 358 282 394 b 540 590 390 492 474 546 b 733 719 607 635 672 675 b 896 871 794 764 850 813 b 953 965 919 900 938 932 b 971 1017 960 982 967 999 b 983 1074 976 1035 981 1054 b 976 1189 988 1111 986 1150 z m 511 1193 b 624 1222 547 1207 585 1217 b 607 1218 618 1221 613 1219 b 511 1192 561 1210 532 1199 z m 103 7 b 93 -12 92 8 88 1 b 93 -17 93 -14 93 -15 b 82 -4 90 -12 86 -8 b 78 -4 81 -4 79 -4 b 78 -4 78 -4 78 -4 b 82 13 86 -3 88 4 b 69 24 79 17 75 21 b 61 28 67 25 64 26 b 57 29 60 28 57 29 b 57 29 57 29 57 29 b 53 28 56 29 54 28 b 47 28 51 28 50 28 l 47 28 b 28 53 39 31 35 42 b 3 78 21 64 10 75 b -37 79 -11 83 -25 83 b -68 58 -50 75 -60 67 b -89 7 -79 46 -87 25 b -92 -44 -90 -12 -89 -29 b -103 -96 -94 -62 -106 -72 b -72 -143 -99 -117 -86 -131 b -58 -156 -67 -149 -62 -153 b -49 -164 -54 -158 -51 -161 b -26 -182 -42 -168 -36 -174 b -6 -199 -19 -187 -15 -194 b 44 -200 8 -206 28 -206 b 88 -174 61 -194 76 -183 b 131 -108 108 -154 122 -132 b 133 -29 139 -85 142 -58 b 100 6 128 -10 111 4 z m -54 40 b -50 44 -53 42 -51 43 b -35 50 -43 49 -39 50 b -54 40 -42 47 -49 44 z "},"@":{"ha":1288,"x_min":0,"x_max":0,"o":"m 1263 965 b 1244 1015 1258 982 1251 999 b 1235 1040 1242 1024 1239 1032 l 1222 1064 b 1156 1149 1204 1094 1182 1124 b 961 1246 1103 1199 1033 1231 b 674 1233 857 1267 756 1254 b 488 1158 592 1213 528 1182 b 442 1121 447 1135 431 1118 b 574 1174 453 1122 492 1144 b 636 1193 594 1181 615 1188 b 447 1110 567 1172 501 1143 b 418 1090 438 1104 428 1097 b 418 1104 453 1119 449 1121 b 267 985 385 1088 326 1046 b 222 938 251 971 238 954 b 179 885 207 921 193 903 b 140 826 167 865 153 846 b 124 797 135 817 129 807 l 115 782 l 107 767 b 31 551 65 686 40 606 b 8 390 24 508 13 453 b 8 293 7 360 6 326 b 26 194 11 260 18 226 b 113 25 44 129 76 69 b 218 -67 149 -21 190 -50 b 311 -104 249 -83 279 -96 b 406 -119 343 -112 375 -118 b 585 -103 468 -124 528 -115 b 747 -44 642 -89 696 -68 b 785 -25 760 -39 772 -32 b 806 -11 792 -21 799 -17 b 825 8 813 -6 819 0 l 833 19 l 839 32 b 844 44 842 36 843 40 b 847 57 846 49 847 53 b 842 110 850 75 847 93 b 786 168 832 135 813 157 l 776 172 b 767 174 774 174 769 174 b 756 174 764 174 760 174 l 746 174 l 735 174 l 725 172 b 706 168 718 171 711 169 b 567 121 660 154 614 136 b 418 96 519 106 469 93 b 276 153 367 97 314 115 b 207 294 238 189 217 242 b 211 456 197 347 200 403 b 324 738 231 561 272 658 b 521 939 388 833 450 890 b 578 972 539 951 558 961 b 643 1001 599 982 619 993 b 806 1044 689 1021 742 1036 b 971 1033 864 1051 921 1049 b 1039 1000 996 1025 1019 1014 b 1085 943 1058 985 1074 965 b 1106 872 1096 921 1103 897 b 1108 797 1108 847 1110 822 b 1076 644 1106 746 1094 694 b 979 463 1049 567 1014 508 b 925 404 961 440 943 421 b 867 365 907 388 888 375 b 836 360 857 361 846 358 b 815 381 826 363 819 371 b 813 451 808 401 810 426 b 828 535 815 478 821 506 b 840 582 832 550 836 565 b 849 607 843 590 846 599 b 851 611 849 608 850 610 l 856 617 b 864 629 858 621 861 625 b 893 679 875 646 885 663 b 904 704 897 688 901 696 b 908 717 906 708 907 713 b 913 731 910 721 911 725 b 901 790 917 750 914 772 b 878 814 896 800 888 808 b 869 818 875 815 872 817 b 865 819 868 819 867 819 l 863 821 b 854 822 860 822 857 822 b 853 828 853 824 853 826 b 851 836 853 831 853 831 b 839 865 849 846 844 856 b 728 950 818 906 776 939 b 582 933 679 961 628 954 b 464 840 536 911 497 878 b 383 713 431 801 404 758 b 343 567 363 665 349 617 b 346 490 340 542 340 515 b 376 421 351 465 361 442 b 501 351 407 379 456 356 b 631 378 549 346 594 358 b 651 390 638 382 644 386 l 658 394 l 664 399 b 672 407 667 401 669 404 l 676 411 l 679 414 l 681 415 b 681 414 681 415 681 415 b 679 385 679 404 679 394 l 681 374 b 682 361 681 369 681 365 b 689 332 683 351 686 342 b 758 240 699 294 724 260 b 869 224 793 221 833 218 b 972 263 907 229 942 243 b 1122 406 1031 303 1079 351 b 1229 579 1165 460 1201 518 b 1286 774 1257 640 1278 706 b 1271 978 1294 842 1290 911 z m 831 90 b 824 42 833 72 831 56 b 822 38 824 40 822 39 b 832 89 832 54 835 72 z m 782 0 b 797 10 788 3 793 6 b 776 -3 790 4 783 0 b 726 -25 758 -11 742 -18 b 650 -53 696 -37 671 -46 b 633 -57 644 -54 639 -56 b 781 3 685 -42 735 -21 z m 531 660 b 529 653 529 657 529 654 b 519 633 525 643 522 638 b 529 658 522 642 525 650 z m 743 771 b 738 763 743 767 740 765 b 721 739 732 756 726 747 b 694 693 711 722 703 706 b 640 629 678 668 660 647 b 611 604 631 621 621 613 b 582 581 601 596 592 588 b 557 551 568 571 560 560 b 574 539 554 543 557 535 b 582 542 576 539 579 540 b 565 529 576 538 571 533 b 561 529 564 529 563 529 b 556 539 563 535 560 538 b 539 540 551 540 544 540 b 529 540 535 540 532 540 b 517 543 526 540 522 542 b 515 571 508 544 510 560 b 533 597 521 582 531 592 b 549 657 543 618 544 636 b 563 711 551 672 556 692 b 594 761 569 731 581 750 b 646 786 611 775 625 774 b 694 815 665 796 678 808 b 724 817 708 819 717 819 b 735 810 728 815 732 814 b 742 797 738 807 740 803 b 740 778 744 789 742 781 z "},"A":{"ha":1126,"x_min":0,"x_max":0,"o":"m 1092 1131 b 1085 1147 1089 1138 1086 1143 b 1078 1151 1081 1156 1078 1157 b 1078 1139 1078 1149 1078 1144 b 1078 1129 1078 1136 1078 1133 b 1078 1117 1078 1125 1078 1121 b 1074 1038 1079 1097 1079 1071 b 1060 982 1071 1018 1065 1000 b 1063 1150 1075 1039 1081 1097 b 1050 1178 1058 1161 1054 1169 b 1061 1158 1056 1169 1058 1163 b 1067 1151 1064 1154 1065 1151 b 1064 1175 1069 1151 1068 1160 b 1024 1229 1058 1189 1049 1211 b 978 1249 1011 1239 994 1244 b 925 1249 961 1251 943 1251 b 726 1154 853 1238 785 1196 b 590 1036 668 1113 619 1068 b 500 944 567 1010 535 979 b 393 832 465 910 428 871 b 232 635 322 754 260 675 b 153 511 203 593 176 551 l 146 500 b 144 500 146 500 146 500 l 129 494 l 113 489 b 49 463 90 481 69 472 b -71 397 7 444 -33 424 b -100 376 -81 390 -90 383 b -112 364 -104 372 -108 368 l -115 361 l -121 356 b -129 344 -124 353 -126 349 b -135 293 -137 328 -139 310 b -97 256 -131 278 -117 260 b -81 254 -92 254 -86 254 b -72 254 -78 254 -75 254 l -67 256 b -46 260 -60 257 -53 258 b -1 272 -32 264 -17 268 b 19 281 6 275 13 278 b 29 285 22 282 25 283 b 53 293 36 288 44 290 b 44 272 50 286 47 279 l 39 260 b 31 239 36 253 33 246 b -7 146 18 208 6 178 b -81 -47 -32 83 -57 18 b -150 -240 -104 -112 -128 -178 b -183 -333 -161 -272 -172 -303 b -200 -378 -189 -349 -194 -364 b -208 -399 -203 -385 -206 -392 b -215 -421 -211 -406 -214 -412 b -179 -471 -218 -444 -200 -465 b -125 -450 -158 -478 -135 -468 b -78 -356 -107 -417 -93 -386 b 28 -132 -47 -293 -15 -228 b 246 339 107 43 167 188 b 250 347 247 342 249 344 l 251 351 b 251 351 251 351 251 351 l 253 351 b 272 356 260 353 267 354 b 315 364 288 358 301 361 b 389 378 342 369 367 374 b 511 392 435 385 474 389 b 626 396 549 394 585 396 b 657 396 636 396 646 396 b 669 396 661 396 665 396 l 676 396 l 679 396 b 681 394 681 396 682 396 b 658 326 674 374 667 351 b 592 121 635 253 615 204 b 539 -82 574 60 556 -10 b 514 -193 531 -118 522 -156 b 501 -247 510 -211 506 -229 b 486 -303 497 -265 492 -283 b 468 -424 476 -340 465 -381 b 493 -485 469 -444 478 -468 b 550 -517 508 -503 529 -512 b 611 -512 571 -521 592 -519 b 660 -476 631 -506 649 -493 b 675 -421 672 -460 676 -439 b 675 -408 675 -417 675 -412 b 675 -400 675 -406 675 -403 b 679 -379 676 -393 678 -386 b 694 -328 683 -362 690 -346 b 707 -278 699 -311 703 -294 b 728 -178 714 -244 721 -211 b 772 14 743 -112 757 -49 b 821 199 788 76 804 138 b 846 290 829 229 838 260 l 860 335 l 865 354 b 869 363 867 357 868 360 l 879 361 b 904 361 888 361 896 361 b 954 365 921 361 938 363 b 1006 382 971 368 989 374 b 1031 400 1013 386 1022 392 b 1050 429 1039 408 1046 418 b 1047 493 1057 451 1054 474 b 1035 519 1044 503 1040 511 b 1015 542 1029 528 1022 536 b 967 571 1000 554 983 564 b 946 579 943 579 949 578 b 947 583 946 581 947 582 l 949 585 l 953 596 b 969 642 958 611 964 626 b 1003 733 981 672 992 703 b 1024 788 1010 751 1017 769 b 1044 839 1031 804 1038 822 b 1081 939 1058 874 1071 907 b 1100 1029 1090 971 1097 1001 b 1099 1101 1103 1057 1101 1082 b 1093 1126 1097 1111 1094 1119 z m 915 1018 b 914 1025 915 1021 915 1024 b 918 1029 915 1026 917 1028 b 918 1029 918 1029 918 1029 b 915 1021 918 1026 917 1024 z m 936 1075 b 936 1075 936 1075 936 1075 b 936 1075 936 1075 936 1075 b 936 1075 936 1075 936 1075 z m 924 1063 b 926 1069 924 1065 925 1068 b 925 1061 925 1067 925 1064 z m 744 594 l 743 588 l 743 583 l 742 578 l 742 575 l 742 574 b 742 574 742 574 742 574 l 732 572 l 729 572 l 725 572 l 717 571 b 592 557 674 565 629 558 b 472 557 546 554 525 563 b 456 554 467 557 461 556 b 442 551 450 553 443 551 b 422 547 435 550 429 549 b 401 539 415 544 408 542 l 389 535 l 382 533 l 378 532 b 376 532 376 532 375 531 b 397 572 382 546 389 560 b 438 622 407 588 418 601 b 479 658 451 636 464 643 b 619 821 522 704 575 778 b 751 931 663 865 707 900 b 892 1013 796 961 842 988 b 904 1017 896 1014 900 1015 b 892 989 900 1010 896 1000 b 865 896 879 960 865 919 b 803 776 865 858 814 799 b 761 644 779 731 771 689 b 749 590 757 628 753 610 z m 785 651 b 800 692 792 671 796 683 b 800 692 800 692 800 692 b 783 646 794 676 789 661 b 788 654 785 649 786 651 z m -100 315 b -87 339 -99 325 -94 333 b -67 354 -81 344 -74 350 b -31 379 -54 364 -42 372 b 26 411 -8 393 11 403 b 35 415 29 413 32 414 b -89 340 -10 394 -51 369 b -93 282 -107 326 -107 297 b -103 318 -103 292 -106 307 z m -85 276 b -85 276 -85 276 -85 276 b -85 276 -85 276 -85 276 b -85 276 -85 276 -85 276 z "},"B":{"ha":1217,"x_min":0,"x_max":0,"o":"m 1289 1146 l 1281 1163 b 1272 1179 1278 1168 1275 1174 l 1261 1194 b 1250 1210 1257 1200 1254 1206 l 1238 1222 b 1210 1246 1229 1232 1219 1239 b 1082 1294 1171 1274 1126 1288 b 949 1299 1038 1301 993 1301 b 507 1171 817 1290 656 1247 b 132 876 358 1096 222 989 b 83 769 106 842 89 806 b 99 667 78 733 88 699 b 144 571 111 635 126 604 b 203 457 163 538 183 501 b 214 428 207 447 211 438 l 217 421 b 217 417 217 419 217 418 b 218 410 217 414 218 411 l 214 407 l 208 403 b 190 386 201 397 196 392 b 174 367 185 381 179 375 b 164 339 168 358 165 349 b 169 286 160 321 163 303 b 183 263 174 278 178 269 b 192 254 188 257 189 256 l 193 254 b 193 254 193 254 193 254 l 192 253 l 190 249 l 189 244 l 188 243 l 186 240 b 169 211 181 231 175 221 b 138 156 158 193 147 175 b 114 93 128 136 119 115 b 111 22 108 71 106 46 b 117 4 113 15 114 10 b 128 -12 119 -3 124 -8 b 163 -26 138 -22 150 -26 b 196 -19 175 -28 186 -24 b 210 -12 201 -18 206 -15 b 222 -4 214 -10 218 -7 b 257 35 238 7 249 21 b 278 75 265 49 272 63 b 308 150 290 101 299 126 b 324 188 313 163 318 175 b 332 204 326 193 329 199 l 336 213 b 340 221 338 215 338 219 b 353 222 344 221 347 221 b 369 228 358 224 364 225 b 401 247 381 233 390 240 b 474 288 422 260 446 274 b 665 356 540 319 588 333 b 711 368 679 360 696 364 b 757 381 726 372 742 376 b 803 388 772 385 788 388 b 822 386 810 388 817 388 b 832 381 828 385 829 383 b 836 374 833 379 835 376 b 839 364 838 371 839 367 b 839 356 839 361 839 358 l 828 353 b 803 344 819 350 811 347 b 696 307 767 333 731 321 b 497 210 626 279 558 246 b 333 97 436 174 381 135 b 201 -22 286 60 242 19 b 96 -158 161 -64 124 -108 b 64 -239 82 -183 69 -210 b 67 -328 58 -268 58 -299 b 110 -404 75 -357 89 -383 b 186 -446 131 -425 158 -439 b 351 -435 243 -458 299 -449 b 503 -375 404 -419 454 -399 b 769 -182 600 -328 690 -262 b 844 -96 797 -154 822 -125 b 901 -10 867 -67 886 -37 b 963 129 933 46 953 96 b 968 174 972 164 974 181 b 918 79 961 168 949 138 b 890 29 910 63 900 46 b 957 178 917 76 939 126 b 957 182 957 179 957 181 b 965 207 960 190 963 199 b 994 249 958 158 972 185 l 996 249 l 999 260 b 1015 343 1006 283 1013 311 b 1003 446 1018 375 1015 411 l 1001 449 l 1003 446 b 951 524 993 475 975 503 b 935 538 946 529 940 533 l 925 543 l 921 546 b 907 551 917 549 913 550 l 906 551 b 907 551 906 551 907 551 l 910 553 b 914 557 911 554 913 556 b 918 561 915 558 917 560 l 921 564 b 925 567 922 565 922 565 b 965 599 940 578 954 589 b 1175 771 1015 642 1103 700 b 1267 882 1211 806 1243 844 b 1306 981 1289 919 1301 956 b 1296 1131 1317 1032 1313 1085 b 1290 1147 1294 1136 1293 1142 z m 511 842 b 528 872 517 853 522 864 b 574 953 550 914 564 938 b 510 842 551 917 531 879 z m 525 536 b 508 528 519 533 514 531 b 504 540 526 542 522 544 b 582 714 536 599 571 672 b 646 850 592 750 619 801 b 682 918 658 874 671 897 b 697 946 688 928 693 938 b 703 963 699 949 701 957 b 704 979 704 968 706 974 b 676 1032 703 1001 692 1019 b 618 1047 663 1044 642 1053 b 590 1032 607 1046 597 1039 b 581 1019 586 1028 583 1024 b 578 1014 579 1017 579 1015 l 575 1010 b 558 981 569 1000 564 990 b 493 854 535 939 514 897 b 390 625 463 790 428 708 b 333 501 372 583 353 542 b 304 443 324 482 314 463 l 300 436 b 297 435 300 435 299 435 l 293 433 b 292 435 292 432 292 433 l 290 439 l 289 446 b 282 475 288 456 285 465 b 261 535 275 497 268 517 b 240 586 254 553 247 569 b 217 639 233 603 225 621 b 190 704 208 658 199 679 b 182 736 186 715 183 726 b 185 764 181 746 182 754 b 214 818 190 783 201 801 b 306 908 239 851 271 881 b 428 996 361 953 394 976 b 551 1053 461 1015 494 1032 b 660 1083 589 1067 617 1071 b 881 1129 724 1101 801 1122 b 999 1136 921 1133 961 1138 b 1097 1117 1036 1135 1072 1131 b 1133 1049 1122 1104 1133 1076 b 1113 964 1133 1019 1125 990 b 1064 894 1100 938 1083 915 b 1001 836 1044 874 1024 854 b 861 739 957 800 910 769 b 708 654 813 708 763 681 b 536 563 635 618 568 583 b 576 558 504 542 508 533 b 606 569 586 561 596 565 b 525 532 579 557 553 544 z m 208 -303 b 229 -311 215 -308 224 -310 b 246 -312 236 -312 242 -312 b 250 -312 247 -312 249 -312 b 201 -290 226 -312 208 -307 b 210 -303 204 -296 207 -300 z m 556 -174 b 518 -179 565 -154 544 -162 b 442 -237 490 -196 456 -219 b 381 -267 431 -251 406 -261 b 319 -276 356 -272 331 -274 b 257 -287 296 -281 275 -285 b 232 -290 247 -289 239 -290 b 221 -286 225 -289 224 -289 b 218 -272 219 -285 218 -279 b 222 -249 218 -265 219 -257 b 243 -192 228 -231 233 -211 b 314 -93 261 -154 286 -118 b 360 -60 331 -78 344 -68 b 382 -46 367 -56 374 -51 b 410 -28 390 -40 400 -35 b 510 49 447 -1 476 24 b 626 115 563 86 572 94 b 678 129 644 122 658 122 b 756 161 701 138 728 149 b 776 169 763 164 769 167 l 786 174 b 808 183 793 176 800 181 b 804 165 808 178 807 171 b 800 153 803 161 801 157 b 792 136 797 147 794 142 b 774 99 786 124 781 111 b 729 32 760 75 744 53 b 619 -83 697 -10 661 -47 b 558 -147 592 -107 568 -132 b 583 -153 549 -162 554 -169 b 596 -144 588 -150 592 -147 b 563 -172 585 -154 574 -164 b 558 -176 561 -174 560 -175 z m 1006 1274 b 1147 1246 1072 1271 1117 1258 b 956 1272 1090 1269 1022 1275 b 1006 1274 974 1274 990 1274 z "},"C":{"ha":1147,"x_min":0,"x_max":0,"o":"m 1019 1247 b 897 1269 982 1264 942 1269 b 742 1249 853 1268 803 1264 b 688 1232 722 1242 704 1238 b 638 1213 671 1225 654 1219 b 532 1157 604 1199 571 1182 b 194 835 415 1085 294 967 b -40 439 94 703 14 560 b -150 72 -94 317 -132 194 b -149 -111 -160 11 -161 -51 b -67 -275 -136 -171 -110 -229 b 88 -371 -25 -321 29 -353 b 268 -383 146 -389 208 -392 b 357 -364 299 -379 328 -372 b 442 -332 386 -356 414 -344 b 603 -240 497 -307 551 -276 b 781 -87 672 -192 732 -136 b 890 36 829 -39 867 6 b 915 79 914 67 924 83 b 828 0 907 75 881 50 b 782 -42 813 -14 797 -28 b 907 89 825 0 867 43 b 901 118 908 100 906 110 b 914 88 913 101 911 89 b 918 92 915 86 917 88 b 918 101 918 94 918 97 b 917 114 918 106 918 110 b 897 144 914 124 908 135 b 854 160 888 153 872 160 b 825 153 844 160 835 157 b 813 144 821 150 817 147 l 807 139 l 803 135 b 767 100 792 124 779 113 b 599 -46 717 53 657 0 b 447 -156 540 -92 485 -131 b 328 -210 418 -175 376 -196 b 171 -215 279 -224 222 -228 b 53 -140 119 -204 75 -175 b 31 -90 42 -124 35 -106 b 28 -68 29 -82 28 -75 b 26 -49 26 -61 26 -54 b 47 94 25 0 35 49 b 93 229 60 140 76 185 b 206 482 125 317 160 399 b 329 681 239 543 281 611 b 500 882 378 750 435 819 b 722 1039 567 944 642 1000 b 846 1082 763 1058 804 1072 b 908 1089 867 1086 888 1090 b 936 1081 918 1088 928 1085 b 950 1057 946 1076 950 1067 b 933 931 951 1008 944 967 b 892 829 922 893 908 861 b 838 728 875 797 857 765 b 821 699 832 718 826 708 b 813 681 818 693 815 688 b 808 672 811 678 810 675 b 806 661 807 669 807 665 b 810 615 803 647 804 631 b 840 578 815 600 826 588 b 881 560 853 568 867 563 b 924 558 894 557 910 556 b 964 576 938 561 951 568 b 981 589 969 581 976 585 l 993 603 b 1069 722 1025 640 1050 681 b 1138 983 1108 806 1132 892 b 1106 1158 1140 1056 1129 1114 b 1013 1251 1083 1204 1049 1233 z m 82 293 b 78 285 81 290 79 288 b 181 497 107 358 142 429 b 151 446 169 479 160 461 b 79 292 115 375 94 326 z "},"D":{"ha":1413,"x_min":0,"x_max":0,"o":"m 1225 261 b 1321 479 1264 331 1296 403 b 1365 721 1346 556 1363 636 b 1365 764 1365 736 1365 750 b 1363 806 1365 778 1364 792 b 1349 882 1361 833 1354 858 b 1344 899 1347 888 1346 893 b 1340 915 1343 904 1342 910 b 1328 944 1336 925 1332 935 b 1304 988 1321 963 1311 976 b 1282 1014 1290 1011 1282 1021 b 1288 989 1282 1010 1283 1001 b 1294 967 1289 982 1292 975 b 1299 953 1296 963 1297 958 b 1303 936 1300 947 1301 942 b 1311 903 1306 925 1308 914 b 1268 1010 1300 939 1286 975 b 1257 1028 1265 1017 1261 1022 b 1271 1028 1275 1006 1278 1008 b 1213 1121 1264 1047 1244 1083 b 1089 1218 1182 1158 1136 1194 b 963 1256 1042 1242 994 1253 b 871 1263 938 1257 906 1261 b 760 1265 836 1265 797 1267 b 579 1239 685 1263 613 1249 b 479 1203 543 1229 510 1217 b 433 1181 464 1196 449 1189 b 392 1157 419 1172 406 1165 b 310 1107 364 1142 336 1125 b 232 1047 283 1089 257 1069 b 129 918 194 1015 154 974 l 125 908 b 121 896 124 904 122 900 b 114 875 118 889 115 882 b 107 829 111 860 107 844 b 119 736 104 797 110 765 b 208 574 140 676 178 625 b 263 413 238 522 260 467 b 260 353 264 390 263 371 b 254 328 258 344 256 336 b 250 318 253 324 251 321 l 249 314 b 246 311 249 313 249 310 b 236 311 242 311 239 311 l 225 311 b 200 307 217 311 208 308 b 175 300 192 306 183 303 b 163 296 171 299 167 297 b 150 292 158 294 154 293 b 43 217 115 278 79 254 b -64 54 -7 165 -39 110 b -94 -32 -76 26 -87 -1 b -97 -126 -100 -62 -101 -94 b -50 -240 -89 -176 -69 -212 b 13 -303 -31 -268 -8 -286 b 189 -371 57 -333 104 -358 b 344 -376 244 -378 282 -382 b 649 -287 438 -368 547 -335 b 792 -207 699 -264 747 -236 b 911 -119 836 -178 876 -147 b 1093 64 981 -62 1042 -1 b 1229 264 1146 128 1190 194 z m 94 -129 b 90 -81 86 -115 86 -99 b 93 -125 88 -97 88 -112 b 146 -175 106 -151 128 -167 b 194 -189 164 -183 181 -186 b 207 -189 199 -189 203 -189 b 94 -129 157 -185 115 -168 z m 1074 378 b 1010 282 1061 360 1039 324 b 908 154 981 240 944 194 b 813 54 872 114 836 79 b 736 -8 794 35 768 13 b 685 -37 719 -18 703 -28 b 629 -64 667 -47 649 -57 b 444 -125 556 -97 481 -115 b 235 -162 369 -146 300 -161 b 146 -146 203 -162 171 -158 b 117 -119 133 -139 124 -131 b 114 -115 115 -118 114 -117 b 114 -111 114 -114 114 -112 b 111 -103 113 -108 113 -106 b 111 -83 110 -97 110 -90 b 139 -12 114 -62 125 -37 b 163 25 146 0 154 13 b 175 44 167 31 171 38 b 183 57 178 49 181 53 b 204 78 189 64 196 71 b 217 90 208 82 213 86 b 218 83 218 89 218 86 l 218 79 l 218 76 l 218 75 l 218 71 b 214 38 217 60 215 49 b 214 10 213 26 214 18 b 222 -11 214 3 215 -6 b 249 -19 229 -17 239 -21 b 260 -12 253 -18 257 -15 b 265 -1 263 -10 264 -6 l 276 24 b 285 50 279 32 282 42 b 318 146 296 82 307 114 b 386 322 340 208 363 268 b 463 483 414 389 438 435 b 554 653 489 531 515 581 b 581 701 564 669 572 686 b 608 746 589 717 599 732 b 661 835 626 775 644 804 b 696 932 676 865 690 897 b 694 986 699 949 700 968 b 660 1032 689 1004 676 1021 b 582 1038 633 1049 603 1047 b 532 1000 560 1028 544 1014 b 478 918 507 972 492 944 b 439 836 464 892 453 865 b 389 732 425 807 408 774 b 354 657 376 704 365 681 b 338 618 349 644 343 632 b 326 592 331 601 329 599 b 322 579 325 588 324 583 l 321 574 b 321 572 321 574 321 572 l 319 575 b 315 588 318 579 317 583 l 313 594 l 310 601 l 307 607 l 303 615 b 294 632 300 621 297 626 b 278 668 289 643 283 656 b 247 739 267 692 256 715 b 235 811 239 763 233 788 b 260 876 236 835 246 857 b 271 890 264 881 267 886 l 283 904 b 297 917 288 908 293 913 b 310 929 301 921 306 925 b 425 1007 347 961 388 986 b 554 1067 468 1031 511 1050 b 683 1108 597 1083 640 1099 b 935 1099 769 1126 857 1126 b 1040 1039 974 1085 1010 1064 b 1114 944 1071 1013 1096 981 b 1146 700 1149 872 1156 786 b 1079 424 1132 582 1096 476 b 1074 388 1071 397 1068 383 b 1117 463 1079 392 1094 414 b 1133 504 1122 476 1128 490 b 1085 381 1119 460 1103 418 b 1072 360 1081 374 1076 367 b 1065 371 1082 389 1078 389 z m 367 1111 b 371 1115 368 1113 369 1114 b 244 1035 328 1092 283 1065 b 268 1054 253 1042 261 1049 b 365 1115 311 1086 343 1103 z "},"E":{"ha":968,"x_min":0,"x_max":0,"o":"m 425 1158 b 381 1125 410 1147 394 1136 b 290 1042 351 1103 322 1078 b 151 789 233 976 179 890 b 142 751 147 776 144 764 l 139 731 l 138 710 b 150 628 136 682 140 654 b 193 556 160 601 174 576 b 207 540 197 550 201 544 l 215 533 l 219 529 b 226 524 222 526 224 525 b 235 519 229 522 232 521 b 235 519 235 519 235 519 l 233 519 l 231 518 l 226 515 l 218 510 b 179 482 206 501 192 492 b 108 424 154 463 131 443 b -17 311 64 385 21 347 b -151 160 -67 264 -112 214 b -235 -17 -189 106 -218 46 b -247 -206 -251 -79 -257 -143 b -164 -374 -237 -268 -208 -328 b -1 -467 -119 -419 -62 -450 b 186 -465 60 -483 125 -481 b 357 -389 247 -450 304 -422 b 507 -274 410 -356 460 -317 b 671 -94 572 -215 628 -153 b 725 -12 692 -65 710 -37 b 744 22 732 0 739 11 b 753 39 747 28 750 33 l 754 43 b 758 47 756 44 757 46 b 763 60 760 51 761 56 b 758 99 765 75 763 89 b 743 119 754 108 749 115 b 732 121 732 126 728 125 b 742 107 733 118 738 114 b 750 79 746 100 750 90 b 746 60 750 74 749 67 b 735 42 743 53 739 47 b 706 1 726 31 717 17 b 667 -49 693 -15 681 -32 b 736 56 692 -15 715 19 b 724 110 747 74 742 99 b 690 115 714 117 701 118 b 690 115 690 115 690 115 b 715 117 700 119 710 118 b 725 114 721 115 724 114 b 721 118 726 114 725 115 b 700 126 717 121 710 125 b 664 115 690 128 676 125 b 656 107 661 113 658 110 b 651 99 654 104 653 101 b 639 82 647 93 643 88 b 581 8 622 60 603 35 b 506 -74 558 -18 533 -46 b 422 -154 478 -101 450 -129 b 272 -271 367 -206 311 -246 b 146 -312 242 -290 197 -310 b 106 -311 133 -312 119 -314 b 85 -307 99 -310 92 -308 b 64 -303 78 -306 71 -304 b -8 -269 38 -297 13 -286 b -51 -210 -29 -253 -44 -232 b -57 -143 -58 -187 -58 -164 b -26 -43 -51 -100 -36 -65 b 11 22 -15 -19 -3 3 b 33 51 18 32 25 42 b 58 81 42 61 50 71 b 163 181 92 117 126 150 b 392 349 233 243 308 297 b 439 378 407 358 422 368 b 492 418 454 386 478 399 b 513 488 506 438 514 463 b 482 556 513 513 501 539 b 410 579 463 574 435 581 b 393 578 404 579 399 578 l 388 576 l 382 578 b 350 588 371 581 360 583 b 294 619 329 594 310 604 b 268 678 279 635 269 656 b 281 744 267 700 272 722 b 310 808 289 767 299 788 b 388 924 332 850 358 889 b 593 1083 447 993 519 1049 b 672 1104 621 1096 647 1103 b 708 1103 685 1104 697 1104 b 736 1090 721 1101 731 1099 b 738 1075 739 1086 739 1081 b 732 1058 736 1071 735 1064 b 717 1022 728 1046 722 1035 b 683 949 707 997 696 974 b 642 869 671 924 657 897 b 617 824 633 856 625 840 b 601 764 610 807 603 788 b 608 719 601 749 604 733 b 636 681 613 706 622 690 b 679 665 650 671 665 667 b 700 665 686 664 693 665 b 721 669 707 665 714 668 b 788 713 749 678 771 694 b 828 772 804 731 817 751 b 882 899 850 814 865 857 b 921 1033 899 942 914 986 b 915 1136 926 1071 925 1106 b 872 1210 906 1165 890 1190 b 813 1250 854 1229 833 1242 b 750 1264 792 1258 771 1263 b 624 1254 708 1268 668 1264 b 474 1196 579 1243 531 1226 b 424 1164 456 1186 439 1175 z m 185 243 b 172 235 181 240 176 238 b 379 374 238 286 307 332 b 328 342 360 363 343 351 b 185 243 258 299 215 267 z "},"F":{"ha":956,"x_min":0,"x_max":0,"o":"m 92 -364 b 121 -347 104 -362 115 -356 b 126 -336 124 -343 125 -339 b 129 -328 128 -333 129 -331 b 125 -319 129 -318 128 -315 b 118 -332 124 -322 122 -326 b 100 -347 115 -337 110 -344 b 69 -344 92 -350 81 -350 b 54 -332 64 -342 58 -337 b 49 -312 50 -326 49 -319 b 49 -271 47 -299 47 -285 b 53 -317 49 -286 50 -301 b 115 -318 58 -350 111 -356 b 119 -293 117 -310 118 -301 b 129 -304 118 -326 122 -325 b 144 -258 132 -293 138 -278 b 172 -194 151 -240 161 -218 b 256 -44 196 -147 228 -94 b 293 29 269 -19 282 7 b 319 89 304 51 313 72 b 429 292 340 142 385 219 b 463 344 440 310 451 328 b 494 393 474 361 485 378 b 507 414 499 400 503 407 b 511 417 508 415 508 418 b 522 417 514 417 515 417 b 538 417 528 417 533 417 b 594 410 557 415 576 413 b 621 404 604 408 613 407 l 633 401 l 640 400 l 643 399 l 647 397 b 724 408 671 390 701 393 b 765 468 746 424 760 446 b 767 536 772 490 772 514 b 728 593 761 558 747 579 b 664 614 708 607 685 613 b 650 614 658 614 654 614 l 643 614 l 640 614 l 639 614 l 629 613 l 624 613 l 621 613 b 619 613 621 613 619 613 l 619 614 b 624 622 621 617 622 619 l 626 628 b 628 632 626 629 626 629 l 632 639 b 649 667 638 647 643 657 b 717 781 668 704 692 742 b 789 903 742 819 767 860 b 821 968 800 924 811 946 b 833 1001 825 979 829 990 b 836 1019 835 1007 836 1014 b 836 1036 836 1025 836 1031 b 836 1038 836 1036 836 1038 l 838 1038 l 842 1038 l 850 1039 l 865 1042 b 899 1046 876 1043 888 1044 b 965 1051 921 1049 943 1050 b 1090 1057 1008 1056 1050 1057 b 1275 1049 1165 1058 1219 1054 b 1364 1040 1303 1046 1332 1043 b 1415 1036 1381 1039 1397 1038 b 1444 1032 1425 1035 1435 1033 b 1461 1032 1450 1032 1456 1032 l 1468 1032 b 1472 1031 1469 1032 1471 1031 b 1540 1032 1494 1022 1519 1024 b 1567 1046 1550 1036 1560 1042 b 1581 1054 1571 1047 1576 1051 b 1593 1065 1586 1057 1589 1061 b 1614 1126 1608 1083 1614 1106 b 1600 1185 1614 1147 1610 1167 b 1557 1229 1590 1203 1576 1219 b 1528 1236 1547 1233 1538 1236 b 1503 1238 1518 1238 1511 1238 b 1399 1236 1468 1238 1433 1238 b 1164 1224 1289 1233 1225 1228 b 950 1204 1103 1218 1046 1214 b 774 1185 888 1197 844 1196 b 426 1093 671 1168 546 1139 b 257 1011 367 1069 308 1043 b 186 957 231 994 207 976 b 156 926 175 947 165 936 b 132 892 147 915 139 904 b 100 782 111 858 100 819 b 129 676 99 744 111 707 b 193 594 147 646 171 619 b 240 531 214 572 239 539 b 232 526 238 529 235 528 b 215 513 231 526 221 519 b 207 458 203 499 199 476 b 247 424 214 440 231 428 b 260 419 251 422 256 421 l 268 418 b 276 418 271 418 274 418 b 276 406 278 415 276 410 b 274 376 276 396 275 386 b 267 349 272 367 269 357 l 264 342 b 263 336 264 340 263 338 b 263 329 263 335 263 332 b 264 314 263 325 263 319 b 82 -53 204 193 144 72 b 24 -231 53 -111 29 -172 b 26 -311 21 -260 22 -287 l 28 -315 l 29 -322 b 36 -335 31 -326 33 -331 b 56 -353 42 -342 49 -349 b 96 -360 69 -361 83 -362 z m 265 683 b 242 715 258 694 250 706 b 218 739 233 725 225 733 b 211 786 207 747 204 769 b 238 818 218 803 233 813 b 271 851 249 829 260 840 b 307 883 282 863 293 874 b 382 932 326 899 353 917 b 471 965 411 947 443 960 b 563 972 506 972 524 965 b 571 972 565 972 568 972 l 575 974 b 583 976 578 974 581 975 b 593 981 588 978 590 979 l 599 983 l 601 985 l 603 985 b 603 985 603 985 603 985 b 600 975 603 982 601 979 b 594 957 597 968 596 963 b 590 949 593 954 592 951 b 586 939 589 944 588 942 b 561 896 581 926 574 915 b 535 863 553 883 543 876 b 500 786 522 842 511 814 b 468 708 489 758 478 731 b 413 603 450 669 432 635 l 406 590 l 403 586 b 399 586 401 586 400 586 l 385 585 b 356 581 375 583 365 582 l 351 581 l 351 581 b 351 581 351 581 351 581 b 351 581 351 581 351 581 b 351 585 351 582 351 583 b 351 585 351 585 351 585 l 349 593 b 299 653 335 624 313 646 b 290 629 285 660 279 654 b 294 618 292 626 293 622 b 274 643 288 626 281 635 b 269 647 272 644 271 646 b 267 681 286 642 281 660 z m 289 892 b 261 872 275 882 267 876 b 297 896 272 881 285 889 b 289 892 294 894 292 893 z m 589 590 b 593 594 590 592 592 593 b 594 590 593 593 593 592 b 590 590 593 590 592 590 z m 1431 1143 b 1431 1143 1431 1143 1431 1143 b 1431 1143 1431 1143 1431 1143 b 1431 1143 1431 1143 1431 1143 z m 658 592 b 731 567 689 593 715 582 b 753 519 746 551 751 533 b 753 515 753 518 753 517 b 665 592 749 554 722 590 b 640 592 657 592 649 592 b 657 592 646 592 651 592 z "},"G":{"ha":1297,"x_min":0,"x_max":0,"o":"m 667 -235 b 661 -296 661 -260 660 -281 b 667 -324 663 -311 665 -321 b 671 -314 668 -326 669 -324 b 679 -264 672 -304 674 -287 b 713 -176 685 -240 696 -211 b 742 -111 722 -156 732 -133 b 738 -119 740 -114 739 -117 b 682 -319 713 -183 674 -249 b 697 -357 683 -335 689 -347 b 681 -332 688 -347 683 -337 b 675 -321 678 -325 676 -321 b 674 -329 674 -321 674 -324 b 679 -353 674 -335 675 -343 b 706 -383 683 -362 692 -375 b 760 -393 719 -392 739 -396 b 818 -364 779 -390 801 -381 b 857 -308 833 -349 846 -329 b 903 -175 878 -267 889 -219 b 949 -39 918 -129 933 -83 b 989 88 963 6 976 49 b 1021 189 1001 126 1013 161 b 1049 279 1028 215 1038 246 b 1065 332 1054 296 1060 314 b 1074 361 1068 342 1071 351 b 1081 382 1076 368 1078 375 l 1093 379 l 1099 378 b 1107 378 1101 378 1104 378 b 1147 381 1119 376 1133 376 b 1183 401 1161 385 1174 392 b 1206 436 1193 411 1201 422 b 1210 460 1208 443 1210 451 b 1204 481 1210 467 1207 475 b 1194 499 1201 486 1199 493 b 1181 514 1190 504 1186 510 b 1111 547 1160 532 1135 542 b 981 549 1063 557 1018 553 b 931 540 963 546 946 543 b 910 536 924 539 917 538 b 906 536 908 536 907 536 b 900 535 904 536 901 535 b 888 529 896 533 892 532 b 860 506 876 524 867 515 b 846 472 853 496 849 485 b 849 436 843 461 843 449 b 875 404 853 424 863 411 b 893 397 881 401 888 399 b 908 394 899 396 906 394 l 919 393 l 921 393 l 921 393 l 924 393 l 925 393 b 925 393 925 393 925 393 b 917 381 922 389 919 385 l 906 360 b 906 360 906 360 906 360 l 906 360 l 903 356 l 896 347 b 842 276 878 324 860 300 b 606 19 768 185 694 99 b 369 -153 539 -39 463 -104 b 296 -185 346 -165 321 -175 b 218 -204 271 -193 244 -200 b 136 -204 192 -207 164 -208 b 58 -178 108 -200 82 -192 b -24 -39 11 -150 -19 -96 b -19 44 -26 -11 -25 17 b 1 126 -14 72 -7 100 b 64 281 18 181 40 232 b 138 418 88 329 113 375 b 314 661 200 522 254 592 b 414 768 344 696 376 731 b 549 886 451 806 494 844 b 700 979 599 924 649 956 b 857 1022 751 1003 804 1019 l 876 1024 l 896 1022 b 917 1019 903 1021 910 1021 l 936 1015 b 999 979 961 1010 982 997 b 1043 833 1033 942 1047 886 b 1032 774 1042 813 1036 793 b 1028 760 1031 769 1029 764 b 1024 747 1026 756 1025 751 b 1015 718 1021 738 1017 728 b 1029 661 1013 697 1018 676 b 1071 631 1040 646 1056 636 b 1118 625 1086 625 1103 624 b 1160 640 1133 626 1147 633 b 1175 654 1165 644 1171 649 b 1188 671 1179 660 1183 665 l 1194 678 l 1200 686 b 1208 703 1203 692 1206 697 b 1240 853 1233 747 1242 797 b 1229 942 1240 881 1236 910 b 1192 1043 1221 974 1210 1007 b 1104 1154 1168 1089 1140 1125 b 1044 1193 1086 1169 1067 1182 b 967 1221 1022 1204 996 1214 b 685 1196 879 1242 779 1229 b 415 1046 589 1163 497 1110 b 39 608 251 917 125 750 b -76 393 -4 538 -43 465 b -161 172 -111 321 -140 247 b -192 -56 -182 97 -196 21 b -171 -169 -190 -94 -183 -133 b -111 -269 -158 -206 -137 -240 b -18 -337 -85 -299 -53 -321 b 90 -372 17 -354 53 -365 b 315 -347 167 -385 244 -372 b 694 -99 458 -297 581 -201 b 707 -86 699 -94 703 -90 b 683 -144 699 -107 690 -126 b 657 -226 672 -174 663 -201 z m 664 43 b 810 197 736 113 779 163 b 818 210 813 201 815 206 b 614 -1 756 135 690 64 b 610 -6 613 -3 611 -4 b 663 44 629 13 647 29 z "},"H":{"ha":957,"x_min":0,"x_max":0,"o":"m -11 506 b -15 506 -10 507 -11 507 b -33 494 -19 504 -26 501 b -47 465 -40 488 -46 478 b -35 421 -49 453 -47 436 b -10 404 -29 413 -19 407 b -1 404 -7 404 -4 404 l 1 404 b 10 404 4 404 7 404 b 36 403 18 404 26 404 b 32 393 35 400 33 397 b 22 376 29 389 29 389 b -7 319 13 358 3 339 b -64 201 -26 281 -46 240 b -150 -3 -101 122 -133 47 b -206 -142 -162 -40 -182 -89 b -242 -222 -217 -168 -229 -196 b -281 -304 -254 -249 -268 -276 b -306 -393 -293 -332 -303 -362 b -307 -418 -307 -401 -307 -410 b -307 -431 -307 -422 -307 -426 b -306 -443 -307 -435 -306 -439 b -283 -486 -301 -460 -293 -475 b -204 -522 -262 -510 -233 -524 b -167 -511 -190 -521 -178 -517 b -151 -501 -161 -508 -156 -504 b -143 -493 -149 -499 -146 -496 b -90 -414 -119 -469 -103 -442 b -60 -335 -78 -386 -68 -360 b -47 -297 -56 -322 -51 -310 b -33 -260 -42 -285 -37 -272 b -4 -187 -24 -235 -14 -211 b 108 99 32 -92 68 1 b 210 336 138 171 172 251 b 239 401 219 357 229 379 l 244 413 l 246 415 l 249 415 l 254 415 b 288 419 265 417 276 418 b 436 436 336 425 386 431 b 579 449 483 440 532 444 b 517 321 558 406 538 363 b 399 65 474 232 433 146 b 304 -181 357 -32 329 -104 b 296 -210 301 -190 299 -200 b 292 -226 294 -215 293 -221 b 289 -235 290 -229 289 -232 l 288 -243 b 311 -314 283 -267 292 -294 b 386 -349 329 -333 356 -346 b 410 -349 393 -350 401 -349 b 433 -340 418 -346 426 -344 b 474 -304 450 -333 464 -319 b 490 -264 482 -287 485 -276 b 503 -226 494 -251 499 -239 b 529 -153 513 -201 521 -176 b 579 -11 546 -104 563 -57 b 679 261 611 81 643 169 b 725 369 696 301 711 338 b 746 414 732 385 739 400 b 754 435 749 421 751 428 b 761 451 757 442 758 446 b 769 453 764 451 767 451 b 783 457 774 454 779 456 b 808 467 792 460 800 463 b 849 499 824 475 838 486 b 863 519 854 504 860 511 b 867 544 865 528 867 536 b 844 589 865 561 857 578 b 836 596 842 592 839 593 l 831 600 b 831 601 831 600 829 600 b 839 618 833 607 836 613 b 864 665 847 633 856 649 b 926 778 882 699 903 735 b 1057 992 971 856 1007 904 b 1110 1096 1075 1024 1093 1058 b 1122 1125 1114 1106 1118 1115 b 1126 1168 1128 1136 1131 1153 b 1063 1222 1119 1199 1093 1221 b 1019 1208 1047 1224 1031 1218 b 996 1179 1007 1197 1003 1189 b 956 1125 982 1161 968 1143 b 885 1010 931 1088 907 1049 b 753 781 840 932 796 854 b 692 672 732 743 711 707 b 667 626 683 657 675 642 b 658 625 665 625 661 625 l 647 624 b 619 619 638 622 628 621 b 407 594 547 611 476 603 b 332 585 382 590 357 588 b 332 588 331 585 332 586 l 333 590 l 336 597 l 343 610 b 364 647 350 622 357 635 b 410 735 379 676 394 706 b 460 818 426 763 443 790 b 563 983 494 874 529 928 b 611 1067 579 1011 596 1039 b 632 1110 618 1081 625 1094 b 642 1131 636 1117 639 1124 b 650 1156 644 1139 647 1144 b 636 1221 657 1176 651 1204 b 608 1239 628 1229 618 1235 b 575 1244 597 1243 586 1246 b 543 1235 564 1243 553 1240 b 521 1214 533 1229 525 1219 b 488 1178 510 1203 499 1190 b 269 850 403 1078 339 963 b 143 629 222 772 179 696 b 117 582 133 613 125 597 b 104 561 113 575 108 568 b 104 561 104 561 104 561 b 104 561 104 561 104 561 b 85 557 97 560 90 558 b 64 553 78 556 71 554 b 31 540 51 549 40 544 b -17 514 -10 525 -28 514 b 111 539 -6 514 33 525 l 119 540 b 122 542 121 540 122 540 l 125 544 l 133 558 b 144 575 136 564 140 569 b 124 538 138 563 131 550 b -14 500 76 528 31 515 b -36 478 -25 496 -32 488 b -25 499 -33 488 -29 494 b -17 507 -21 504 -17 506 z m -17 -119 b -33 -158 -24 -135 -29 -147 b 0 -75 -22 -131 -11 -103 b 74 97 24 -17 49 40 b 54 51 67 81 60 65 b -18 -119 19 -29 -3 -82 z "},"I":{"ha":468,"x_min":0,"x_max":0,"o":"m 433 1260 b 351 1254 404 1257 376 1254 l 342 1254 l 339 1254 l 335 1254 l 326 1254 b 310 1250 321 1253 315 1251 b 294 1240 304 1247 299 1244 b 268 1185 276 1225 269 1204 b 285 1129 267 1165 271 1146 b 310 1110 292 1121 300 1114 l 314 1108 l 317 1107 l 322 1106 l 332 1103 b 372 1092 344 1099 358 1094 l 375 1092 l 375 1092 l 376 1092 l 379 1092 l 385 1092 b 383 1085 385 1090 383 1088 l 382 1082 l 382 1081 l 382 1079 l 381 1078 b 372 1061 378 1072 375 1067 b 360 1028 368 1050 364 1039 b 331 958 350 1006 340 982 b 265 813 311 911 289 863 b 128 524 218 713 171 610 b -10 251 76 418 46 375 b -126 -61 -60 139 -92 43 b -162 -169 -142 -106 -153 -140 b -175 -211 -167 -185 -171 -199 b -182 -231 -178 -218 -181 -225 b -183 -247 -183 -237 -183 -242 b -211 -254 -190 -250 -200 -251 b -246 -264 -222 -257 -233 -260 b -283 -286 -257 -267 -274 -272 b -294 -337 -294 -299 -299 -318 b -271 -372 -290 -351 -282 -364 b -236 -386 -260 -381 -246 -383 b -165 -399 -215 -392 -193 -396 b -31 -404 -124 -403 -78 -404 b 42 -404 -7 -404 17 -404 b 119 -392 67 -403 93 -401 b 158 -367 133 -386 147 -379 b 178 -325 169 -356 176 -340 b 174 -281 179 -310 179 -294 b 147 -246 168 -267 158 -254 b 111 -228 136 -237 124 -232 b 76 -219 99 -224 88 -221 b 43 -217 65 -218 54 -217 b 26 -217 38 -217 32 -217 b 22 -217 25 -217 24 -217 b 28 -201 24 -212 26 -207 b 36 -181 31 -194 33 -187 b 56 -126 43 -162 50 -144 b 93 -22 68 -90 81 -56 b 171 175 118 46 144 111 b 347 557 225 303 281 428 b 406 747 436 736 489 900 b 376 694 396 731 386 713 b 435 815 396 735 415 775 b 443 832 438 821 440 826 b 483 872 432 790 453 818 b 532 972 499 900 517 935 b 551 1029 539 990 546 1010 b 558 1058 554 1039 557 1049 b 561 1069 560 1063 560 1065 b 615 1078 564 1069 599 1071 b 651 1101 626 1082 642 1089 b 668 1149 661 1114 668 1131 b 653 1200 667 1165 663 1183 b 611 1238 643 1217 628 1229 b 513 1257 578 1254 542 1257 b 444 1254 483 1257 460 1256 z m 413 1068 b 425 1100 417 1079 421 1090 b 417 1100 422 1100 419 1100 b 357 1115 393 1104 374 1110 b 319 1133 342 1121 328 1125 b 319 1133 319 1133 319 1133 b 333 1124 324 1129 328 1126 b 426 1097 364 1111 394 1103 b 410 1064 421 1086 415 1075 z "},"J":{"ha":817,"x_min":0,"x_max":0,"o":"m 803 682 b 853 921 828 757 850 835 b 846 1007 854 950 851 979 b 819 1083 840 1035 832 1061 b 738 1172 796 1129 761 1158 b 704 1183 714 1186 701 1190 b 760 1125 707 1176 729 1163 b 778 1099 767 1117 772 1108 b 697 1175 758 1128 732 1154 b 676 1185 690 1179 683 1182 b 688 1192 703 1175 704 1179 b 585 1233 671 1204 633 1225 b 507 1238 560 1238 533 1239 b 428 1224 481 1235 453 1231 b 310 1171 378 1210 336 1188 b 272 1149 299 1164 286 1157 b 232 1114 258 1140 242 1131 b 219 1056 222 1097 217 1076 b 247 1000 221 1035 231 1014 b 308 982 264 986 288 981 b 361 990 331 983 346 988 b 433 1004 392 997 417 1001 b 528 1013 467 1010 499 1014 b 599 989 557 1011 583 1004 b 617 961 607 982 613 972 b 621 943 618 956 619 950 l 622 933 l 624 922 b 618 835 626 894 624 865 b 576 686 611 790 596 739 b 544 604 567 660 556 632 b 536 583 542 597 539 590 l 532 575 l 531 571 b 526 571 529 571 528 571 l 507 563 b 486 554 500 560 493 557 b 176 381 374 504 265 440 b 43 289 122 344 83 318 b -89 174 4 260 -36 226 b -212 26 -137 125 -178 76 b -300 -132 -247 -24 -276 -75 b -332 -247 -318 -176 -328 -214 b -326 -336 -336 -281 -335 -310 b -275 -403 -318 -362 -301 -386 b -171 -426 -249 -418 -214 -429 b -22 -374 -114 -419 -76 -406 b 96 -281 17 -349 57 -315 b 214 -167 136 -246 176 -207 b 415 68 290 -86 360 -1 b 701 472 526 206 624 335 b 800 688 740 542 774 613 z m 636 986 b 632 1000 635 992 633 996 b 644 965 638 990 642 979 b 638 836 651 925 647 881 b 644 876 640 850 643 864 b 638 989 650 929 646 965 z m -176 -160 b -193 -214 -186 -189 -190 -204 b -189 -197 -192 -208 -190 -203 b -172 -144 -185 -179 -179 -161 b -176 -160 -174 -150 -175 -156 z m 26 -97 b -53 -183 -3 -124 -39 -160 b -79 -211 -58 -193 -68 -203 b -118 -239 -92 -221 -104 -231 b -156 -256 -131 -247 -144 -253 b -168 -257 -161 -257 -165 -257 b -168 -257 -168 -257 -168 -257 b -171 -257 -168 -257 -169 -257 b -168 -247 -169 -254 -168 -251 b -164 -231 -167 -242 -165 -236 b -149 -157 -161 -206 -156 -182 b -94 -26 -137 -119 -119 -72 b -6 94 -69 19 -37 63 b 103 186 33 133 57 144 b 215 290 146 224 178 257 b 282 346 246 317 264 332 b 350 385 300 358 318 369 b 379 397 361 390 369 394 b 393 401 383 399 388 400 b 406 406 397 403 404 406 b 440 422 417 410 425 414 b 429 396 438 415 435 407 b 399 344 426 390 410 363 b 140 32 318 218 236 129 b 100 -56 75 -35 36 -107 b 113 -43 104 -51 108 -47 b 79 -81 101 -56 90 -68 b 74 -89 78 -83 75 -86 b 31 -106 83 -65 60 -81 z "},"K":{"ha":892,"x_min":0,"x_max":0,"o":"m 149 -61 b 260 -167 193 -111 233 -146 b 292 -183 286 -187 299 -194 b 208 -89 285 -172 257 -144 b 167 -37 194 -72 181 -56 b 303 -179 210 -90 257 -137 b 332 -204 313 -187 322 -196 b 331 -204 332 -204 331 -204 b 313 -206 292 -176 290 -181 b 449 -317 336 -231 385 -274 b 500 -350 465 -328 482 -339 b 553 -382 517 -361 535 -372 b 675 -429 590 -403 631 -422 b 742 -426 697 -432 719 -432 b 796 -389 765 -421 783 -406 b 814 -333 808 -372 815 -353 b 796 -286 814 -314 806 -297 b 668 -204 767 -253 719 -228 b 590 -164 642 -192 615 -179 b 514 -115 564 -149 539 -132 b 386 -8 465 -81 421 -43 b 307 79 351 26 325 58 b 200 208 269 122 235 167 b 197 213 199 210 197 211 l 206 217 b 272 258 228 231 250 244 b 522 444 360 315 440 376 b 917 833 643 544 786 681 b 1014 949 950 871 983 908 b 1086 1079 1044 989 1071 1032 b 1092 1115 1090 1090 1093 1103 b 1075 1147 1090 1128 1083 1139 b 1010 1174 1058 1165 1033 1174 b 975 1165 997 1174 986 1171 b 961 1157 969 1163 965 1160 b 949 1147 957 1154 953 1151 b 899 1103 931 1133 914 1118 b 807 994 861 1064 833 1028 b 728 903 781 961 756 932 b 528 700 672 844 614 785 b 301 490 449 622 375 554 b 203 406 268 461 236 433 b 169 376 192 396 181 386 b 160 371 164 372 153 360 b 168 392 163 378 165 385 b 181 424 172 403 176 414 b 197 463 186 438 192 450 b 233 542 210 492 222 518 b 294 669 256 590 275 631 b 353 789 314 708 332 746 b 431 940 374 832 400 879 b 482 1050 450 981 467 1014 b 519 1176 497 1086 511 1125 l 521 1183 b 521 1193 521 1186 521 1190 b 517 1213 521 1200 519 1207 b 496 1244 513 1225 506 1236 b 461 1263 486 1253 475 1260 b 418 1253 447 1265 431 1263 b 410 1244 415 1250 413 1247 b 401 1236 407 1242 404 1239 b 393 1222 399 1231 396 1226 b 376 1193 388 1213 382 1203 b 350 1135 367 1174 358 1154 b 296 1015 332 1094 317 1054 b 238 896 276 976 257 936 b 176 776 218 856 197 815 b 117 661 156 738 136 699 b 10 449 78 586 42 514 b -162 68 -54 318 -111 192 b -237 -114 -189 7 -212 -54 b -275 -203 -250 -144 -262 -174 b -308 -296 -287 -232 -300 -262 b -317 -347 -312 -312 -315 -329 b -310 -401 -317 -365 -317 -382 b -274 -449 -304 -419 -292 -437 b -215 -461 -256 -460 -235 -464 b -161 -437 -196 -458 -176 -450 b -126 -396 -146 -425 -136 -411 b -87 -303 -108 -365 -97 -333 b -58 -212 -78 -271 -69 -242 b -25 -121 -47 -182 -36 -151 b 8 -29 -14 -90 -3 -60 b 44 63 19 1 32 32 b 47 68 49 71 47 68 b 47 68 47 68 47 68 b 47 68 47 68 47 68 b 47 68 47 68 47 68 l 51 60 b 60 47 54 56 57 51 b 76 22 65 39 71 31 b 143 -62 99 -10 121 -37 z m 306 315 b 288 304 299 311 293 307 b 508 463 364 353 438 406 b 457 422 490 447 472 433 b 306 315 388 369 340 338 z "},"L":{"ha":408,"x_min":0,"x_max":0,"o":"m 499 -468 b 579 -440 529 -465 558 -456 b 596 -426 585 -436 590 -432 b 607 -410 600 -421 604 -415 b 619 -381 614 -400 618 -390 b 615 -339 624 -361 619 -346 b 608 -333 611 -331 608 -329 b 607 -365 608 -337 611 -349 b 597 -393 606 -374 603 -383 b 571 -419 592 -403 583 -412 b 549 -429 564 -424 556 -426 b 532 -433 543 -431 538 -432 b 576 -411 547 -429 563 -422 b 599 -337 597 -394 611 -362 b 586 -315 594 -329 590 -322 b 597 -329 592 -321 594 -326 b 603 -333 600 -332 601 -333 b 600 -315 606 -333 604 -326 b 588 -296 597 -310 593 -303 b 567 -274 582 -289 575 -281 b 499 -237 549 -258 525 -246 b 414 -221 472 -229 443 -224 b 328 -212 385 -218 357 -215 b 183 -215 271 -208 218 -210 b 68 -225 153 -219 113 -222 b -1 -229 46 -226 22 -228 l -19 -231 l -26 -231 l -32 -231 b -50 -231 -39 -231 -44 -231 b -42 -215 -47 -225 -44 -219 l -39 -210 l -37 -207 b -35 -203 -37 -207 -36 -204 b -17 -157 -28 -186 -22 -171 b 10 -89 -6 -129 4 -106 b 89 122 38 -12 64 56 b 167 321 114 189 139 253 b 321 669 207 419 260 544 b 418 853 351 732 383 794 b 521 1018 453 911 489 967 b 572 1100 540 1049 557 1075 b 593 1138 579 1113 586 1125 b 601 1154 596 1143 599 1149 b 610 1176 604 1160 608 1168 b 589 1224 613 1193 604 1213 b 535 1233 575 1235 556 1239 b 507 1218 525 1231 515 1225 b 488 1199 501 1213 494 1206 b 447 1153 475 1185 461 1169 b 325 974 397 1092 360 1032 b 224 799 290 915 258 858 b 114 594 171 704 142 647 b 14 410 86 542 60 492 b -72 258 -17 356 -40 321 b -214 -65 -119 167 -171 53 b -271 -240 -235 -124 -254 -183 b -279 -278 -274 -253 -276 -265 b -289 -283 -279 -282 -285 -282 b -306 -287 -294 -285 -300 -286 b -381 -317 -332 -297 -357 -307 b -511 -393 -428 -337 -472 -362 l -525 -404 l -535 -412 b -543 -421 -537 -415 -540 -418 b -547 -465 -553 -433 -554 -451 b -508 -486 -540 -479 -524 -487 b -468 -483 -490 -486 -481 -485 b -201 -436 -374 -472 -287 -447 b 58 -418 -115 -424 -29 -418 b 322 -443 144 -419 233 -429 b 501 -469 379 -454 442 -474 z m 76 165 b 142 319 97 217 119 268 b 126 285 136 307 131 294 b 76 165 103 229 88 192 z "},"M":{"ha":1535,"x_min":0,"x_max":0,"o":"m 1578 938 b 1624 1053 1597 982 1613 1021 b 1643 1125 1635 1085 1640 1110 b 1642 1138 1646 1140 1646 1144 b 1618 1081 1638 1131 1631 1111 b 1558 951 1606 1050 1586 1007 b 1511 854 1543 919 1526 888 b 1631 1144 1553 949 1607 1046 b 1633 1199 1635 1164 1636 1182 b 1638 1143 1640 1164 1635 1146 b 1647 1182 1639 1140 1646 1154 b 1639 1233 1647 1196 1646 1214 b 1592 1289 1632 1253 1617 1275 b 1506 1299 1567 1303 1535 1306 b 1419 1265 1476 1292 1447 1281 b 1261 1150 1364 1236 1311 1194 b 1121 1008 1211 1106 1164 1057 b 924 764 1039 917 971 828 b 979 914 942 810 961 860 b 1010 1044 993 956 1006 999 b 1008 1114 1013 1067 1013 1090 b 971 1178 1004 1138 993 1163 b 901 1197 950 1193 924 1197 b 835 1188 878 1197 856 1193 b 722 1140 793 1176 756 1158 b 575 1042 657 1104 608 1067 b 353 819 488 974 415 897 b 332 794 346 811 339 803 b 388 933 350 840 368 886 b 458 1117 411 990 435 1051 b 467 1142 461 1125 464 1133 l 468 1144 l 469 1149 b 472 1157 471 1151 472 1154 b 469 1176 472 1164 471 1171 b 450 1207 467 1189 460 1199 b 414 1219 440 1214 428 1219 b 378 1203 400 1219 386 1213 b 369 1190 374 1197 372 1194 l 363 1179 b 333 1133 353 1164 343 1149 b 122 718 256 1006 186 864 b -58 278 58 572 -3 424 b -137 64 -86 206 -111 133 b -211 -137 -164 -6 -190 -72 b -239 -240 -222 -174 -232 -207 b -247 -289 -243 -257 -247 -272 b -232 -333 -247 -306 -242 -321 b -150 -367 -212 -358 -181 -369 b -107 -353 -135 -367 -119 -361 b -85 -329 -97 -347 -90 -339 l -83 -331 l -78 -319 b -74 -307 -76 -315 -75 -311 l -83 -308 b -83 -308 -83 -308 -83 -308 l -74 -307 b -74 -307 -74 -307 -74 -307 b -8 -115 -49 -247 -29 -185 b 26 6 3 -78 14 -37 b 49 74 33 28 40 50 b 51 81 50 76 51 79 l 56 89 b 64 106 58 94 61 100 b 81 140 69 117 75 128 b 333 557 161 296 244 432 b 642 894 422 682 519 797 b 778 986 689 932 735 963 b 790 994 782 989 786 992 b 803 999 794 996 799 997 b 828 1008 811 1003 819 1006 b 831 1010 829 1008 831 1010 l 831 1007 l 829 1001 b 825 989 828 997 826 993 b 817 967 822 981 819 974 b 813 954 815 963 814 958 b 808 942 811 950 810 946 b 796 914 804 932 800 922 b 774 863 788 896 781 879 b 731 765 758 829 744 797 b 643 574 703 703 676 642 b 528 328 610 504 569 428 b 493 235 514 294 503 264 l 492 235 l 489 235 l 492 232 b 483 211 489 225 486 218 l 478 192 l 486 193 b 504 142 488 175 494 157 b 560 97 517 122 535 106 b 600 96 572 93 586 93 b 619 103 607 97 614 99 b 638 117 626 106 632 111 b 650 132 643 121 646 126 b 661 149 654 138 657 143 b 682 183 668 160 675 171 b 760 353 711 236 736 293 l 764 364 b 767 372 765 368 767 372 b 779 393 771 379 775 386 b 807 435 788 407 797 421 b 867 514 826 461 846 488 b 1138 832 949 621 1042 728 b 1282 983 1185 885 1232 936 b 1414 1090 1329 1029 1397 1082 b 1426 1096 1418 1093 1422 1094 l 1429 1097 l 1431 1099 b 1431 1097 1431 1099 1431 1097 l 1428 1090 b 1415 1063 1424 1081 1419 1071 b 1403 1033 1411 1053 1407 1043 b 1386 996 1397 1021 1392 1008 b 1311 831 1360 939 1335 883 b 1067 218 1219 619 1139 417 b 969 -81 1031 118 997 19 b 933 -231 956 -131 943 -181 b 921 -306 928 -256 925 -281 l 915 -343 b 913 -381 914 -356 914 -368 l 911 -399 b 910 -403 911 -400 911 -401 b 906 -414 908 -406 907 -410 b 906 -461 901 -428 900 -444 b 911 -472 907 -465 910 -469 b 915 -481 913 -475 914 -478 b 928 -499 919 -487 924 -493 b 964 -526 938 -510 950 -519 b 1010 -535 978 -533 994 -536 b 1053 -524 1025 -533 1039 -529 b 1111 -456 1081 -511 1103 -483 b 1121 -415 1117 -442 1119 -428 b 1125 -378 1122 -403 1124 -390 l 1133 -303 b 1144 -231 1136 -278 1139 -254 b 1160 -158 1149 -206 1154 -182 b 1250 131 1183 -61 1215 35 b 1358 422 1285 226 1321 324 b 1504 796 1411 556 1461 685 b 1567 943 1525 850 1547 899 z m 197 574 l 197 574 b 197 574 197 574 197 574 b 197 574 197 574 197 574 b 197 574 197 574 197 574 b 197 574 197 574 197 574 l 197 574 b 197 574 197 574 197 574 b 197 574 197 574 197 574 z m 257 717 b 358 954 290 796 325 875 b 317 856 343 918 329 885 b 258 718 294 803 275 757 b 254 714 257 717 256 715 z "},"N":{"ha":1053,"x_min":0,"x_max":0,"o":"m 1088 1176 b 1044 1208 1074 1190 1058 1200 b 1003 1224 1029 1215 1015 1221 b 947 1226 978 1229 958 1228 b 939 1222 936 1225 933 1224 b 983 1215 944 1221 960 1221 b 1068 1164 1006 1210 1039 1197 b 1097 1108 1082 1149 1092 1129 b 935 1211 1075 1175 1011 1215 b 897 1207 922 1211 910 1210 b 935 1218 921 1214 933 1215 b 907 1219 936 1219 926 1221 b 828 1203 888 1218 860 1214 b 722 1153 796 1192 760 1175 b 581 1050 675 1125 626 1089 b 592 1065 585 1056 589 1061 b 642 1153 611 1092 629 1121 b 649 1211 649 1171 651 1192 b 625 1264 646 1231 638 1249 b 578 1299 613 1279 596 1292 b 518 1301 560 1306 538 1307 b 504 1296 513 1300 508 1297 b 492 1290 500 1294 496 1293 l 481 1283 l 471 1276 b 438 1244 458 1267 447 1256 b 342 1100 397 1199 371 1147 b 254 953 313 1051 283 1003 b -19 408 167 806 69 611 b -246 -189 -108 206 -189 -6 b -269 -268 -254 -217 -262 -243 b -281 -304 -274 -281 -278 -293 b -289 -340 -283 -317 -286 -329 b -293 -360 -290 -347 -292 -354 b -296 -378 -294 -367 -296 -372 b -272 -403 -294 -390 -283 -400 b -239 -396 -261 -407 -247 -404 b -221 -362 -232 -387 -226 -376 b -160 -233 -201 -322 -182 -281 b -86 -75 -137 -187 -114 -136 l -85 -71 b -83 -68 -85 -69 -85 -69 l -76 -58 b -64 -37 -72 -51 -68 -44 b -39 0 -56 -25 -47 -12 b 6 74 -24 25 -8 50 b 92 213 35 122 63 168 b 272 476 150 303 208 389 b 496 765 374 614 433 694 b 599 869 528 801 560 835 b 747 979 638 904 683 942 b 868 1032 790 1003 828 1017 b 897 1040 878 1036 888 1039 b 908 1042 903 1042 906 1042 b 917 1042 911 1042 914 1042 b 925 1040 919 1042 924 1043 b 924 1032 925 1038 924 1035 b 919 1024 922 1029 921 1026 b 914 1007 918 1018 917 1013 b 860 894 901 971 881 933 b 829 833 850 875 839 854 b 800 769 819 813 810 792 b 682 503 763 683 722 593 b 488 -14 604 322 535 138 b 422 -239 463 -90 440 -165 l 415 -267 b 411 -281 414 -271 413 -275 b 408 -297 410 -286 408 -292 b 426 -358 406 -318 413 -342 b 481 -390 440 -375 460 -385 b 542 -387 501 -394 522 -394 b 592 -353 561 -382 579 -369 b 608 -325 599 -344 604 -335 b 613 -311 610 -321 611 -315 l 615 -299 b 643 -194 624 -264 633 -229 b 708 6 663 -126 685 -60 b 868 393 757 138 811 265 b 956 586 897 457 926 521 b 1001 685 971 618 986 651 b 1047 783 1017 718 1031 750 b 1108 919 1069 828 1092 874 b 1135 1060 1125 965 1136 1013 b 1085 1181 1133 1108 1113 1153 z m 415 1175 b 428 1192 419 1181 424 1186 b 363 1090 404 1160 383 1124 b 332 1040 351 1074 342 1057 b 417 1172 369 1100 396 1142 z "},"O":{"ha":1024,"x_min":0,"x_max":0,"o":"m 294 940 b 108 711 224 867 160 783 b 33 600 78 667 56 635 b -36 471 11 565 -11 528 b -89 319 -60 418 -76 368 b -119 174 -101 271 -111 224 b -132 3 -132 94 -132 47 b -131 -31 -132 -8 -132 -19 b -128 -65 -131 -42 -129 -53 b -122 -104 -126 -78 -124 -90 b -110 -150 -118 -118 -115 -133 b -99 -181 -107 -161 -103 -171 l -96 -187 b -96 -192 -96 -189 -96 -190 b -92 -207 -94 -196 -93 -201 b -67 -272 -87 -228 -81 -249 b 28 -362 -47 -307 -15 -342 b 169 -385 71 -385 122 -389 b 303 -346 217 -379 263 -365 b 407 -281 343 -326 378 -303 b 564 -135 467 -236 518 -186 b 686 24 610 -83 650 -31 b 881 367 760 132 824 243 b 950 578 919 451 943 535 b 918 549 957 621 949 622 b 904 515 914 538 910 526 b 936 613 915 547 926 579 b 940 629 938 618 939 624 b 982 703 935 582 958 629 b 1008 828 993 740 1004 785 b 1007 938 1014 871 1013 911 b 1000 971 1004 947 1001 958 b 990 1011 996 983 994 997 b 953 1099 983 1040 969 1071 b 924 1136 943 1111 935 1125 b 907 1153 918 1142 913 1147 b 890 1165 901 1157 896 1161 b 882 1174 888 1168 885 1171 b 874 1178 879 1175 876 1176 b 857 1186 868 1181 863 1183 b 831 1197 847 1192 838 1194 b 738 1208 799 1207 767 1211 b 653 1192 707 1206 679 1200 b 508 1121 600 1175 554 1150 b 292 940 440 1078 363 1014 z m 357 514 b 340 488 351 504 346 496 b 276 389 310 440 290 410 b 356 515 301 432 328 474 z m 393 -39 b 389 -25 408 -15 404 -14 b 311 -89 374 -36 346 -61 b 193 -164 276 -117 235 -147 b 138 -174 172 -172 153 -176 b 115 -165 129 -172 121 -169 b 111 -161 114 -164 113 -162 b 107 -157 110 -160 108 -158 b 100 -149 104 -154 101 -151 b 92 -69 88 -133 85 -101 b 125 31 97 -36 111 -3 b 197 186 151 97 183 157 b 378 514 256 311 311 407 b 417 576 390 533 403 554 b 438 610 424 588 431 599 b 450 626 442 615 446 621 b 463 644 454 632 458 638 l 468 656 b 472 668 469 660 471 664 b 476 693 475 676 475 685 b 463 740 476 710 472 726 b 425 772 453 754 440 765 b 376 781 410 779 393 782 b 332 764 360 779 344 772 b 300 732 319 754 310 743 b 242 664 279 710 260 688 b 146 528 206 618 174 571 b 61 394 111 475 86 436 b 4 290 43 364 25 332 b 71 463 29 371 50 418 b 167 615 94 508 118 551 b 265 725 199 657 225 682 b 365 825 294 757 328 792 b 485 925 403 858 443 893 b 615 1008 526 957 571 986 b 682 1036 638 1019 660 1029 b 744 1047 704 1043 725 1047 b 794 1029 764 1047 782 1040 b 819 982 807 1017 815 1000 b 818 865 828 944 824 904 b 754 646 806 789 781 717 b 556 238 701 504 638 371 b 415 26 500 146 443 67 b 403 -4 401 6 396 -6 b 461 46 410 -3 429 11 b 486 74 469 54 478 64 b 411 -14 463 43 438 14 b 396 -29 407 -18 401 -24 z m 633 1169 b 633 1169 633 1169 633 1169 b 524 1117 596 1156 558 1136 b 547 1131 532 1122 540 1126 b 632 1169 586 1151 613 1163 z "},"P":{"ha":1111,"x_min":0,"x_max":0,"o":"m 47 515 b -194 22 -32 353 -112 194 b -307 -268 -250 -96 -292 -210 b -268 -225 -322 -326 -314 -328 b -247 -179 -261 -210 -254 -194 b -300 -312 -265 -224 -283 -268 b -300 -336 -303 -321 -303 -329 b -307 -311 -307 -322 -304 -312 b -311 -314 -308 -310 -310 -311 b -314 -321 -312 -315 -314 -318 b -315 -331 -315 -324 -315 -326 b -306 -357 -315 -339 -312 -349 b -269 -376 -299 -365 -286 -375 b -244 -371 -261 -376 -253 -375 b -233 -362 -240 -368 -236 -365 b -225 -353 -231 -360 -226 -356 b -203 -321 -218 -343 -210 -332 b -49 -37 -143 -231 -75 -104 b -14 36 -40 -17 -28 8 b 10 79 -7 50 1 64 l 15 90 b 21 100 18 94 19 99 b 38 121 26 107 32 114 b 101 203 58 149 81 176 b 117 219 107 208 113 214 b 125 228 119 222 122 225 b 133 236 128 231 131 233 l 136 239 l 138 240 b 138 239 138 240 138 239 b 142 228 139 233 140 231 l 142 226 l 144 222 b 149 215 146 219 147 217 b 160 204 153 211 157 207 b 219 168 178 188 199 176 b 281 150 240 160 261 154 b 397 143 321 143 360 142 b 619 194 475 144 549 164 b 783 288 672 217 728 249 b 939 429 838 328 892 375 b 1156 781 1036 536 1110 665 b 1204 963 1183 851 1197 904 b 1201 1056 1207 992 1207 1022 b 1188 1110 1199 1072 1194 1090 b 1153 1165 1179 1128 1168 1147 b 1049 1228 1124 1197 1086 1218 b 938 1235 1011 1238 974 1239 b 739 1160 865 1225 800 1197 b 629 1076 692 1129 657 1101 b 556 1007 600 1051 578 1029 b 449 892 522 972 490 939 b 525 1039 472 936 499 986 b 546 1081 532 1053 539 1067 b 558 1101 550 1088 554 1094 l 567 1117 l 569 1124 b 576 1181 578 1140 581 1161 b 547 1231 572 1200 561 1218 b 440 1256 518 1256 478 1265 b 394 1225 422 1250 406 1239 b 381 1201 389 1218 385 1210 b 371 1181 376 1194 374 1188 b 301 1025 346 1125 322 1072 b 54 508 215 838 135 671 z m 1029 1038 b 1025 1042 1028 1039 1026 1040 b 1038 968 1038 1024 1040 997 b 1038 988 1038 975 1038 982 b 1026 1038 1038 1013 1032 1028 z m 629 872 b 638 881 632 875 635 878 b 685 897 625 856 651 871 b 778 983 718 924 760 960 b 856 1029 792 1001 824 1019 b 932 1040 888 1039 918 1040 b 953 1042 939 1042 946 1042 b 971 1042 960 1042 965 1042 b 996 1033 982 1040 990 1038 b 1013 974 1007 1025 1014 1000 b 983 825 1013 933 1001 879 b 911 678 965 771 939 718 b 861 622 893 653 878 638 b 804 567 844 607 828 590 b 679 457 760 525 724 490 b 600 406 644 431 622 417 b 518 378 578 394 556 386 b 450 371 493 372 476 374 b 364 369 424 368 394 367 b 317 376 349 371 332 374 b 296 381 310 378 303 379 b 293 381 294 381 294 381 l 288 383 l 282 386 l 278 388 b 274 388 276 388 275 388 l 274 388 b 269 392 272 389 271 390 b 264 394 267 393 265 393 b 251 397 260 396 256 397 l 250 397 b 249 397 250 397 249 397 l 250 400 b 254 404 251 401 253 403 b 258 408 256 406 257 407 b 263 417 260 411 261 414 b 556 750 360 547 449 646 b 635 843 592 786 622 822 b 606 843 647 864 642 869 b 589 831 600 839 594 835 b 631 871 603 844 617 858 z m 447 169 b 442 169 444 169 443 169 b 615 211 501 175 560 190 b 578 196 601 206 589 200 b 449 168 519 176 478 171 z "},"Q":{"ha":1026,"x_min":0,"x_max":0,"o":"m 989 1081 b 901 1176 968 1118 939 1151 b 772 1217 864 1201 818 1215 b 611 1181 710 1218 654 1200 b 513 1124 567 1161 533 1139 b 490 1097 492 1107 483 1097 b 564 1128 497 1097 519 1108 b 599 1143 575 1133 586 1139 b 496 1086 563 1126 528 1106 b 475 1074 489 1082 482 1078 b 475 1074 475 1074 475 1074 b 475 1088 497 1093 494 1096 b 383 1032 456 1079 421 1060 b 269 932 346 1004 304 968 b 189 833 235 896 206 860 b 71 671 163 792 114 732 b -25 518 28 610 -10 549 b -96 328 -57 453 -79 390 b -133 140 -112 267 -125 206 b -128 -71 -140 79 -143 6 b -119 -100 -125 -81 -122 -90 b -111 -129 -117 -110 -114 -119 b -99 -158 -107 -139 -103 -149 b -86 -183 -94 -167 -90 -175 b -82 -196 -85 -186 -83 -192 b -78 -208 -81 -200 -79 -204 b -65 -236 -74 -218 -69 -228 b -50 -261 -61 -244 -56 -253 b -42 -272 -47 -265 -44 -269 b -33 -281 -39 -275 -36 -278 b -64 -335 -44 -294 -57 -315 b -72 -365 -68 -344 -71 -354 b -68 -397 -74 -376 -74 -387 b -15 -421 -57 -415 -35 -425 b 10 -406 -6 -419 4 -414 b 15 -392 13 -401 14 -396 b 24 -381 18 -387 21 -383 b 63 -360 35 -369 49 -364 b 82 -354 69 -357 76 -356 b 100 -358 88 -354 93 -357 b 176 -364 126 -364 151 -365 b 214 -361 189 -364 201 -362 b 235 -357 221 -360 228 -358 b 243 -354 238 -357 240 -356 b 251 -350 246 -353 249 -351 b 256 -349 253 -349 254 -349 b 264 -353 258 -350 261 -351 b 285 -358 271 -354 278 -356 b 331 -375 299 -362 314 -368 b 410 -424 360 -389 386 -406 b 442 -453 421 -433 432 -443 b 471 -485 451 -462 461 -474 b 542 -547 489 -508 511 -533 b 592 -557 557 -554 574 -558 b 638 -537 608 -556 625 -549 b 667 -474 658 -519 665 -494 b 658 -419 668 -453 664 -435 b 613 -344 646 -387 629 -365 b 554 -286 594 -324 576 -306 b 517 -257 543 -276 531 -267 b 494 -240 510 -251 503 -246 b 482 -232 490 -237 486 -235 b 474 -228 479 -231 476 -229 b 460 -219 468 -225 464 -222 b 468 -212 461 -217 465 -214 b 476 -206 471 -210 474 -208 l 485 -200 l 489 -197 l 494 -193 b 544 -149 510 -181 526 -167 b 726 104 608 -83 672 8 b 860 382 781 200 826 300 b 947 621 894 464 922 543 b 1006 854 971 699 994 775 b 1008 974 1011 893 1013 933 b 972 1093 1004 1014 993 1056 z m 167 -182 b 206 -171 182 -179 194 -175 b 263 -139 229 -160 247 -149 b 299 -114 278 -129 289 -121 b 307 -110 301 -112 304 -111 b 167 -186 263 -146 211 -179 z m 739 619 b 642 368 707 535 661 425 b 549 197 628 322 590 256 b 442 64 508 139 463 89 b 310 -72 397 13 354 -32 b 242 -128 288 -92 265 -111 b 167 -165 218 -144 193 -160 b 114 -156 147 -169 128 -168 b 99 -131 107 -150 101 -142 b 94 -94 96 -119 94 -107 b 131 74 96 -42 115 17 b 192 242 147 131 168 188 b 269 390 215 296 242 346 b 360 518 303 444 331 481 b 407 579 375 538 390 557 b 433 614 415 590 424 601 b 447 635 438 621 442 628 b 456 644 450 638 453 640 b 464 657 458 649 461 653 b 475 713 472 674 478 693 b 450 764 472 732 463 750 b 350 789 424 790 383 800 l 338 785 l 326 778 b 306 761 318 774 313 767 b 275 728 294 750 285 739 b 219 660 256 706 238 683 b 111 492 164 585 138 536 b 25 331 86 446 63 403 b 13 306 21 322 17 314 b 17 322 14 311 15 317 b 114 533 44 401 79 475 b 431 885 201 681 310 794 b 619 1001 490 931 553 972 b 669 1021 636 1008 653 1015 b 694 1028 678 1024 686 1025 b 719 1031 703 1029 711 1031 b 763 1025 736 1032 751 1031 b 786 996 774 1019 781 1010 b 796 931 793 978 796 954 b 792 864 796 907 794 885 b 775 761 786 821 779 785 b 776 728 771 736 771 724 b 807 797 782 732 793 753 b 818 835 811 810 815 822 b 790 719 810 790 799 749 b 785 699 789 713 786 706 b 736 613 792 753 768 696 z m -93 282 b -89 290 -92 285 -90 288 b -122 136 -101 243 -114 190 b -118 172 -121 149 -119 161 b -92 282 -108 225 -99 258 z "},"R":{"ha":1128,"x_min":0,"x_max":0,"o":"m 1181 1142 b 1142 1189 1169 1160 1156 1175 b 1050 1239 1113 1215 1079 1231 b 974 1247 1021 1247 994 1249 b 929 1242 953 1247 938 1244 b 922 1236 921 1239 918 1238 b 957 1233 926 1235 938 1235 b 1038 1218 976 1232 1004 1229 b 1086 1194 1054 1213 1071 1204 b 921 1225 1039 1222 979 1232 b 892 1221 911 1224 901 1222 b 896 1235 928 1232 925 1236 b 743 1189 865 1233 806 1221 b 561 1056 681 1157 615 1107 b 438 914 507 1004 464 951 b 415 883 431 904 424 894 b 485 1006 439 925 463 967 b 538 1096 504 1039 522 1069 b 550 1115 542 1103 546 1110 b 560 1135 553 1121 557 1128 b 565 1178 565 1150 567 1165 b 547 1226 564 1196 557 1213 b 511 1260 538 1240 525 1251 b 418 1272 483 1275 450 1281 b 375 1249 403 1268 388 1260 b 346 1211 363 1238 353 1225 b 317 1149 336 1190 326 1169 b 204 896 278 1064 242 982 b -206 -35 92 640 -75 250 b -303 -251 -244 -122 -274 -185 b -324 -303 -310 -268 -317 -285 l -325 -306 l -326 -310 b -328 -318 -328 -312 -328 -315 b -324 -337 -328 -325 -326 -332 b -296 -367 -318 -350 -310 -360 b -251 -362 -282 -374 -264 -374 b -243 -354 -249 -360 -246 -357 b -240 -350 -242 -353 -240 -351 l -237 -346 b -229 -329 -235 -340 -232 -335 b -187 -264 -215 -308 -201 -287 b -57 -33 -137 -183 -96 -107 b -1 76 -37 4 -19 40 l 11 103 l 28 128 l 39 146 l 44 154 l 47 158 l 49 161 l 50 163 b 50 163 50 163 50 163 b 58 146 53 157 56 151 b 67 132 61 140 64 136 b 79 111 71 125 75 118 b 104 72 88 97 96 85 b 150 7 119 47 135 26 b 235 -87 179 -31 207 -60 b 322 -171 263 -115 290 -142 b 442 -267 354 -200 392 -232 b 489 -297 458 -278 474 -287 b 531 -326 503 -307 517 -317 b 632 -386 560 -346 589 -367 b 686 -403 649 -393 667 -399 b 700 -404 690 -404 694 -404 l 707 -406 b 715 -406 710 -406 713 -406 b 751 -389 728 -404 742 -399 b 769 -353 761 -379 768 -367 b 758 -312 771 -339 767 -324 b 733 -289 749 -300 742 -296 b 708 -271 725 -282 717 -276 b 604 -212 675 -249 639 -231 b 556 -182 588 -203 571 -193 b 532 -165 547 -176 539 -171 b 510 -146 525 -160 517 -153 b 344 18 449 -96 393 -40 b 279 106 321 47 299 76 b 251 147 269 119 260 133 b 243 161 249 153 246 157 b 238 174 240 165 239 169 b 233 182 236 176 235 179 l 231 186 b 235 185 232 186 233 185 b 260 178 243 182 251 179 l 267 176 l 278 175 b 303 171 286 174 294 172 b 396 168 335 168 365 167 b 574 200 458 169 518 182 b 733 274 631 219 683 244 b 874 374 783 303 831 336 b 1093 632 960 447 1033 535 b 1169 788 1122 681 1149 732 b 1211 963 1190 842 1207 900 b 1201 1090 1215 1006 1213 1050 b 1176 1150 1196 1111 1188 1132 z m 906 743 b 840 635 882 708 851 663 b 779 567 832 613 807 586 b 710 522 751 546 722 531 b 564 426 656 486 614 456 b 422 369 526 406 478 381 b 338 363 394 364 365 361 b 297 369 324 364 310 367 b 278 374 290 371 283 372 b 260 381 271 375 265 376 b 256 385 258 382 257 383 l 253 386 b 253 386 253 386 253 386 b 253 386 253 386 253 386 b 253 386 253 386 253 386 b 224 404 240 397 231 401 l 221 406 l 225 408 l 232 415 b 244 428 236 419 240 424 b 251 436 246 429 249 433 b 260 444 254 439 257 442 b 279 467 265 451 272 458 b 379 606 319 515 346 560 b 493 744 431 676 438 690 b 547 792 511 763 526 772 b 649 893 578 821 613 857 b 753 988 685 929 721 964 b 851 1044 785 1011 818 1031 b 951 1065 885 1058 919 1067 b 976 917 1019 1065 1000 981 b 938 804 958 871 942 828 b 965 815 932 782 940 778 b 974 832 968 821 971 826 b 949 781 964 811 956 793 b 944 772 947 778 946 775 b 906 743 949 800 929 778 z m 636 442 b 576 410 617 431 597 419 b 589 417 581 413 585 415 b 635 442 611 428 625 436 z "},"S":{"ha":1018,"x_min":0,"x_max":0,"o":"m 1165 1086 l 1161 1100 b 1156 1113 1160 1104 1157 1108 b 1150 1125 1154 1117 1153 1121 l 1143 1138 b 1065 1208 1124 1171 1094 1194 b 983 1231 1036 1222 1008 1228 b 950 1232 971 1232 960 1232 b 922 1231 940 1232 931 1232 b 886 1224 906 1229 893 1226 b 882 1218 879 1221 878 1219 b 913 1215 886 1217 896 1217 b 979 1207 928 1214 950 1213 b 1026 1192 994 1203 1011 1199 b 882 1206 982 1208 931 1213 b 857 1201 874 1204 865 1203 b 861 1215 888 1211 885 1215 b 732 1197 836 1215 788 1210 b 556 1139 676 1185 613 1164 b 419 1064 499 1115 450 1086 b 221 919 371 1029 290 979 b 172 874 203 906 188 889 b 131 828 157 858 143 843 b 81 749 106 797 89 768 b 64 517 46 672 42 589 b 114 418 75 481 92 447 b 150 376 125 403 138 389 l 154 372 l 157 369 l 158 368 b 163 367 160 367 161 367 l 168 363 b 157 354 165 360 161 357 b -137 67 58 292 -53 190 b -237 -133 -179 4 -214 -64 b -261 -237 -249 -168 -261 -203 b -256 -289 -261 -256 -260 -272 b -247 -314 -254 -297 -250 -306 b -236 -335 -243 -321 -240 -328 b -199 -376 -225 -351 -212 -365 b -157 -404 -185 -387 -171 -397 b -68 -429 -128 -418 -99 -426 b 29 -425 -37 -432 -6 -431 b 143 -389 64 -419 101 -408 b 339 -260 219 -353 285 -311 b 468 -82 393 -210 438 -150 b 504 58 492 -28 501 18 b 504 74 504 64 504 69 b 504 86 504 78 504 82 b 504 113 504 96 504 104 b 501 164 504 131 503 147 b 481 261 497 196 492 226 b 422 375 469 296 451 333 b 365 447 403 403 385 425 b 335 481 356 458 346 469 b 301 518 324 492 313 504 b 267 586 286 539 272 561 b 275 665 261 611 264 639 b 326 739 286 692 304 717 b 399 803 349 761 374 782 b 717 981 500 886 617 947 b 867 1018 767 997 817 1008 b 904 1024 879 1021 892 1022 b 918 1024 911 1024 914 1024 l 929 1024 b 933 1024 931 1024 932 1024 b 936 1021 935 1024 936 1022 b 933 1011 936 1017 935 1014 l 929 1001 l 922 988 b 844 867 900 946 871 907 b 807 803 831 846 818 825 b 799 786 804 797 801 792 l 794 778 l 792 768 b 788 747 789 761 789 754 b 789 726 788 740 788 733 b 808 686 792 711 799 697 b 840 658 817 675 828 665 b 883 647 853 651 868 647 b 904 650 890 647 897 649 b 925 658 911 653 918 654 l 935 664 b 943 668 938 665 940 667 b 960 679 949 671 954 675 b 988 704 969 688 979 696 b 1035 761 1006 722 1021 742 b 1075 822 1050 781 1063 801 b 1113 885 1088 843 1100 863 b 1147 954 1125 907 1138 929 b 1165 1035 1157 979 1164 1006 b 1164 1064 1165 1044 1165 1054 b 1158 1093 1163 1074 1161 1083 z m 339 110 b 318 78 329 128 322 106 b 304 -7 313 50 304 14 b 303 -19 304 -11 304 -15 b 296 -33 301 -24 299 -28 b 286 -49 293 -39 290 -44 b 274 -61 282 -53 278 -57 b 261 -74 269 -65 265 -69 b 249 -83 257 -78 253 -81 b 229 -99 240 -89 233 -94 b 139 -183 196 -129 171 -156 b 49 -247 117 -204 85 -228 b 22 -261 40 -251 32 -257 b -7 -272 13 -265 3 -269 b -64 -283 -26 -278 -46 -283 b -112 -269 -85 -283 -100 -278 b -126 -256 -118 -265 -124 -261 b -131 -235 -129 -250 -131 -244 b -124 -179 -132 -217 -128 -197 b -107 -125 -119 -161 -114 -143 b -47 -11 -83 -67 -79 -56 b -12 25 -36 3 -25 10 b 47 107 6 49 26 78 b 110 185 68 136 90 164 b 171 240 129 206 150 224 b 201 265 181 249 192 257 b 218 278 207 269 213 274 l 226 283 l 231 286 l 232 288 l 239 292 b 239 292 239 292 239 292 l 240 290 l 243 288 b 260 264 243 286 254 274 b 290 200 274 244 283 224 b 313 122 299 168 306 138 b 331 139 319 107 328 107 b 331 151 331 143 331 147 b 335 113 332 139 333 126 b 335 104 335 110 335 107 b 335 104 335 104 335 104 z m 190 -174 b 143 -210 175 -186 160 -199 b 157 -199 149 -206 153 -201 b 190 -175 174 -186 183 -179 z m 136 414 b 106 461 122 432 113 447 b 101 469 104 464 103 467 b 106 457 103 465 104 461 b 192 354 128 417 158 385 b 154 333 179 347 167 340 b 189 356 167 342 179 349 b 189 356 189 356 189 356 b 133 414 165 376 147 396 z "},"T":{"ha":642,"x_min":0,"x_max":0,"o":"m 1247 1204 b 1215 1224 1235 1217 1222 1222 b 1208 1221 1208 1225 1206 1224 b 1229 1201 1211 1218 1219 1213 b 1254 1144 1239 1190 1251 1172 b 1247 1103 1256 1131 1254 1115 b 1253 1121 1250 1108 1251 1114 b 1201 1213 1257 1160 1238 1196 b 1181 1221 1194 1215 1188 1218 b 1193 1229 1211 1213 1213 1217 b 1083 1272 1174 1242 1133 1260 b 918 1293 1033 1286 974 1293 b 778 1281 863 1294 811 1289 b 679 1263 751 1275 717 1269 b 561 1238 642 1256 601 1247 b 374 1176 482 1219 408 1193 b 186 1060 301 1143 240 1104 b 165 1043 179 1054 172 1049 l 156 1035 l 150 1031 l 147 1028 l 146 1026 l 144 1025 b 126 985 133 1015 126 1000 b 144 943 126 969 133 954 b 186 926 156 932 171 926 b 199 928 190 926 194 926 b 210 932 203 929 207 931 b 224 939 217 935 219 936 b 269 964 239 947 254 956 b 425 1032 314 988 367 1011 b 469 1047 439 1038 454 1043 b 511 1060 483 1051 497 1056 b 546 1068 522 1063 533 1065 l 549 1068 l 547 1067 l 546 1063 l 542 1054 l 533 1038 b 492 954 519 1010 506 982 b 447 867 476 925 461 896 b 369 697 419 808 393 750 b 297 539 340 633 319 588 b 226 363 275 490 253 439 b 126 -26 178 222 150 104 b 97 -247 108 -129 103 -190 b 90 -336 94 -276 92 -303 b 100 -362 90 -344 93 -354 b 128 -378 107 -371 117 -376 b 161 -368 139 -379 151 -376 b 178 -336 171 -360 175 -346 b 231 -178 196 -279 211 -242 b 328 146 260 -83 292 32 b 440 458 363 260 403 371 b 560 707 478 547 518 629 b 625 821 581 746 603 783 b 690 931 647 858 668 896 b 758 1039 713 965 738 1000 b 772 1068 764 1049 768 1058 l 774 1074 l 775 1076 b 778 1078 775 1078 775 1079 l 796 1076 b 825 1074 806 1076 815 1075 b 1078 1032 908 1067 992 1050 b 1122 1024 1093 1029 1108 1026 b 1143 1019 1129 1022 1136 1021 l 1154 1018 b 1168 1017 1158 1018 1164 1017 b 1222 1028 1188 1017 1206 1021 b 1265 1063 1239 1035 1254 1046 b 1283 1103 1271 1074 1279 1086 b 1285 1115 1285 1107 1285 1111 b 1285 1128 1285 1119 1285 1124 b 1283 1149 1285 1135 1285 1142 b 1254 1207 1279 1175 1267 1194 z m 222 967 b 186 953 210 960 199 951 b 160 972 174 954 164 963 b 161 999 156 982 157 992 b 178 1014 165 1006 172 1010 b 186 1019 181 1017 183 1018 b 174 1007 182 1015 178 1011 b 211 957 143 981 176 938 b 261 982 228 965 244 974 b 228 965 249 976 238 971 z "},"U":{"ha":1013,"x_min":0,"x_max":0,"o":"m 1103 1207 b 1011 1218 1072 1226 1036 1228 b 982 1201 999 1214 989 1208 b 974 1193 979 1199 976 1196 b 969 1185 972 1190 971 1188 b 968 1175 964 1175 964 1172 b 981 1183 971 1176 975 1179 b 992 1190 983 1186 988 1188 b 1006 1197 996 1193 1000 1196 b 1024 1201 1011 1199 1017 1201 b 1033 1203 1026 1201 1029 1203 b 1046 1203 1038 1203 1042 1203 b 1093 1185 1061 1201 1078 1196 b 1125 1146 1107 1175 1118 1161 b 982 1165 1099 1197 1022 1224 b 961 1135 975 1156 968 1144 b 961 1139 961 1136 961 1138 b 957 1157 982 1179 978 1181 b 865 1019 936 1133 901 1083 b 764 807 829 956 793 879 b 726 704 750 771 738 736 b 718 681 724 696 721 688 b 717 676 718 679 717 676 b 717 676 717 676 717 676 l 715 674 b 711 665 714 671 713 668 b 694 629 704 653 699 640 b 629 504 679 594 656 551 b 540 360 603 457 572 407 b 444 232 508 313 475 268 b 369 147 414 196 386 167 b 263 33 333 106 299 67 b 207 -11 244 17 226 1 b 178 -29 197 -18 188 -24 b 153 -40 168 -35 160 -39 b 138 -39 144 -42 140 -42 b 125 -24 133 -37 129 -32 b 114 38 118 -7 115 15 b 121 179 111 83 114 132 b 186 411 132 250 156 329 b 289 668 217 493 251 581 b 349 799 308 711 328 756 b 413 925 369 842 392 883 b 468 1050 433 967 453 1008 b 479 1081 472 1060 476 1069 l 485 1096 b 488 1113 486 1101 488 1107 b 461 1168 489 1135 478 1156 b 336 1163 421 1199 365 1194 b 267 1069 310 1132 288 1101 b 144 826 225 1004 190 932 b 28 557 101 731 61 643 b -18 428 11 514 -4 471 b -57 294 -33 385 -47 340 b -82 114 -72 222 -79 164 b -78 -21 -85 64 -83 21 b -36 -142 -71 -61 -61 -101 b 15 -196 -24 -161 -7 -181 b 100 -228 38 -211 67 -222 b 219 -214 144 -235 183 -228 b 325 -143 256 -199 289 -176 b 400 -68 350 -121 375 -94 b 474 18 425 -42 450 -12 b 539 111 496 47 518 79 b 475 -260 508 -21 488 -150 b 468 -325 472 -282 469 -304 b 478 -357 467 -336 471 -349 b 504 -374 485 -365 494 -371 b 538 -369 514 -376 526 -376 b 557 -343 549 -364 554 -351 b 586 -253 567 -312 576 -282 b 640 -78 604 -193 622 -135 b 758 253 678 36 717 146 b 893 569 800 360 844 465 b 969 725 918 622 943 674 b 1056 881 996 776 1025 828 b 1115 992 1076 918 1097 956 b 1142 1046 1125 1010 1133 1028 b 1154 1071 1146 1054 1150 1063 b 1158 1078 1156 1072 1157 1075 l 1161 1086 b 1164 1094 1163 1089 1164 1092 l 1165 1104 b 1151 1172 1168 1129 1163 1154 b 1111 1214 1140 1190 1126 1204 z m 131 -60 b 131 -60 131 -60 131 -60 b 131 -60 131 -60 131 -60 z m 122 -54 b 97 132 83 -19 93 89 b 104 182 99 149 101 165 b 97 128 101 163 99 144 b 96 22 93 86 93 51 b 114 -46 99 -6 104 -29 b 122 -57 117 -50 119 -54 z "},"V":{"ha":1047,"x_min":0,"x_max":0,"o":"m 1217 1222 b 1181 1247 1207 1235 1194 1243 b 1143 1246 1167 1251 1153 1250 b 1125 1232 1133 1242 1128 1236 b 1124 1222 1119 1222 1119 1219 b 1135 1229 1126 1224 1129 1226 b 1161 1236 1140 1233 1150 1238 b 1194 1218 1172 1235 1185 1229 b 1207 1174 1204 1208 1211 1192 b 1186 1124 1200 1157 1193 1140 b 1203 1169 1192 1139 1197 1154 b 1136 1211 1218 1210 1163 1251 b 1119 1186 1131 1203 1125 1194 b 1119 1186 1119 1186 1119 1186 b 1115 1203 1138 1222 1133 1224 b 1033 1082 1097 1182 1067 1138 b 933 900 1000 1026 965 961 b 854 744 901 839 871 783 b 579 306 799 622 632 382 b 433 75 525 224 478 149 b 368 -36 411 39 389 1 b 301 -143 347 -74 326 -110 l 296 -151 l 293 -156 l 290 -158 b 286 -164 289 -160 288 -162 b 272 -176 282 -168 278 -172 b 269 -158 271 -171 269 -165 b 269 -154 269 -157 269 -156 b 269 -146 269 -151 269 -151 b 269 -121 269 -137 269 -129 b 279 -17 271 -87 275 -53 b 296 206 285 56 290 131 b 338 635 308 356 322 506 b 369 854 349 724 358 788 b 386 961 375 888 381 922 b 394 1024 389 981 392 1001 b 399 1058 396 1035 397 1044 b 393 1101 400 1072 399 1088 b 339 1160 383 1128 363 1149 b 264 1169 315 1171 289 1175 b 203 1125 239 1164 215 1147 b 190 1089 196 1114 192 1101 b 189 1071 189 1082 189 1076 l 188 1056 b 167 811 181 974 174 894 b 113 279 144 551 143 504 b 81 71 103 204 92 154 b 68 -25 76 40 72 8 b 58 -131 64 -58 60 -93 b 64 -244 57 -167 58 -206 b 99 -357 69 -283 81 -322 b 114 -382 103 -365 108 -374 b 132 -408 119 -390 124 -399 b 192 -437 147 -425 169 -435 b 225 -437 203 -439 214 -439 b 254 -429 236 -436 246 -432 l 268 -424 l 281 -418 b 306 -406 289 -414 297 -410 b 451 -262 371 -368 417 -312 b 546 -111 488 -212 517 -161 b 632 36 575 -61 604 -12 b 715 179 660 85 688 132 b 796 319 743 226 771 272 b 1111 883 900 507 1004 688 b 1203 1078 1147 951 1179 1018 b 1219 1121 1208 1093 1214 1107 b 1228 1142 1222 1128 1225 1135 b 1232 1150 1229 1144 1231 1147 l 1233 1154 b 1235 1163 1233 1157 1235 1160 b 1233 1194 1238 1174 1236 1185 b 1221 1219 1231 1204 1226 1213 z m 438 28 b 433 19 436 25 435 22 b 317 -160 399 -35 363 -104 b 347 -117 329 -144 339 -129 b 439 28 392 -44 419 -1 z "},"W":{"ha":1311,"x_min":0,"x_max":0,"o":"m 1406 1175 b 1383 1196 1400 1186 1392 1193 b 1360 1200 1375 1199 1367 1200 b 1328 1186 1344 1200 1333 1193 b 1321 1171 1322 1179 1321 1174 b 1325 1171 1321 1168 1322 1168 b 1343 1183 1328 1174 1333 1179 b 1381 1182 1353 1188 1367 1189 b 1397 1161 1388 1178 1394 1171 b 1397 1147 1399 1157 1399 1151 b 1393 1136 1396 1143 1394 1140 b 1378 1078 1389 1119 1383 1100 b 1356 1001 1371 1053 1364 1028 b 1393 1147 1369 1050 1382 1099 b 1340 1163 1400 1179 1353 1192 b 1324 1125 1335 1150 1329 1138 b 1229 961 1360 1226 1303 1121 b 1111 699 1192 881 1150 786 b 1018 476 1074 611 1039 531 b 842 142 985 390 917 260 b 786 56 822 113 804 83 b 732 -18 768 28 750 3 b 676 -67 714 -39 694 -56 b 664 -75 672 -69 668 -72 b 657 -79 663 -76 660 -78 l 656 -81 l 656 -81 l 654 -81 b 650 -81 653 -81 651 -81 l 650 -81 b 650 -81 650 -81 650 -81 b 650 -79 650 -81 650 -79 b 650 -75 650 -78 650 -76 l 650 -72 l 650 -68 l 649 -57 b 647 -11 647 -42 647 -26 b 657 78 649 19 653 49 b 694 249 667 136 679 193 b 718 332 701 276 710 304 l 731 372 b 744 410 735 385 739 397 b 804 579 765 463 792 517 b 808 617 807 592 808 604 b 808 638 808 624 808 631 b 807 658 808 644 808 650 b 786 700 804 674 797 689 b 746 724 775 711 761 719 b 699 725 731 728 714 729 b 686 721 694 724 690 722 b 674 717 682 719 678 718 b 664 708 671 714 667 711 l 656 701 b 600 638 633 683 615 661 b 538 479 571 589 553 535 b 515 396 529 451 522 424 l 513 386 l 508 376 l 500 357 b 483 315 494 343 489 329 b 324 7 438 208 385 103 b 228 -132 293 -42 261 -89 b 122 -249 194 -175 161 -217 b 85 -272 110 -258 97 -267 b 46 -281 72 -278 58 -282 b 31 -271 40 -279 35 -276 b 22 -256 26 -267 24 -261 b 19 -218 19 -243 19 -231 b 33 -78 21 -168 25 -124 b 125 239 50 14 76 107 b 261 572 171 360 215 468 b 332 725 285 624 307 675 b 397 885 357 775 383 826 b 406 950 403 907 406 929 b 400 982 406 960 404 972 b 381 1008 396 993 389 1001 b 325 1024 364 1021 343 1025 b 297 1017 315 1022 306 1021 b 286 1010 293 1015 289 1013 b 278 1001 283 1007 281 1004 b 219 936 253 981 235 958 b 179 869 204 914 192 892 b 114 728 156 825 136 779 b 31 547 92 676 63 619 b -81 276 -11 451 -42 388 b -156 1 -108 194 -136 101 b -178 -153 -165 -49 -174 -100 b -168 -314 -182 -206 -182 -260 b -133 -390 -161 -340 -150 -367 b -71 -447 -117 -414 -96 -433 b 10 -469 -46 -461 -18 -468 b 89 -460 38 -471 64 -467 b 218 -385 139 -446 183 -417 b 307 -283 253 -353 282 -318 b 389 -153 338 -240 364 -196 b 406 -119 394 -142 400 -131 l 415 -101 l 425 -83 l 431 -75 l 433 -71 b 433 -75 433 -71 433 -74 b 433 -104 433 -85 433 -94 b 433 -117 433 -108 433 -112 l 435 -124 l 436 -133 b 474 -231 442 -167 453 -201 b 513 -267 485 -244 497 -257 b 536 -279 519 -271 528 -275 b 561 -287 544 -282 553 -286 b 665 -286 596 -296 632 -294 b 757 -242 699 -276 729 -261 b 832 -176 785 -222 810 -200 b 940 -17 876 -128 910 -72 b 1028 150 969 39 999 94 b 1113 318 1057 206 1085 261 b 1268 671 1167 432 1218 549 b 1365 951 1308 769 1342 867 b 1393 1068 1376 994 1386 1033 b 1403 1118 1397 1086 1400 1103 b 1407 1139 1404 1125 1406 1132 b 1407 1147 1407 1140 1407 1144 b 1407 1156 1407 1150 1407 1153 b 1401 1174 1407 1161 1404 1168 z m 701 396 b 674 313 689 363 681 335 b 667 292 671 306 668 299 b 694 378 675 321 685 350 b 769 574 717 440 754 507 b 750 514 764 551 757 532 b 701 396 732 467 714 429 z "},"X":{"ha":824,"x_min":0,"x_max":0,"o":"m 1140 1186 b 1117 1186 1131 1189 1122 1188 b 1111 1179 1107 1183 1106 1181 b 1125 1176 1114 1178 1118 1178 b 1150 1165 1132 1175 1142 1172 b 1165 1133 1158 1158 1164 1147 b 1153 1089 1167 1119 1164 1103 b 1119 1060 1142 1079 1131 1069 b 1144 1085 1128 1068 1136 1076 b 1114 1167 1174 1111 1163 1176 b 1088 1160 1104 1165 1096 1163 b 1093 1172 1122 1174 1121 1176 b 1068 1165 1086 1171 1078 1168 b 1035 1154 1058 1163 1047 1158 b 958 1111 1011 1144 985 1131 b 803 971 904 1074 850 1021 b 738 900 779 946 757 922 b 686 842 718 878 700 858 b 499 643 644 790 569 715 b 400 542 464 607 429 572 b 388 529 396 538 392 533 l 385 526 b 383 525 383 525 383 525 l 382 524 b 378 519 381 522 379 521 b 374 519 376 519 375 519 l 372 519 b 372 519 372 519 372 519 l 372 521 b 372 533 372 525 372 529 b 368 601 371 557 369 579 b 364 732 367 646 365 689 b 364 858 364 775 364 817 b 364 921 364 879 364 900 b 363 989 364 942 365 965 b 344 1044 360 1007 354 1026 b 329 1069 340 1053 335 1061 b 321 1081 326 1074 324 1078 b 307 1092 318 1083 313 1089 b 271 1099 294 1099 282 1100 b 236 1088 258 1097 247 1094 b 224 1076 231 1083 228 1081 b 211 1065 219 1074 215 1069 b 193 1039 204 1057 197 1049 b 176 978 183 1019 179 999 b 175 915 175 957 175 936 b 178 790 175 874 176 832 b 224 308 178 622 200 451 l 224 304 l 224 303 b 224 303 224 303 224 303 l 218 297 b 210 285 215 293 213 289 b 189 261 203 276 196 268 b 153 218 176 246 164 232 b 85 142 129 192 107 167 b -65 -43 40 92 -6 39 b -199 -268 -119 -119 -164 -193 b -224 -325 -207 -286 -215 -306 l -235 -354 b -242 -387 -239 -365 -242 -376 b -219 -453 -243 -411 -235 -435 b -161 -489 -204 -471 -183 -483 b -110 -489 -144 -493 -126 -493 b -69 -464 -93 -485 -79 -475 b -50 -428 -60 -453 -54 -439 b -37 -396 -46 -417 -42 -406 b 11 -290 -21 -356 -6 -322 b 149 -79 44 -226 81 -169 b 211 -1 171 -50 190 -26 b 242 38 221 11 231 24 b 258 56 247 43 253 49 l 260 57 l 260 58 b 260 58 260 58 260 58 l 261 53 b 265 44 263 50 264 47 b 268 36 265 42 267 39 b 272 15 269 29 271 22 b 300 -86 281 -18 289 -53 b 372 -296 321 -154 342 -226 b 428 -397 388 -331 406 -365 b 444 -421 433 -406 439 -412 b 476 -440 451 -431 464 -439 b 513 -433 489 -443 501 -440 b 538 -403 524 -426 533 -415 b 539 -383 539 -396 539 -389 b 538 -369 539 -378 539 -374 b 532 -343 536 -360 535 -351 b 517 -293 528 -325 522 -308 b 486 -203 506 -261 494 -232 b 440 -32 471 -144 456 -87 b 406 133 426 24 415 79 b 393 214 401 161 397 188 l 390 233 l 389 240 b 389 244 389 242 389 243 l 390 246 b 415 275 399 256 407 265 b 518 399 450 317 483 358 b 957 865 656 561 797 713 b 1108 1011 1011 918 1064 968 b 1140 1043 1119 1022 1131 1033 b 1156 1057 1146 1049 1151 1053 b 1172 1075 1161 1063 1164 1065 b 1188 1125 1185 1092 1188 1110 b 1175 1165 1188 1140 1183 1154 b 1146 1186 1167 1176 1156 1183 z m 347 940 b 343 786 346 868 344 819 b 343 760 343 776 343 768 b 349 939 343 819 346 879 b 349 985 350 956 350 971 b 350 939 350 968 350 953 z "},"Y":{"ha":1000,"x_min":0,"x_max":0,"o":"m 1139 1282 b 1135 1299 1138 1288 1136 1293 b 1100 1347 1128 1319 1115 1336 b 1010 1367 1071 1371 1035 1374 b 965 1336 985 1360 971 1344 b 965 1328 960 1328 960 1325 b 1000 1349 971 1331 979 1342 b 1038 1351 1010 1353 1022 1354 b 1083 1329 1053 1349 1069 1342 b 1113 1276 1099 1315 1110 1296 b 975 1317 1101 1340 1018 1372 b 957 1288 968 1307 963 1297 b 957 1288 957 1288 957 1288 b 969 1321 965 1308 971 1318 b 953 1306 969 1324 963 1318 b 921 1246 943 1293 931 1272 b 894 1153 911 1219 903 1188 b 886 1128 892 1144 889 1136 b 882 1117 886 1126 883 1121 b 878 1104 881 1113 879 1108 b 853 1054 869 1088 861 1071 b 800 951 836 1019 818 985 b 704 783 763 885 726 825 b 535 532 669 718 606 618 b 426 419 499 489 461 450 b 339 354 392 389 360 367 b 306 335 328 347 317 342 b 271 318 293 328 282 322 b 244 311 261 314 251 311 b 235 315 238 311 238 311 b 228 338 232 319 229 328 b 226 369 226 347 226 358 b 232 439 226 392 229 417 b 314 710 246 529 281 617 b 404 935 339 778 369 854 b 460 1056 421 975 440 1014 b 500 1192 479 1097 496 1143 b 500 1229 501 1204 501 1217 b 489 1265 500 1242 496 1256 b 422 1296 474 1286 447 1297 b 388 1283 410 1294 397 1290 b 360 1261 378 1276 368 1269 b 317 1207 343 1244 329 1226 b 206 969 265 1129 239 1043 b 103 746 164 879 133 815 b 57 635 88 711 72 675 b 14 492 42 594 26 549 b 4 339 3 440 -1 389 b 53 200 10 289 25 240 b 168 117 79 160 121 128 b 240 113 192 111 217 110 b 275 119 253 114 264 117 b 292 124 281 121 286 122 l 308 129 b 457 218 375 153 421 188 b 544 310 493 250 519 281 b 643 438 578 350 608 389 b 563 282 618 388 594 344 b 407 -6 518 194 467 94 b 311 -154 376 -56 344 -106 b 286 -192 303 -167 294 -179 b 261 -226 278 -204 269 -215 b 236 -261 253 -239 244 -250 l 229 -271 l 219 -283 b 199 -308 213 -292 206 -300 b 182 -342 193 -319 188 -331 b 183 -358 181 -346 181 -351 b 194 -374 185 -364 189 -369 b 213 -381 200 -378 207 -381 b 221 -381 215 -381 218 -381 b 229 -376 224 -379 226 -378 b 264 -356 242 -369 253 -362 b 281 -346 269 -353 275 -350 b 299 -332 286 -342 293 -336 b 324 -311 307 -325 315 -318 b 371 -271 340 -297 356 -283 b 622 28 472 -179 553 -76 b 806 344 692 132 750 239 b 958 668 861 450 913 557 b 1024 838 982 724 1004 779 b 1085 1013 1043 894 1064 953 b 1106 1071 1092 1032 1099 1051 b 1125 1129 1113 1090 1119 1110 b 1147 1249 1138 1168 1147 1208 b 1146 1278 1147 1258 1147 1268 b 1143 1293 1144 1283 1144 1288 z m 211 490 b 282 696 228 561 256 629 b 286 708 283 700 285 704 b 271 667 281 693 275 679 b 211 492 238 583 221 529 z "},"Z":{"ha":1050,"x_min":0,"x_max":0,"o":"m 997 1088 b 960 1158 988 1118 974 1142 b 940 1178 953 1167 946 1172 b 925 1189 935 1183 929 1186 b 917 1190 917 1194 914 1194 b 925 1178 918 1188 921 1183 b 939 1158 929 1174 933 1167 b 974 1081 950 1142 965 1117 b 982 1019 979 1061 982 1040 b 907 1179 979 1079 958 1136 b 879 1197 899 1186 889 1192 b 892 1193 883 1196 888 1194 b 901 1189 896 1192 899 1190 b 911 1185 907 1186 910 1185 b 896 1204 914 1186 908 1193 b 832 1233 883 1214 861 1226 b 729 1236 803 1240 767 1242 b 615 1210 692 1232 653 1222 b 506 1165 578 1197 540 1182 b 342 1057 435 1131 376 1089 b 240 963 314 1032 278 1000 b 131 833 203 925 164 881 b 106 797 122 821 114 808 b 93 781 101 792 97 786 b 79 754 88 772 82 763 b 78 729 76 746 75 738 b 93 708 81 721 86 714 b 139 696 106 697 124 692 b 161 708 147 699 154 703 b 179 729 168 715 174 722 b 199 751 186 738 192 744 b 231 786 211 765 222 776 b 457 975 303 865 378 926 b 582 1036 497 999 539 1019 b 715 1078 625 1053 669 1068 b 767 1083 733 1081 750 1083 b 810 1069 783 1083 799 1079 b 828 1025 821 1060 826 1043 b 824 965 829 1007 826 986 b 729 714 810 882 771 797 b 597 468 689 629 644 546 b 563 411 586 449 574 429 b 554 408 561 408 557 410 l 546 407 l 529 404 b 496 397 518 403 507 400 b 433 382 475 393 454 388 b 404 372 424 379 414 376 b 378 356 394 369 385 364 b 376 289 361 336 361 307 b 406 274 383 281 394 275 b 431 269 414 272 422 271 b 456 265 439 268 447 267 b 457 265 456 265 457 265 l 456 264 l 454 261 l 450 257 l 443 247 b 411 210 432 235 422 222 b 242 3 364 151 314 90 b 49 -207 176 -76 114 -146 b -56 -293 15 -237 -19 -267 b -82 -312 -64 -300 -72 -307 l -96 -322 l -103 -326 l -111 -332 b -135 -364 -121 -340 -129 -351 b -143 -403 -140 -376 -143 -390 b -96 -496 -143 -443 -122 -476 b -51 -511 -82 -506 -67 -511 b -10 -500 -36 -511 -22 -507 b 110 -443 35 -476 72 -458 b 139 -431 119 -439 129 -435 b 168 -421 149 -428 158 -425 b 229 -401 188 -414 208 -408 b 383 -367 272 -389 321 -376 b 442 -360 404 -364 424 -362 b 496 -356 460 -358 478 -357 b 551 -356 514 -356 532 -356 b 615 -354 571 -356 592 -354 b 722 -358 649 -354 685 -356 b 779 -364 740 -360 760 -361 b 808 -368 789 -365 799 -367 b 825 -368 813 -368 819 -368 b 842 -367 831 -368 836 -368 b 907 -331 867 -364 892 -350 b 935 -262 924 -311 933 -287 b 915 -190 936 -237 931 -211 b 851 -151 900 -169 875 -156 b 603 -140 767 -140 683 -137 b 486 -149 563 -142 524 -144 b 432 -156 468 -150 450 -153 b 411 -160 425 -157 418 -158 b 399 -164 407 -161 403 -162 b 375 -168 390 -165 382 -167 b 400 -137 383 -157 392 -147 b 421 -112 407 -129 414 -121 b 442 -83 428 -103 435 -93 b 522 29 469 -46 496 -8 b 599 139 549 67 574 103 b 674 247 624 175 649 211 b 678 253 675 249 676 251 l 686 253 l 718 250 b 785 247 740 249 763 247 b 851 253 807 247 829 249 b 885 263 863 256 874 258 b 918 282 896 267 908 274 b 949 356 939 300 951 328 b 907 424 946 383 929 410 b 839 449 885 438 863 444 b 822 453 833 450 828 451 l 818 453 b 810 453 815 453 813 453 b 815 463 811 456 814 460 b 824 476 815 461 821 471 l 835 496 b 879 578 850 522 865 550 b 958 750 908 633 935 690 b 1000 871 975 790 989 831 b 1019 989 1011 911 1018 951 b 1006 1093 1021 1026 1015 1063 z m 503 1028 b 493 1024 499 1026 496 1025 b 606 1072 529 1042 567 1058 b 714 1101 640 1085 676 1094 b 664 1089 696 1097 679 1093 b 503 1028 586 1067 538 1044 z "},"[":{"ha":446,"x_min":0,"x_max":0,"o":"m 672 1425 b 661 1431 669 1428 665 1429 b 653 1435 658 1432 656 1433 b 636 1439 647 1436 642 1438 b 489 1454 594 1454 540 1465 b 383 1385 438 1444 399 1411 b 344 1307 371 1364 357 1338 b 310 1211 332 1276 321 1243 b 293 1165 304 1194 299 1179 b 276 1122 288 1150 282 1136 b 250 1058 265 1096 256 1074 b 146 714 206 933 178 829 b 65 411 124 629 94 521 b -29 96 36 301 3 189 b -133 -199 -68 -18 -94 -65 b -146 -243 -137 -214 -142 -228 b -153 -289 -150 -258 -151 -274 b -135 -381 -154 -321 -149 -353 b -72 -446 -121 -408 -99 -432 b 14 -467 -46 -460 -17 -467 b 124 -435 61 -467 97 -451 b 181 -374 150 -417 168 -396 b 193 -336 188 -364 194 -350 b 178 -297 193 -322 188 -308 b 136 -274 168 -286 154 -278 b 82 -278 118 -269 100 -275 b 74 -278 79 -278 76 -278 l 69 -278 l 67 -278 b 56 -278 63 -278 58 -278 b 47 -275 53 -278 50 -276 l 46 -275 l 46 -272 b 46 -268 46 -271 46 -269 b 50 -260 47 -265 49 -262 b 54 -251 51 -257 53 -254 b 63 -233 57 -246 60 -240 b 69 -214 64 -228 67 -221 b 224 336 121 -54 179 179 b 354 775 269 494 311 636 b 419 982 376 844 397 913 b 482 1193 442 1051 460 1122 b 494 1231 486 1206 490 1218 b 499 1247 496 1236 497 1242 b 504 1261 500 1251 501 1257 b 536 1299 513 1278 522 1290 b 622 1326 564 1315 600 1321 b 651 1340 646 1332 657 1338 b 578 1342 646 1343 622 1346 b 540 1333 565 1340 553 1338 b 651 1354 572 1346 611 1349 b 668 1363 658 1356 664 1358 b 651 1349 660 1353 651 1351 b 669 1350 650 1347 657 1344 b 696 1396 681 1356 696 1369 b 676 1432 696 1408 689 1422 z "},"]":{"ha":417,"x_min":0,"x_max":0,"o":"m 543 1368 b 494 1425 531 1393 513 1413 b 444 1449 476 1438 458 1444 b 413 1451 431 1451 419 1451 b 408 1447 407 1451 406 1450 b 432 1436 411 1444 419 1442 b 479 1406 444 1431 461 1422 b 504 1378 489 1397 497 1388 b 407 1435 482 1407 449 1428 b 386 1438 400 1436 393 1438 b 408 1442 400 1439 407 1440 b 394 1449 410 1443 404 1446 b 351 1454 385 1451 369 1454 b 289 1453 333 1456 311 1454 b 217 1449 267 1451 243 1451 b 138 1431 190 1447 163 1442 b 119 1421 132 1428 125 1425 b 100 1400 111 1415 104 1408 b 96 1374 96 1392 94 1382 b 104 1351 97 1365 100 1358 b 118 1335 108 1344 113 1339 b 135 1325 124 1331 131 1326 b 163 1318 144 1321 154 1319 b 219 1315 179 1315 199 1315 b 286 1317 240 1315 263 1317 b 354 1308 310 1317 333 1315 b 374 1303 358 1307 367 1304 l 378 1303 l 381 1303 b 385 1303 382 1303 383 1303 b 389 1296 388 1301 389 1299 b 389 1286 389 1293 389 1290 b 381 1264 389 1283 385 1272 b 372 1251 378 1260 375 1256 b 368 1243 371 1249 369 1246 b 364 1235 367 1240 365 1238 b 344 1193 356 1218 349 1204 b 210 836 292 1063 254 956 b -35 200 144 661 50 392 b -176 -99 -86 83 -118 36 b -197 -144 -183 -114 -190 -129 b -215 -189 -204 -160 -210 -175 b -233 -229 -221 -203 -226 -217 b -256 -260 -240 -242 -247 -253 b -286 -272 -264 -267 -274 -271 b -307 -274 -293 -274 -300 -274 l -318 -274 b -332 -275 -322 -274 -328 -275 b -375 -301 -349 -279 -364 -289 b -399 -344 -386 -314 -394 -329 b -393 -414 -406 -369 -404 -394 b -383 -426 -390 -418 -387 -422 l -378 -432 l -372 -436 b -360 -443 -368 -439 -364 -442 b -347 -447 -356 -444 -351 -446 b -262 -471 -318 -462 -290 -471 b -104 -381 -208 -471 -157 -444 b -19 -251 -69 -337 -47 -307 b 36 -117 0 -211 18 -165 b 93 32 54 -68 74 -18 b 197 315 131 133 167 235 b 378 767 260 478 319 624 b 465 978 407 838 436 907 b 549 1201 494 1049 526 1121 b 558 1243 553 1215 556 1229 b 563 1264 560 1250 561 1257 b 565 1286 564 1271 565 1279 b 549 1372 567 1317 561 1347 z m 235 835 b 247 868 239 847 243 858 b 293 978 269 922 283 956 b 235 833 274 929 254 881 z "},"^":{"ha":610,"x_min":0,"x_max":0,"o":"m 540 1211 b 526 1286 539 1236 535 1261 b 508 1324 522 1299 517 1311 b 479 1358 501 1336 492 1349 b 421 1381 463 1374 439 1381 b 381 1371 403 1381 389 1376 b 372 1358 372 1365 369 1361 b 381 1354 374 1357 376 1356 b 399 1353 385 1354 390 1354 b 411 1350 403 1353 407 1351 b 375 1344 400 1350 388 1349 b 368 1343 372 1344 371 1343 b 367 1356 375 1350 374 1354 b 332 1351 360 1357 346 1357 b 260 1300 303 1343 269 1319 b 213 1258 251 1285 232 1271 b 185 1239 203 1251 193 1244 b 165 1224 176 1233 169 1228 b 99 1119 132 1192 115 1157 b 82 1072 93 1106 88 1089 b 74 1043 79 1063 76 1053 b 81 1011 71 1032 74 1019 b 110 997 88 1003 99 997 b 138 1008 121 996 131 1001 b 174 1049 150 1024 161 1038 b 258 1106 203 1075 222 1079 b 344 1175 292 1129 315 1153 b 367 1192 353 1182 360 1188 b 375 1197 369 1194 372 1196 b 375 1197 375 1197 375 1197 b 369 1136 375 1179 374 1164 b 363 1086 367 1119 361 1107 b 379 1039 364 1071 369 1054 b 388 1028 382 1035 383 1032 b 400 1015 392 1024 396 1019 b 428 1001 408 1008 418 1004 b 489 1008 449 996 471 997 b 510 1031 497 1014 504 1022 b 519 1051 514 1038 517 1044 b 538 1132 531 1079 535 1106 b 540 1208 540 1158 542 1183 z m 117 1111 b 121 1121 118 1115 119 1118 b 143 1153 131 1138 138 1147 b 117 1111 133 1139 125 1125 z "},"_":{"ha":658,"x_min":0,"x_max":0,"o":"m 353 58 b 319 85 343 74 329 82 b 304 82 310 88 304 86 b 317 61 304 78 310 72 b 321 53 318 58 319 56 b 299 72 315 61 308 68 b 294 74 297 74 296 74 b 300 85 303 75 304 79 b 292 93 299 88 296 90 b 276 101 288 96 282 99 b 201 101 251 111 217 111 b 150 99 189 94 169 96 b 104 106 131 101 113 106 b 56 101 86 106 71 104 b 10 92 42 99 25 96 b -72 67 -14 86 -43 76 b -158 43 -101 57 -132 47 b -200 40 -175 40 -187 40 b -222 38 -206 40 -214 39 b -250 18 -232 36 -244 31 b -226 -43 -261 -6 -247 -33 b -218 -47 -224 -44 -221 -46 b -211 -49 -215 -49 -214 -49 l -199 -50 b -176 -54 -192 -51 -185 -53 b -79 -68 -128 -58 -119 -57 b -42 -81 -65 -72 -57 -78 b 36 -82 -19 -85 8 -85 b 76 -78 50 -81 64 -79 b 113 -75 89 -76 101 -75 b 239 -69 157 -74 197 -75 b 301 -54 260 -67 281 -62 b 318 -47 307 -53 313 -50 l 326 -43 b 335 -36 329 -42 332 -39 b 361 3 347 -26 357 -12 b 354 61 368 24 364 46 z m 44 71 b 11 67 33 69 22 68 b 21 68 15 68 18 68 b 53 69 36 69 46 69 b 44 69 50 69 47 69 z "},"a":{"ha":974,"x_min":0,"x_max":0,"o":"m 939 358 b 914 371 933 367 924 372 b 889 356 903 369 896 361 b 722 190 821 294 796 260 b 622 108 688 158 656 129 b 610 101 618 106 614 103 b 606 99 608 100 607 100 b 601 99 604 99 603 99 b 586 103 596 97 589 97 b 582 124 583 107 582 114 b 586 151 582 132 583 142 b 618 225 594 182 607 206 b 649 276 629 244 639 261 b 681 322 658 292 668 307 b 728 376 693 339 708 356 b 797 463 753 406 774 422 l 801 471 b 806 481 803 474 804 478 b 811 501 808 488 810 494 b 804 549 813 517 811 533 b 732 610 792 579 764 601 b 681 610 715 614 697 614 b 638 588 664 606 649 596 b 606 560 626 579 615 569 l 599 553 l 594 549 b 586 540 592 546 589 543 l 581 546 l 574 551 b 561 560 569 554 565 557 b 549 568 557 563 553 565 b 493 586 531 578 511 583 b 397 583 460 592 428 590 b 353 571 382 581 367 576 b 311 556 339 567 325 561 b 164 467 257 532 208 501 b 44 346 119 432 79 392 b -32 186 10 300 -18 249 b -21 63 -40 143 -36 99 b 10 18 -12 44 -1 29 b 26 3 15 13 21 7 b 43 -6 32 -1 38 -4 b 65 -11 53 -10 61 -11 b 69 -7 69 -11 71 -10 b 28 33 67 -1 49 6 b 14 57 22 40 18 49 b 75 4 26 33 46 14 b 88 0 79 3 83 1 b 81 -10 68 1 67 -3 b 113 -19 88 -14 99 -18 b 161 -17 126 -21 143 -21 b 261 32 196 -8 232 11 b 328 92 290 53 314 75 b 346 111 333 97 339 104 b 358 121 350 114 354 117 b 367 129 361 124 364 126 b 385 144 372 135 379 140 b 393 149 388 146 390 147 l 397 151 b 399 151 397 151 399 153 l 397 147 b 392 118 394 136 393 126 b 392 107 392 114 392 110 l 392 106 l 392 103 b 392 99 392 101 392 100 b 392 89 392 94 392 92 b 410 24 393 61 401 38 b 554 -44 442 -31 504 -50 b 686 11 606 -39 647 -17 b 771 89 715 32 743 60 b 851 186 799 118 826 151 b 918 297 876 221 900 258 b 931 326 922 307 926 317 b 926 356 935 336 932 347 z m 438 325 b 435 308 436 319 435 314 b 435 300 435 306 435 303 b 431 293 435 297 432 296 b 410 271 424 285 417 276 b 356 243 392 257 376 258 b 308 199 336 229 324 214 b 250 161 283 176 279 171 b 222 157 240 158 232 160 b 199 147 215 154 207 151 b 175 136 192 144 183 140 b 161 132 171 135 167 132 b 151 140 156 132 151 136 b 154 153 151 144 153 149 b 157 161 154 154 156 158 b 161 169 158 164 160 167 b 189 200 169 181 179 190 b 254 253 208 219 231 236 b 283 289 269 264 281 279 b 265 300 286 299 282 307 b 257 296 263 299 260 297 b 274 311 264 303 269 308 b 278 314 275 313 276 313 b 304 308 275 300 289 301 b 342 340 319 315 336 328 b 374 356 346 350 360 354 b 407 357 388 357 400 356 b 415 361 410 358 413 360 b 422 364 418 363 422 364 b 424 365 422 364 422 364 b 433 367 425 367 431 369 b 440 357 436 365 439 363 b 438 325 440 349 439 336 z m 453 388 b 435 396 447 396 439 396 b 435 396 435 396 435 396 b 450 392 440 397 446 396 b 456 381 453 389 454 385 b 451 388 454 383 453 386 z m 650 15 b 576 -12 617 -3 593 -10 b 572 -12 575 -12 574 -12 b 668 28 606 -6 639 10 b 649 17 661 24 654 19 z "},"b":{"ha":694,"x_min":0,"x_max":0,"o":"m 539 843 b 628 954 568 878 600 914 b 663 1019 642 975 654 996 b 643 1088 669 1044 660 1071 b 581 1111 626 1104 603 1115 b 550 1100 569 1110 560 1104 b 522 1083 540 1094 531 1089 b 426 999 479 1054 453 1028 b 343 886 400 969 375 936 b 206 628 283 796 246 715 b 140 479 174 560 157 518 b 79 344 124 440 107 404 b 26 236 61 306 46 281 b -51 1 -1 169 -29 86 l -56 -15 b -61 -40 -58 -24 -60 -32 b -74 -86 -65 -56 -69 -71 b -75 -103 -76 -96 -75 -99 l -75 -117 l -75 -131 b -75 -136 -75 -133 -75 -135 b -72 -140 -75 -137 -74 -139 b -43 -151 -67 -149 -54 -153 b -29 -147 -37 -151 -32 -150 b -21 -136 -26 -146 -24 -140 b 11 -79 -10 -117 1 -97 b 24 -56 15 -71 19 -62 b 25 -53 24 -54 25 -54 l 26 -50 l 31 -46 l 38 -37 b 64 0 47 -25 56 -12 b 85 29 71 10 78 19 l 92 39 l 94 43 l 96 44 b 96 43 96 44 96 43 l 97 40 b 106 21 100 33 103 26 l 107 19 l 110 15 l 115 7 b 128 -7 119 1 124 -3 b 142 -21 132 -11 136 -17 l 158 -33 b 167 -39 161 -35 164 -37 l 175 -43 l 193 -53 b 346 -68 243 -72 296 -75 b 489 -11 396 -60 444 -42 b 521 14 500 -3 511 6 b 549 43 531 24 540 33 b 597 108 567 64 582 85 b 626 168 608 129 618 149 b 647 225 635 188 642 207 b 663 314 658 261 663 293 b 656 343 663 336 660 347 b 635 283 651 339 647 319 b 624 254 632 274 628 264 b 642 346 635 293 640 324 b 642 346 642 346 642 346 b 642 350 642 347 642 349 l 647 344 b 646 349 646 344 646 346 l 643 351 b 643 360 643 354 643 357 b 647 347 644 354 646 350 l 651 343 b 660 388 654 346 658 363 b 649 481 661 413 660 446 b 586 574 638 515 617 551 b 539 594 571 585 554 592 b 499 593 524 597 510 596 b 378 549 465 586 421 571 b 349 532 368 543 358 538 b 476 744 393 608 431 675 b 550 842 496 775 521 807 z m 375 143 b 375 146 375 144 375 146 b 382 151 378 149 381 150 b 374 143 379 149 376 146 z m 397 185 b 379 182 390 183 382 183 b 360 160 368 178 365 169 b 344 135 356 153 351 143 b 318 122 338 126 328 121 b 296 142 307 125 304 136 b 276 149 290 146 283 147 b 286 150 279 150 282 150 b 301 147 292 150 296 147 b 346 174 317 149 332 167 b 403 188 365 183 383 186 b 399 186 401 186 400 186 z m 364 296 b 368 297 365 297 367 297 b 386 301 376 300 382 301 b 364 297 379 300 372 299 z m 438 222 b 438 222 438 222 438 222 b 435 226 438 224 436 225 b 435 226 435 226 435 226 b 435 226 435 226 435 226 b 435 226 435 226 435 226 b 439 226 436 226 438 226 b 439 226 439 226 439 226 z m 440 229 l 439 231 b 439 231 439 231 439 231 b 439 231 439 231 439 231 z m 399 397 b 431 415 408 404 419 410 b 447 424 436 418 442 421 l 456 426 b 460 426 457 426 458 426 b 468 422 464 426 467 425 b 467 417 469 421 468 418 b 463 414 465 415 464 414 b 461 414 461 414 461 414 l 461 414 l 461 411 b 461 407 461 410 461 408 b 465 390 461 400 463 394 b 486 393 469 381 478 381 b 490 397 488 394 489 396 b 488 379 489 389 488 382 b 488 375 488 378 488 376 b 465 364 481 385 471 376 b 461 354 464 361 463 358 b 461 350 461 353 461 351 b 461 347 461 349 461 349 b 463 342 461 346 461 344 b 463 338 463 340 463 339 l 464 335 l 464 333 b 457 329 464 331 461 329 b 450 329 454 329 453 329 b 442 331 447 329 444 329 b 414 339 431 333 419 339 b 357 322 392 340 375 332 b 265 271 331 308 296 279 b 261 271 264 271 263 271 b 271 288 264 276 267 282 b 310 329 286 311 288 317 b 332 338 317 333 324 333 b 399 397 354 351 378 382 z m 442 740 b 390 663 417 703 401 679 b 457 761 411 696 433 729 b 442 738 451 753 446 744 z "},"c":{"ha":613,"x_min":0,"x_max":0,"o":"m 214 267 b 254 335 225 288 239 311 b 313 403 271 358 289 383 b 351 425 324 413 338 421 b 396 422 365 429 381 426 b 439 410 411 418 425 413 b 481 413 453 407 468 408 b 519 436 497 418 510 426 b 540 474 529 446 538 458 b 540 496 542 481 542 489 b 535 517 539 503 538 510 b 511 565 531 532 524 549 b 467 601 499 581 483 593 b 417 615 450 610 433 614 b 321 603 383 618 351 613 b 226 554 274 586 250 569 b 151 494 204 539 182 524 b 94 438 131 475 115 463 b 19 293 65 400 38 349 b 1 132 1 238 -4 179 b 21 64 4 108 11 85 b 63 8 31 43 44 24 b 188 -32 99 -21 144 -32 b 311 -6 231 -32 272 -22 b 422 54 350 11 386 31 b 488 104 447 69 469 88 b 511 128 496 113 504 121 b 519 138 514 132 517 135 l 521 140 b 525 144 522 142 524 143 b 529 153 526 147 528 150 b 532 175 533 163 533 171 b 528 179 531 179 529 181 b 518 165 526 178 524 172 b 508 156 515 163 513 158 b 494 147 504 153 500 150 b 478 135 489 143 483 139 b 506 160 488 143 497 151 b 518 182 513 165 517 174 b 517 193 518 186 518 190 b 525 182 521 186 522 182 b 531 192 526 182 529 185 b 521 222 532 199 531 211 b 476 238 513 232 496 240 b 464 232 472 236 468 235 b 453 225 460 231 454 226 b 436 213 447 221 442 217 b 406 190 425 206 415 197 b 357 151 386 176 368 163 b 265 113 339 133 301 118 b 217 113 247 110 229 110 b 193 124 204 115 197 121 b 185 133 189 126 186 131 b 182 146 183 136 182 140 b 188 185 181 157 183 171 b 222 268 194 213 207 240 z m 168 210 b 204 279 178 233 190 257 b 196 263 201 274 199 268 b 168 210 182 238 174 221 z "},"d":{"ha":754,"x_min":0,"x_max":0,"o":"m 1068 1053 b 1015 1107 1061 1081 1040 1100 b 994 1110 1008 1108 1001 1110 b 974 1108 988 1110 981 1110 b 932 1094 960 1107 946 1103 b 878 1049 911 1083 893 1067 b 836 992 863 1031 850 1011 b 756 865 807 953 781 910 b 629 614 706 778 663 688 b 621 597 626 608 624 603 l 618 590 l 617 588 l 615 586 b 615 586 615 585 615 586 b 604 599 613 590 608 594 b 596 604 601 600 600 601 b 583 613 592 607 588 610 b 529 635 567 624 549 631 b 418 635 492 643 454 642 b 228 542 346 619 282 585 b 151 471 200 519 175 496 b 85 392 128 446 106 419 b -18 201 43 336 4 275 b -14 43 -35 147 -32 89 b 64 -43 4 -3 39 -33 b 92 -50 76 -49 86 -50 b 96 -46 97 -50 99 -49 b 78 -32 94 -43 88 -39 b 40 4 68 -25 54 -14 b 24 35 33 14 28 24 b 104 -33 40 4 67 -21 b 122 -37 111 -35 117 -36 b 114 -47 97 -36 96 -39 b 157 -56 124 -51 139 -56 b 219 -42 175 -56 197 -51 b 332 49 263 -22 301 14 b 404 142 363 83 389 117 b 482 243 421 169 450 206 b 469 201 476 226 472 213 b 447 108 460 169 453 139 b 432 19 442 78 436 49 b 422 -157 424 -39 418 -96 b 432 -228 424 -179 426 -203 b 435 -236 433 -231 433 -233 l 438 -249 b 447 -274 440 -258 443 -267 l 453 -285 l 456 -290 b 460 -294 457 -292 458 -293 b 482 -303 465 -300 474 -303 b 504 -294 490 -303 499 -300 b 510 -285 507 -292 508 -287 b 514 -281 511 -283 513 -282 l 517 -274 b 525 -247 519 -265 522 -256 b 529 -226 526 -239 528 -233 b 538 -143 533 -199 535 -171 b 550 -60 540 -115 546 -87 b 563 24 554 -32 558 -4 b 599 176 571 78 585 129 b 651 313 617 233 633 272 b 722 456 671 353 692 394 b 889 746 778 565 826 654 b 999 897 940 817 969 860 b 1046 957 1014 917 1031 933 b 1067 1054 1061 981 1075 1013 z m 465 389 b 465 385 465 388 465 386 l 465 383 l 464 379 b 456 363 461 374 458 368 b 438 329 450 351 444 340 b 394 269 425 307 411 285 b 338 229 375 251 360 250 b 289 172 317 211 304 192 b 229 121 264 143 260 135 b 201 114 219 117 211 117 b 193 111 199 113 194 111 b 189 111 192 111 190 111 b 181 114 186 111 183 111 b 178 121 179 115 178 118 b 178 133 176 122 176 128 b 188 165 179 144 183 156 b 246 243 203 196 224 221 b 317 307 268 265 292 286 b 347 349 333 321 344 338 b 326 357 350 360 344 367 b 318 353 324 356 321 354 b 338 371 326 361 333 367 b 342 375 339 372 340 374 b 369 372 339 361 353 364 b 410 411 386 382 404 397 b 443 428 414 422 429 428 b 457 418 458 428 457 419 l 457 418 b 457 418 457 418 457 418 b 457 415 457 417 457 415 b 457 415 457 415 457 415 l 458 408 b 463 392 460 403 461 397 b 463 390 463 392 463 390 l 463 390 l 464 389 l 465 388 b 465 383 465 386 465 385 z m 443 -165 b 443 -129 443 -153 443 -140 b 453 -26 444 -81 450 -49 b 453 -18 453 -24 453 -21 b 442 -167 446 -67 440 -118 z m 483 374 b 488 381 485 376 486 379 b 488 381 488 381 488 381 b 482 404 483 392 482 399 b 488 379 483 396 485 388 b 483 371 486 376 485 374 z "},"e":{"ha":619,"x_min":0,"x_max":0,"o":"m 543 181 b 538 185 542 185 540 186 b 526 172 535 183 532 178 b 515 163 524 169 519 165 b 501 153 511 160 507 157 b 485 140 496 149 490 144 b 514 167 494 149 504 157 b 525 186 519 172 524 179 b 525 197 525 190 525 194 b 532 185 528 190 529 186 b 538 193 533 183 536 186 b 528 224 539 200 538 213 b 483 242 519 235 503 244 b 471 236 479 240 475 239 b 461 229 467 233 463 231 b 444 217 456 225 450 221 b 413 192 433 208 422 200 b 363 151 393 176 374 163 b 271 110 344 133 307 117 b 221 106 253 106 235 104 b 193 114 207 107 197 111 b 176 161 169 124 176 158 b 179 161 178 161 178 161 l 182 161 l 189 160 b 233 156 203 157 218 156 b 321 175 261 156 292 163 b 403 226 350 188 378 206 b 469 296 428 247 450 271 b 517 372 489 321 504 347 b 535 421 525 390 531 406 b 540 444 536 429 539 436 b 542 457 540 449 542 453 b 542 467 542 461 542 465 b 543 475 542 468 543 472 b 543 486 543 478 543 482 b 539 506 542 493 540 499 b 522 550 536 519 532 535 b 483 590 513 567 499 581 b 435 608 468 600 451 606 b 336 600 400 614 368 608 b 278 576 311 593 293 585 b 239 554 263 568 250 561 b 161 493 215 539 193 524 b 103 438 140 474 124 463 b 25 290 72 400 43 347 b 8 125 7 233 1 174 b 15 89 8 113 13 100 b 21 72 17 83 19 78 b 28 56 24 67 25 61 b 72 0 38 33 54 15 b 135 -31 90 -15 113 -24 b 201 -39 157 -36 179 -39 b 326 -8 244 -37 286 -26 b 438 54 364 10 401 31 b 503 106 463 71 485 89 b 526 129 511 114 519 122 b 535 140 529 133 532 138 b 539 144 536 142 538 143 b 544 151 540 146 543 149 b 551 174 550 161 551 169 z m 344 417 b 361 422 350 419 356 421 b 357 422 360 422 358 422 b 343 419 350 421 346 419 b 347 419 344 419 346 419 z m 226 268 b 231 271 228 269 229 271 l 231 271 l 232 272 l 233 274 l 238 278 b 254 294 243 283 249 289 b 267 322 264 303 268 314 b 246 331 265 331 258 336 b 242 326 244 329 243 328 b 250 338 244 331 247 335 b 250 338 250 338 250 338 b 274 333 253 326 264 328 b 290 363 283 340 292 351 b 307 376 289 371 297 375 b 331 378 317 378 328 378 b 335 378 333 376 333 376 b 343 388 336 379 339 383 b 351 394 344 389 347 392 b 357 399 353 396 354 397 b 361 399 358 399 360 399 b 368 383 365 397 368 392 b 361 358 368 375 365 365 b 331 328 353 344 340 342 b 314 290 322 315 319 303 b 283 260 304 271 303 265 b 264 260 276 258 271 261 b 250 256 260 258 256 257 b 242 251 247 254 244 253 b 238 249 239 250 239 250 b 217 240 232 246 224 242 b 206 240 213 240 208 240 b 225 263 211 250 219 258 z m 165 188 b 165 192 165 189 165 190 b 242 169 189 178 215 171 b 222 171 235 169 228 169 b 169 190 196 175 181 183 b 165 189 167 192 165 190 z "},"f":{"ha":561,"x_min":0,"x_max":0,"o":"m 743 789 b 715 846 740 813 729 833 b 675 865 701 858 686 864 b 650 864 663 867 654 865 b 647 860 646 863 644 861 b 665 853 650 858 656 857 b 700 829 675 849 689 843 b 713 806 706 822 710 814 b 647 847 703 831 679 847 b 631 847 642 847 636 847 b 635 860 650 853 650 857 b 556 843 619 863 588 858 b 465 776 524 828 492 803 b 406 706 439 751 418 725 b 308 601 388 676 346 639 b 219 508 271 564 235 528 b 176 449 203 488 189 468 b 157 419 169 439 163 429 b 149 403 154 414 151 408 l 147 401 l 147 401 l 147 401 b 147 401 147 401 147 401 l 146 401 l 146 401 l 142 400 b 125 396 136 399 131 397 b 92 385 114 393 103 389 b 26 354 69 376 47 367 l 19 350 b 8 333 14 346 10 339 b 15 301 6 321 8 311 b 33 292 19 297 26 293 b 38 292 35 292 38 292 l 39 292 l 42 292 b 54 292 46 292 50 292 b 67 292 58 292 63 292 l 74 292 l 78 292 b 94 292 83 292 89 292 l 99 292 l 101 292 b 101 292 101 292 101 292 l 99 285 b 90 268 96 279 93 274 b 65 207 82 249 74 228 b -11 -33 33 125 7 40 b -37 -144 -22 -78 -31 -110 b -49 -271 -44 -179 -51 -215 b -35 -343 -47 -296 -43 -321 b 4 -403 -26 -365 -14 -386 b 65 -436 22 -419 43 -431 b 133 -436 88 -442 111 -442 b 208 -390 169 -426 192 -407 b 246 -340 225 -374 236 -357 b 306 -222 264 -307 281 -276 b 347 -119 321 -186 335 -162 b 367 76 363 -64 372 6 b 349 181 364 111 358 147 l 347 183 b 347 186 347 183 347 185 l 346 192 l 343 204 b 339 225 342 211 340 218 b 335 238 338 229 336 233 l 333 244 l 332 247 b 332 249 332 249 331 250 b 357 242 340 246 349 243 b 425 243 378 236 403 235 b 467 304 450 250 471 275 b 460 322 465 311 463 318 b 451 336 457 328 454 332 b 428 361 444 346 436 354 b 415 369 424 364 419 367 b 407 374 413 371 410 372 l 403 375 b 390 381 399 378 394 379 b 392 383 389 381 390 382 l 394 386 l 399 392 l 403 397 l 410 407 b 446 449 421 421 433 435 b 519 528 469 476 494 503 b 600 599 546 553 572 578 b 690 674 629 621 661 643 b 729 728 706 689 719 707 b 735 744 732 733 733 739 l 738 753 l 740 761 b 743 796 743 772 744 785 z m 99 -194 b 93 -221 96 -207 94 -215 b 101 -185 96 -208 99 -196 b 101 -193 101 -187 101 -190 z m 33 340 b 33 340 33 340 33 340 b 61 354 43 346 53 350 b 138 378 96 369 121 375 b 150 379 142 379 146 379 b 33 339 110 371 69 358 z m 214 -208 b 221 -200 217 -206 218 -203 b 208 -225 217 -208 213 -217 b 204 -229 207 -226 206 -228 b 178 -240 201 -214 189 -224 b 161 -267 172 -249 167 -258 b 151 -290 157 -274 150 -286 b 142 -299 151 -296 147 -300 b 133 -296 139 -299 136 -297 b 125 -289 131 -294 126 -292 b 121 -265 115 -279 121 -269 b 122 -232 121 -256 121 -244 b 126 -190 124 -218 125 -204 b 131 -114 128 -168 128 -142 b 149 -36 133 -86 139 -58 b 190 28 161 -10 175 -1 b 207 67 197 42 203 54 b 219 104 211 79 215 92 b 240 154 226 126 232 144 b 246 160 242 157 244 158 b 247 153 247 160 247 157 b 247 149 247 153 247 150 b 247 143 247 147 247 144 b 247 133 247 140 247 138 b 250 106 246 117 247 114 l 251 97 b 251 92 251 96 251 94 b 251 83 251 89 251 86 b 254 51 253 72 254 61 b 208 -151 256 -26 238 -89 b 194 -206 199 -172 193 -193 b 217 -206 196 -218 203 -222 z "},"g":{"ha":825,"x_min":0,"x_max":0,"o":"m 829 589 b 811 631 826 604 821 619 b 740 665 792 654 764 664 b 682 653 717 667 696 661 b 665 642 676 650 671 646 b 657 635 663 640 660 638 l 653 631 b 651 626 653 629 651 628 b 647 618 650 624 649 621 l 646 617 b 644 618 646 617 644 618 l 640 619 b 632 624 638 621 635 622 b 621 629 629 625 625 628 b 519 656 590 642 556 651 b 347 633 447 664 378 646 b 324 622 339 631 331 626 b 300 610 315 618 307 614 b 258 583 286 601 271 593 b 238 571 251 579 244 575 b 221 554 232 565 226 560 b 186 522 208 544 197 533 b 75 376 142 479 106 431 b 44 308 64 356 53 333 b 31 229 36 283 31 257 b 47 143 31 201 35 171 b 111 81 61 117 83 93 b 199 71 139 67 171 65 b 278 104 228 78 254 90 b 408 197 326 133 369 167 b 447 229 422 208 435 219 b 478 254 458 238 468 246 b 515 283 490 264 503 274 b 524 290 518 285 521 288 b 524 290 524 290 524 290 l 524 289 l 522 286 l 521 281 b 517 268 519 276 518 272 b 496 225 510 253 503 239 b 488 200 493 217 490 208 b 483 188 486 196 485 192 b 482 185 483 186 483 185 l 476 181 b 403 136 451 165 426 150 b 332 93 379 121 356 107 b 263 44 308 78 286 61 b 114 -75 190 -8 151 -43 b -15 -193 76 -108 40 -139 b -114 -299 -51 -229 -78 -253 b -133 -325 -121 -307 -126 -317 b -154 -354 -140 -333 -147 -343 b -185 -424 -167 -375 -178 -399 b -192 -504 -192 -449 -196 -476 b -162 -583 -189 -532 -179 -560 b -96 -637 -146 -607 -122 -626 b -15 -650 -69 -649 -42 -651 b 58 -633 11 -649 36 -642 b 118 -604 81 -625 100 -614 b 306 -456 192 -562 253 -511 b 449 -282 360 -400 406 -342 b 569 -100 492 -222 531 -162 b 681 96 608 -37 646 26 b 769 329 728 190 758 282 b 735 296 781 376 772 378 b 718 263 729 285 724 274 b 758 367 738 313 753 351 b 765 388 761 374 763 381 b 811 469 757 333 785 386 b 831 536 818 490 825 513 b 835 557 832 543 833 550 b 833 578 835 564 835 571 z m 104 368 b 117 389 108 376 113 383 b 183 471 144 431 167 454 b 185 472 185 472 185 472 b 103 367 153 439 125 403 z m 154 -400 b 163 -390 157 -396 160 -393 b 190 -361 176 -375 185 -367 b 154 -401 181 -372 168 -386 z m 389 -56 b 401 -40 393 -51 397 -46 b 381 -81 394 -54 388 -68 b 376 -89 379 -83 378 -86 b 343 -108 378 -68 361 -83 b 301 -193 325 -135 306 -171 b 264 -250 299 -211 282 -232 b 218 -292 246 -268 226 -283 b 139 -392 186 -326 165 -357 b 67 -478 119 -417 96 -449 b 19 -517 51 -492 36 -506 b -35 -531 3 -526 -17 -533 b -58 -517 -46 -529 -54 -524 b -65 -496 -62 -510 -65 -503 b -64 -474 -67 -489 -65 -482 b -56 -446 -62 -465 -60 -457 b -6 -339 -40 -407 -25 -374 b 31 -281 10 -311 19 -294 b 74 -235 42 -267 53 -254 b 115 -203 88 -222 100 -217 b 267 -64 160 -162 219 -100 b 338 -14 290 -46 314 -29 b 371 7 349 -7 360 0 l 379 11 l 383 14 l 386 15 b 394 19 389 17 392 18 b 410 22 404 24 410 25 b 393 3 401 11 396 4 b 393 3 393 3 393 3 l 393 3 l 390 -3 b 381 -25 386 -11 383 -18 b 369 -61 375 -39 371 -51 b 394 -57 367 -79 374 -83 z m 247 181 b 254 185 250 182 253 183 b 275 194 264 190 271 193 b 247 182 267 190 257 186 z m 542 428 b 458 361 529 418 492 385 b 447 313 425 336 411 297 b 456 317 450 314 453 315 b 439 300 450 311 444 306 b 435 296 438 299 436 297 b 408 299 438 310 424 307 b 372 261 393 290 376 275 b 340 242 368 250 354 244 b 306 238 326 239 311 239 b 272 222 293 233 283 229 b 243 203 261 215 253 208 b 222 193 236 199 228 194 b 214 193 218 193 215 193 b 210 203 213 193 210 197 b 218 238 210 214 214 226 b 233 267 222 249 226 258 b 283 308 249 286 264 289 b 329 358 301 325 314 342 b 389 403 354 385 358 392 b 418 408 399 406 407 404 b 471 431 435 414 453 424 b 499 440 481 435 490 438 b 511 444 503 442 507 443 b 517 444 514 444 515 444 b 521 444 518 444 519 444 b 538 440 526 444 532 443 b 544 436 540 439 543 438 l 547 433 b 544 429 547 432 546 431 z "},"h":{"ha":646,"x_min":0,"x_max":0,"o":"m 443 731 b 489 796 457 753 472 775 b 543 860 506 818 524 839 b 647 994 581 903 619 946 b 663 1033 654 1007 661 1019 b 653 1072 664 1047 660 1061 b 590 1113 640 1096 615 1111 b 549 1103 575 1114 561 1108 b 515 1085 536 1097 525 1092 b 460 1043 494 1072 476 1058 b 356 915 425 1011 393 974 b 193 614 285 810 240 715 b 117 440 156 533 136 485 b 49 283 97 396 79 354 b -10 153 28 236 11 206 b -54 22 -25 114 -40 69 b -62 -14 -57 11 -60 -1 b -75 -56 -67 -28 -71 -42 b -82 -107 -82 -78 -81 -92 l -85 -131 b -82 -139 -85 -135 -83 -136 b -75 -147 -81 -142 -78 -144 b -33 -153 -64 -157 -44 -158 b -21 -142 -28 -150 -25 -146 l -15 -135 b -12 -132 -15 -135 -14 -133 l -10 -128 l -6 -121 b 11 -96 0 -111 6 -104 b 18 -85 14 -92 17 -87 l 24 -76 b 42 -43 31 -65 36 -54 b 107 74 65 0 85 40 b 181 182 131 111 156 147 b 257 282 206 217 231 251 b 342 367 283 313 311 342 l 353 376 l 358 381 b 369 389 363 383 367 386 b 378 394 372 392 375 393 b 382 393 381 396 386 400 l 375 375 b 367 349 372 368 372 369 b 340 254 357 317 349 286 b 321 154 332 222 325 189 b 333 43 318 119 318 82 b 381 -18 343 19 360 -3 b 413 -35 390 -25 401 -31 b 429 -40 418 -37 424 -39 b 438 -40 432 -40 435 -40 l 442 -40 l 449 -42 b 494 -25 467 -43 483 -36 b 510 18 506 -14 511 3 b 506 43 508 26 507 35 b 506 63 506 50 506 57 b 503 117 504 88 504 107 b 494 118 501 126 499 128 b 482 51 490 108 485 88 b 482 31 482 44 482 38 b 482 14 482 25 482 19 b 482 18 482 15 482 17 b 485 125 479 54 481 90 b 488 147 485 131 486 139 b 488 147 488 147 488 147 b 499 138 488 119 492 121 b 503 153 500 142 501 147 b 510 175 504 160 507 167 b 528 228 515 190 521 208 b 582 353 542 267 561 313 b 625 465 603 396 618 436 b 629 483 626 471 628 476 b 629 488 629 485 629 486 l 631 493 b 635 506 632 497 633 501 b 635 531 636 514 636 522 b 635 535 635 533 635 533 b 635 542 635 536 635 539 b 633 554 635 546 635 550 b 603 600 631 571 621 590 b 594 607 599 603 599 603 b 582 615 590 610 586 613 b 554 626 574 619 564 624 b 449 617 515 636 478 626 b 383 588 419 607 397 596 b 347 564 371 581 358 572 b 369 606 354 578 361 592 b 442 732 390 644 414 688 z m 332 588 b 301 532 319 565 310 547 b 301 532 301 532 301 532 b 351 619 318 561 335 590 b 335 590 346 608 340 599 z "},"i":{"ha":364,"x_min":0,"x_max":0,"o":"m 432 653 b 419 686 429 665 424 676 b 419 700 419 692 419 696 b 418 721 419 707 419 714 b 408 742 417 728 415 735 b 385 754 401 749 393 753 b 361 751 376 756 368 754 b 349 749 358 750 351 750 b 339 744 344 747 342 746 b 318 743 333 743 328 743 b 296 743 311 743 304 746 b 275 729 289 742 281 736 b 268 718 272 726 269 722 b 264 714 267 717 265 715 b 263 711 263 713 263 713 b 263 710 263 711 263 710 l 260 706 b 256 697 258 703 257 700 b 249 682 253 692 250 686 b 236 621 239 663 233 642 b 265 560 238 600 247 578 b 304 550 278 547 296 546 b 304 571 313 554 313 563 b 300 575 303 572 301 574 b 313 571 304 574 308 572 b 317 571 314 571 315 571 b 326 550 308 563 314 553 b 360 564 339 547 356 553 b 381 572 363 572 371 572 b 406 575 390 572 401 572 b 433 619 424 583 431 601 b 431 656 435 631 433 643 z m 413 625 b 404 615 410 619 407 617 b 413 631 407 619 410 625 b 413 626 413 629 413 628 z m 282 481 b 238 499 269 492 253 499 b 214 497 229 499 221 499 b 201 497 210 497 206 497 b 192 494 197 497 194 496 b 169 489 183 493 176 490 b 150 482 163 488 157 485 b 131 472 143 479 138 476 b 110 456 124 468 117 463 b 60 372 83 429 72 401 b 19 281 42 326 42 317 b -3 246 13 268 4 261 b -21 164 -14 224 -21 194 b -8 79 -22 133 -17 103 b 44 7 3 50 21 25 b 61 -6 50 3 56 -1 l 79 -15 b 100 -24 86 -18 93 -21 b 108 -28 103 -25 106 -26 b 114 -28 110 -28 111 -28 l 122 -29 b 179 6 146 -35 172 -19 b 182 25 181 11 182 18 b 182 33 182 28 182 31 b 181 40 181 38 181 39 b 181 58 181 46 181 51 b 179 117 182 82 182 104 b 157 110 176 129 168 132 b 153 100 156 107 154 103 b 160 131 154 111 157 121 b 160 135 160 132 160 133 b 169 132 163 128 167 129 b 182 146 172 135 176 139 b 183 150 182 147 182 149 l 186 154 b 190 163 188 157 189 160 b 199 178 193 167 196 172 b 211 206 204 188 208 197 b 211 210 211 207 211 208 b 211 213 211 211 211 211 b 211 217 211 214 211 215 b 235 261 211 231 222 247 b 268 292 247 275 263 285 b 313 390 292 319 308 351 b 307 436 314 404 313 421 b 279 479 301 453 292 468 z m 290 383 b 279 356 286 369 282 361 b 279 356 279 356 279 356 b 292 390 285 367 289 378 b 292 383 292 388 292 385 z "},"j":{"ha":397,"x_min":0,"x_max":0,"o":"m 449 760 b 424 797 444 772 435 786 b 390 824 413 808 400 815 b 375 840 385 829 381 835 b 351 850 369 844 363 849 b 306 831 332 851 317 842 b 297 819 301 826 299 822 b 293 817 296 818 294 818 b 289 813 292 815 290 814 b 268 800 283 808 278 806 b 250 789 263 796 256 794 b 235 751 242 781 236 765 b 239 711 233 736 236 722 b 239 711 239 711 239 711 b 235 672 235 699 233 685 b 346 604 240 618 297 586 b 394 649 368 613 385 629 b 408 672 403 654 410 664 b 422 694 407 682 414 688 b 443 711 431 700 440 707 b 450 738 449 719 450 729 b 446 763 450 746 449 754 z m 424 743 b 424 751 424 746 424 749 b 424 761 424 756 424 758 b 424 757 424 760 424 758 b 422 743 424 750 424 746 z m 315 574 b 286 585 306 579 296 582 b 257 586 276 586 267 588 b 229 581 247 586 238 583 b 206 565 221 576 213 571 b 190 549 200 560 194 554 b 182 533 188 543 185 538 b 182 507 176 514 178 504 b 194 519 185 508 189 513 b 204 532 196 524 200 528 b 219 546 208 538 214 542 b 236 553 225 549 231 551 b 192 503 217 546 200 531 b 188 490 190 499 189 494 b 188 490 188 490 188 490 b 114 338 192 549 140 429 l 113 333 b 96 275 106 311 99 290 b -14 67 85 214 7 104 b -69 -43 -35 28 -53 -8 b -119 -146 -85 -78 -101 -111 b -229 -324 -147 -197 -183 -262 b -307 -407 -251 -354 -279 -382 b -392 -471 -335 -432 -362 -454 b -440 -493 -408 -481 -425 -486 b -483 -510 -456 -499 -469 -504 b -504 -518 -490 -512 -497 -515 b -517 -522 -508 -519 -512 -521 b -532 -532 -522 -525 -528 -528 b -551 -565 -542 -540 -549 -551 b -540 -608 -553 -579 -550 -594 b -507 -631 -532 -621 -517 -628 b -474 -639 -496 -635 -485 -637 b -412 -636 -453 -642 -432 -640 b -306 -593 -374 -626 -339 -612 b -203 -517 -253 -562 -228 -537 b -117 -437 -178 -494 -154 -474 b -47 -371 -92 -414 -72 -400 b 160 -44 28 -285 107 -142 b 299 232 213 53 260 142 b 354 367 318 276 336 321 b 367 400 358 378 363 389 l 374 417 l 376 425 l 378 429 b 379 436 378 431 379 433 b 358 529 386 468 378 503 b 308 569 346 547 328 561 z m -69 -100 b -86 -129 -75 -110 -81 -119 b -86 -129 -86 -129 -86 -129 b -86 -129 -86 -129 -86 -129 b -86 -133 -86 -131 -86 -132 b -99 -154 -90 -140 -94 -147 b -103 -162 -100 -157 -101 -160 b -93 -144 -99 -156 -96 -150 b -56 -78 -75 -112 -64 -92 b -67 -99 -60 -86 -64 -93 z "},"k":{"ha":763,"x_min":0,"x_max":0,"o":"m 696 644 b 642 676 681 658 663 669 b 625 681 636 678 631 679 b 608 685 619 682 614 683 b 576 688 599 688 588 688 b 453 647 533 688 490 671 b 275 476 382 604 325 540 b 353 617 300 526 326 574 b 444 744 386 671 414 707 b 494 800 460 763 475 781 b 561 867 514 819 536 842 b 626 939 585 890 607 914 b 654 978 636 951 646 964 b 667 999 658 985 663 992 b 671 1008 668 1001 669 1004 b 674 1021 672 1013 674 1017 b 665 1074 678 1039 674 1058 b 631 1110 657 1089 644 1101 b 581 1122 617 1118 599 1124 b 568 1119 576 1121 572 1121 b 556 1115 564 1118 560 1117 b 535 1104 549 1111 542 1108 b 447 1025 493 1079 468 1050 b 396 956 426 1000 411 978 b 353 888 382 933 368 913 b 297 801 338 864 319 836 b 217 674 268 756 246 726 b 85 397 174 596 126 497 b -18 113 43 297 8 196 b -43 33 -26 86 -35 60 b -56 -4 -47 21 -51 8 b -64 -29 -58 -12 -61 -21 b -72 -54 -67 -37 -69 -46 b -81 -79 -75 -62 -78 -71 l -82 -86 l -82 -90 l -82 -99 l -83 -115 b -82 -132 -83 -121 -85 -126 b -67 -146 -79 -137 -74 -143 b -46 -149 -60 -149 -53 -150 b -32 -142 -39 -147 -35 -144 l -22 -131 l -17 -125 b -12 -117 -15 -122 -14 -119 b 0 -94 -8 -112 -4 -103 b 25 -44 8 -78 17 -61 b 42 -7 31 -32 36 -19 l 50 10 l 51 14 b 53 17 51 15 51 15 l 58 25 b 100 88 72 46 86 67 l 110 101 l 114 107 l 118 111 l 119 114 b 119 115 119 114 119 117 b 124 103 121 111 122 107 l 125 100 l 131 92 b 143 75 135 86 139 81 b 200 7 158 51 176 26 b 374 -53 246 -33 310 -56 b 460 -37 404 -51 433 -46 b 531 -7 486 -29 510 -18 b 621 63 572 17 603 43 b 629 71 624 65 626 68 b 636 81 632 74 635 78 b 640 97 639 88 640 93 b 635 104 640 106 638 108 b 617 81 632 101 629 90 b 569 51 606 74 590 64 b 536 32 558 44 547 38 b 611 86 563 47 588 65 b 624 108 618 92 622 100 b 621 128 625 115 624 122 b 632 107 629 117 629 108 b 635 126 633 106 638 113 b 622 149 633 133 629 142 b 590 161 615 156 604 161 b 569 157 583 161 576 160 b 561 151 567 156 563 153 b 557 147 560 150 558 149 b 531 131 549 142 540 136 b 468 107 511 121 490 113 b 403 101 446 100 424 99 b 346 124 382 106 363 114 b 306 154 329 133 315 144 b 297 163 303 157 300 160 b 290 171 294 165 293 168 b 286 181 289 174 288 176 l 283 186 l 282 189 b 282 192 282 190 281 192 b 296 196 286 193 290 194 b 304 196 299 196 301 196 b 313 200 307 197 310 199 b 354 213 326 204 340 208 b 439 243 382 222 411 232 b 565 307 494 264 542 290 b 646 374 596 328 622 350 b 708 453 669 397 692 424 b 729 500 717 468 724 483 b 738 554 735 517 739 536 b 692 653 736 592 719 628 z m 546 550 b 538 538 543 546 540 542 b 533 529 536 535 535 532 l 531 524 b 506 479 525 511 517 494 b 469 443 496 464 483 450 b 419 432 451 435 439 440 b 397 419 411 428 404 424 b 389 414 393 417 392 415 b 381 410 386 413 383 411 b 342 394 363 397 346 389 b 351 408 340 397 350 406 b 349 408 353 410 351 410 l 347 408 b 347 408 347 408 347 408 b 347 408 347 408 347 408 b 347 410 347 408 347 408 b 349 418 346 411 346 414 b 364 432 353 422 358 428 b 372 438 367 435 369 436 l 376 440 l 383 444 b 443 476 403 457 422 467 b 469 503 457 483 467 494 b 453 517 472 511 468 518 b 446 517 451 517 449 517 b 463 525 451 519 457 522 b 467 525 464 525 465 525 b 489 515 464 513 476 511 b 519 539 501 519 515 528 b 536 547 522 544 529 547 b 544 544 539 547 542 546 b 544 544 544 544 544 544 z m 550 511 b 546 507 549 510 547 508 b 550 511 547 508 549 510 b 563 525 556 518 560 522 b 550 513 558 521 554 517 z m 713 540 b 700 497 711 522 706 508 b 696 489 699 494 697 492 b 707 518 700 499 704 508 b 676 633 719 561 706 604 b 699 604 686 624 693 614 b 713 540 711 581 714 558 z "},"l":{"ha":306,"x_min":0,"x_max":0,"o":"m 611 1050 l 610 1058 b 606 1068 608 1061 607 1065 b 594 1083 603 1074 599 1079 b 565 1103 586 1092 576 1099 b 532 1110 554 1107 543 1110 b 501 1103 519 1108 511 1106 b 474 1089 492 1099 482 1094 b 424 1031 447 1069 435 1047 b 396 983 413 1013 404 997 b 331 883 378 954 360 928 b 276 803 311 854 296 836 b 114 447 218 704 156 551 b 3 156 71 343 35 249 b -83 -133 -28 63 -64 -28 b -89 -236 -90 -169 -92 -206 b -86 -258 -87 -244 -87 -251 b -83 -268 -85 -262 -83 -265 l -82 -274 b -81 -279 -82 -275 -82 -275 b -58 -307 -78 -290 -69 -301 b -29 -311 -49 -312 -37 -312 b -3 -290 -12 -307 -6 -296 b -4 -285 0 -285 -1 -283 b -24 -294 -7 -286 -12 -292 b -43 -293 -29 -296 -36 -296 b -57 -275 -50 -290 -56 -283 b -57 -250 -57 -267 -57 -258 b -53 -271 -56 -257 -54 -264 b -14 -278 -49 -292 -24 -294 b -6 -265 -11 -274 -8 -269 b -6 -265 -6 -265 -6 -265 b 3 -275 -11 -283 -7 -285 b 38 -215 13 -265 26 -243 b 65 -124 49 -187 58 -154 b 81 -46 72 -93 79 -65 b 168 174 86 17 150 136 b 260 399 204 256 229 324 b 347 593 282 454 311 524 b 464 785 382 663 424 731 b 528 864 488 818 507 840 b 558 903 538 876 547 889 b 594 954 569 917 582 932 b 613 1019 606 974 613 997 b 608 1051 613 1031 611 1042 z m 228 388 b 200 326 215 360 207 340 b 233 397 211 350 222 374 b 229 386 232 393 231 389 z "},"m":{"ha":1074,"x_min":0,"x_max":0,"o":"m 1031 503 b 1013 531 1026 514 1019 524 b 974 561 1003 542 990 553 b 947 569 965 565 957 568 b 932 571 943 571 938 571 l 924 569 b 918 569 922 569 921 569 b 803 531 878 571 838 551 b 710 464 768 510 736 486 b 701 456 707 461 704 458 b 706 547 707 485 710 515 b 688 600 703 565 697 583 b 647 642 678 617 664 632 b 592 656 631 651 611 656 b 539 640 572 656 554 649 b 486 603 519 631 503 617 b 436 560 469 589 453 575 b 338 460 403 529 369 496 b 243 347 306 424 274 386 b 164 243 217 313 190 278 b 243 386 189 294 215 343 b 294 461 261 415 278 439 b 307 478 299 467 303 471 b 317 496 311 483 315 489 l 321 506 b 322 517 322 508 322 513 b 322 538 324 524 322 531 b 303 578 319 551 314 567 b 285 594 299 585 292 589 b 263 607 278 599 271 604 b 206 606 246 613 225 614 b 157 564 186 599 168 583 b 65 381 119 500 90 440 b 32 290 53 351 42 321 b 3 199 22 260 13 229 b -33 28 -19 126 -29 74 b -33 11 -33 22 -33 17 b -31 -6 -33 6 -32 0 b -7 -32 -26 -17 -18 -26 b 29 -35 4 -37 17 -39 b 38 -31 32 -33 35 -32 b 46 -25 40 -29 43 -28 b 51 -17 47 -22 50 -19 l 54 -12 l 56 -11 l 57 -10 b 64 -1 58 -7 61 -4 b 72 7 67 1 69 4 b 92 25 78 13 85 18 b 135 68 106 38 119 51 b 247 188 175 111 204 139 b 386 329 288 232 335 281 b 425 367 399 342 411 354 l 446 385 l 456 393 l 460 397 l 476 414 l 486 422 l 492 426 l 494 429 b 494 429 494 429 494 429 l 494 428 b 486 403 492 419 489 411 b 482 390 485 399 483 394 l 479 383 l 475 374 b 433 271 460 338 446 303 b 413 225 426 256 419 240 b 404 204 410 218 407 211 b 396 179 401 197 397 188 b 403 125 392 161 394 142 b 440 86 411 108 425 96 b 492 72 456 78 474 72 b 544 89 510 72 529 78 b 574 133 560 100 569 117 b 576 142 575 139 575 139 b 581 147 576 143 578 144 l 596 164 b 714 293 635 208 674 251 b 744 322 724 303 735 314 b 757 332 749 326 753 329 b 767 339 761 335 764 338 b 769 336 769 340 774 344 b 760 315 765 328 763 321 l 758 311 l 758 310 l 757 306 l 754 296 b 746 258 751 283 749 271 b 732 182 740 233 736 208 b 729 99 728 156 726 128 b 769 3 732 65 744 29 b 811 -26 782 -10 796 -19 b 835 -36 818 -31 826 -33 b 843 -37 836 -36 840 -37 b 851 -37 846 -37 849 -37 b 868 -36 857 -37 863 -37 b 910 10 890 -31 907 -11 b 911 26 911 15 911 21 b 911 35 911 29 911 32 b 911 49 911 40 911 44 b 911 96 911 67 911 83 b 906 131 911 122 910 136 b 886 49 901 125 892 100 b 885 19 885 39 885 29 b 882 10 885 15 883 13 b 885 21 883 13 885 17 b 893 135 883 60 888 100 b 896 157 893 140 894 149 b 900 135 896 143 899 136 b 906 146 901 133 903 138 b 939 239 910 163 922 197 l 939 239 l 939 239 b 954 275 943 250 949 263 b 971 313 960 288 965 300 b 1007 390 982 338 996 364 b 1022 432 1013 404 1018 418 b 1028 453 1025 439 1026 446 b 1032 475 1029 460 1032 468 b 1025 515 1033 490 1031 504 z m 624 638 b 549 635 597 649 572 644 b 583 644 561 640 572 644 b 650 619 613 646 636 633 b 674 578 664 606 669 590 b 674 574 674 576 674 575 b 624 639 667 601 651 626 z m 939 243 l 939 243 l 939 244 z "},"n":{"ha":665,"x_min":0,"x_max":0,"o":"m 560 290 b 625 460 586 342 625 413 b 607 521 624 478 619 500 b 583 550 601 532 593 542 b 568 563 579 554 574 558 b 563 567 565 564 565 564 b 554 572 560 569 557 571 b 478 586 531 588 500 590 b 426 569 454 582 438 575 b 321 488 382 546 350 515 b 310 478 318 485 314 481 b 314 490 311 482 313 486 l 317 504 b 318 517 318 508 318 513 b 300 567 318 535 311 553 b 256 593 289 581 272 589 b 207 589 239 597 222 596 b 197 583 203 588 200 585 b 193 579 196 582 194 581 l 189 575 l 181 567 b 172 558 178 564 175 561 b 117 472 150 524 133 499 b 63 372 100 446 82 417 b 21 257 44 332 32 293 b -11 144 10 219 -1 183 b -31 14 -25 85 -28 49 b -3 -35 -32 -4 -24 -25 b 32 -36 7 -39 19 -40 b 61 -7 44 -32 56 -19 b 86 35 69 8 78 21 b 92 43 88 38 89 40 l 94 49 b 96 50 94 49 96 50 b 96 50 96 50 96 50 b 113 71 101 56 107 63 b 235 225 147 117 189 172 b 306 300 258 251 282 276 b 339 335 317 313 328 324 b 351 347 343 339 347 343 b 360 356 354 350 357 353 b 378 371 365 361 371 367 l 388 378 l 390 379 b 390 379 390 379 392 381 l 388 374 b 358 279 376 346 371 333 b 344 213 353 257 349 235 b 335 144 340 190 336 168 b 338 75 333 122 333 99 b 369 6 342 51 351 26 b 383 -10 374 0 379 -4 b 400 -22 389 -14 394 -18 b 418 -32 406 -26 413 -29 b 429 -36 422 -33 424 -35 b 444 -39 433 -37 439 -39 b 499 -12 465 -40 486 -29 b 510 17 504 -4 508 6 l 511 36 b 531 197 514 103 526 165 b 528 221 532 214 532 222 b 503 178 524 219 514 207 b 494 153 500 169 497 161 b 517 228 504 197 517 228 b 521 240 518 232 519 236 b 521 240 521 240 521 240 b 563 290 517 201 538 238 z m 324 456 b 267 400 304 438 285 419 b 267 400 267 400 267 400 b 267 400 267 400 267 400 b 319 450 290 425 307 440 b 324 454 321 451 322 453 b 319 450 322 453 321 451 z "},"o":{"ha":539,"x_min":0,"x_max":0,"o":"m 513 432 b 492 418 508 451 501 450 b 488 406 490 414 489 410 b 492 446 490 424 492 438 b 492 454 492 449 492 451 b 504 451 496 444 500 444 b 511 490 508 458 511 472 b 503 546 511 507 508 528 b 478 588 497 564 488 579 b 429 644 464 600 451 625 b 367 679 408 665 381 676 b 289 668 338 683 311 678 b 229 628 267 658 247 644 b 167 522 203 604 176 565 b 163 489 164 511 163 500 b 163 474 163 483 163 479 b 154 464 164 468 157 467 b 129 446 146 458 138 451 b 107 426 122 439 114 433 b 67 388 90 411 79 400 b 33 333 56 374 43 358 b 18 203 14 288 13 246 b 38 133 22 169 31 150 b 68 75 44 117 51 100 b 103 31 79 58 85 44 b 217 4 129 8 175 -4 b 318 56 258 11 293 35 b 351 88 331 65 342 76 l 358 96 b 364 101 360 97 363 100 l 367 106 b 379 122 371 111 375 117 b 403 157 388 133 394 146 b 425 190 410 168 418 179 b 499 342 454 238 479 286 b 511 436 513 379 515 417 z m 368 536 b 364 540 367 538 365 539 b 357 549 361 544 358 547 b 357 549 357 549 357 549 b 368 536 361 546 365 542 z m 249 621 b 285 640 265 632 276 638 b 239 614 268 633 253 625 b 247 621 242 617 244 619 z m 204 213 b 204 208 204 211 204 210 b 207 199 206 204 207 201 b 204 210 206 201 204 206 z m 310 278 b 310 274 310 276 310 275 b 306 269 308 272 307 271 b 297 263 303 267 300 264 b 286 256 296 263 290 258 b 271 247 282 253 276 250 b 264 229 264 243 263 236 b 281 217 265 222 271 215 b 285 217 282 217 283 217 b 276 208 282 214 279 211 b 276 208 276 208 276 208 b 258 218 274 218 265 219 b 246 201 251 217 246 211 b 236 197 246 193 239 193 b 233 211 232 201 233 210 b 232 214 233 214 233 214 b 225 215 231 214 228 214 b 213 236 221 217 215 226 b 215 264 210 246 210 257 b 240 279 222 272 233 271 b 244 289 244 285 244 286 b 246 300 244 292 244 296 b 247 308 246 303 246 307 b 263 300 251 310 257 308 b 269 286 264 297 265 290 b 281 281 272 283 276 282 b 286 279 282 279 285 279 l 289 279 b 304 281 293 279 300 281 b 308 281 306 281 307 281 b 310 281 308 281 310 281 z m 375 467 b 356 435 371 453 360 449 b 353 417 353 428 353 422 b 354 400 353 411 353 404 b 353 374 356 389 356 379 b 343 381 350 375 347 378 b 335 394 339 385 336 392 b 314 406 335 397 324 401 b 288 419 304 410 294 414 b 275 432 282 424 276 429 l 275 435 l 274 440 b 269 453 272 444 271 449 b 264 471 268 460 263 469 b 265 475 264 472 264 474 b 268 481 265 476 267 479 b 275 490 269 485 272 488 b 281 511 281 496 282 504 b 263 519 279 518 274 524 b 258 517 261 519 260 518 b 267 525 261 519 264 522 b 267 525 267 525 267 525 b 286 519 269 515 279 515 b 303 539 294 522 301 529 b 318 546 303 547 311 549 b 328 539 322 544 325 542 b 333 535 331 538 332 535 b 340 531 336 532 338 531 b 344 531 342 531 343 531 b 350 528 346 529 349 529 b 371 506 356 525 365 517 b 376 469 376 494 379 481 z "},"p":{"ha":800,"x_min":0,"x_max":0,"o":"m 790 529 b 740 614 782 554 768 588 b 633 663 714 640 674 658 b 522 649 593 667 554 660 b 472 628 503 642 486 635 b 482 664 476 639 479 650 b 474 713 485 682 481 699 b 444 746 467 726 457 738 b 400 763 432 754 417 761 b 375 758 392 763 383 761 b 363 754 371 757 367 756 l 354 749 b 338 736 349 744 343 740 b 321 722 332 732 326 728 b 264 656 300 703 281 681 b 172 496 229 607 201 551 b 6 174 111 386 54 271 b -71 28 -25 115 -47 72 b -146 -135 -93 -17 -117 -64 b -182 -228 -160 -167 -171 -199 b -218 -315 -194 -257 -207 -286 b -246 -404 -229 -344 -239 -374 b -254 -500 -253 -435 -257 -467 b -254 -508 -254 -503 -254 -506 b -251 -519 -253 -512 -251 -517 b -224 -546 -249 -535 -236 -544 b -190 -536 -211 -549 -199 -544 b -156 -496 -174 -524 -164 -510 b -118 -419 -139 -468 -129 -443 b -83 -346 -107 -396 -96 -372 b -79 -337 -82 -343 -81 -340 b -74 -329 -78 -335 -76 -332 b -61 -308 -69 -322 -65 -315 b -31 -262 -51 -294 -42 -279 b 58 -135 0 -217 24 -187 b 139 -7 83 -96 111 -53 b 225 135 167 39 196 88 b 242 161 231 144 236 153 l 239 157 b 235 149 238 154 236 151 b 233 72 226 124 226 97 b 279 8 240 47 256 24 b 357 -10 301 -8 332 -12 b 518 49 421 -6 476 21 b 572 90 539 63 557 76 b 583 99 576 93 581 96 b 592 107 586 101 589 104 b 607 125 597 114 603 119 b 624 156 624 146 631 157 b 601 142 619 154 613 150 b 582 126 596 138 589 132 b 557 107 575 121 567 114 b 521 83 546 99 533 90 b 565 117 536 93 551 104 b 615 163 583 132 600 147 b 632 179 621 168 626 174 b 632 179 632 179 632 179 b 638 167 615 153 619 151 b 710 249 654 181 682 210 l 713 249 l 718 257 b 765 349 736 283 753 315 l 778 383 l 774 383 b 785 444 779 404 783 425 b 778 522 788 475 785 503 z m 424 718 b 449 663 443 703 451 681 b 435 619 446 644 440 631 b 426 604 432 614 429 608 b 447 658 436 621 443 639 b 404 729 454 688 432 719 b 425 718 413 726 419 722 z m 599 479 l 597 475 l 596 469 b 586 443 593 460 590 451 b 558 393 579 425 569 408 b 522 349 547 378 535 363 b 501 328 515 342 508 335 l 494 321 b 490 319 493 319 492 319 l 485 318 b 368 281 446 308 407 297 b 296 238 343 269 318 256 b 317 265 303 247 310 257 b 410 378 347 307 379 346 b 507 463 440 410 472 439 b 561 492 525 474 543 485 b 583 496 569 494 579 496 b 599 489 589 494 596 494 b 599 481 600 486 599 483 z "}}}
